<svg width="51" height="50" viewBox="0 0 51 50" fill="none" xmlns="http://www.w3.org/2000/svg">
<g filter="url(#filter0_d_4109_4867)">
<rect x="3" width="45" height="45" rx="21.9216" fill="#30D48F"/>
</g>
<circle cx="25.8856" cy="22.8856" r="17.8856" fill="#30D48F" stroke="white" stroke-width="2"/>
<path fill-rule="evenodd" clip-rule="evenodd" d="M20.2222 25.8321C20.4774 25.8321 20.7275 25.9032 20.9445 26.0373C21.1616 26.1714 21.337 26.3633 21.4511 26.5915L22.0859 27.8607C22.1977 27.8149 22.3076 27.7654 22.4157 27.7123C22.5244 27.658 22.6503 27.6491 22.7655 27.6876C22.8808 27.7261 22.9761 27.8088 23.0304 27.9175C23.0847 28.0262 23.0936 28.1521 23.0551 28.2673C23.0166 28.3826 22.9339 28.4779 22.8252 28.5322C22.7151 28.5812 22.6044 28.6288 22.4931 28.6751L22.9333 29.5559C23.0288 29.7468 23.0785 29.9574 23.0785 30.171V31.3284C23.0785 31.5217 23.0377 31.7129 22.9588 31.8894C22.8798 32.0658 22.7645 32.2237 22.6205 32.3526V32.9315C22.6205 33.1137 22.5481 33.2885 22.4192 33.4173C22.2904 33.5462 22.1156 33.6185 21.9334 33.6185C21.7512 33.6185 21.5765 33.5462 21.4476 33.4173C21.3188 33.2885 21.2464 33.1137 21.2464 32.9315V32.7025H15.7501V32.9315C15.7501 33.1137 15.6777 33.2885 15.5488 33.4173C15.42 33.5462 15.2452 33.6185 15.063 33.6185C14.8808 33.6185 14.7061 33.5462 14.5772 33.4173C14.4484 33.2885 14.376 33.1137 14.376 32.9315V32.3526C14.0948 32.1006 13.918 31.7351 13.918 31.3284V30.1705C13.9181 29.9573 13.9678 29.747 14.0632 29.5563L14.4997 28.6824C14.3891 28.636 14.28 28.5861 14.1722 28.5326C14.064 28.4776 13.9818 28.3823 13.9432 28.2672C13.9047 28.1522 13.9129 28.0266 13.9661 27.9175C13.9929 27.8636 14.0301 27.8156 14.0756 27.7762C14.121 27.7367 14.1738 27.7066 14.2309 27.6875C14.288 27.6685 14.3482 27.6608 14.4083 27.6651C14.4683 27.6694 14.5269 27.6854 14.5807 27.7123C14.6891 27.7657 14.7991 27.8152 14.9105 27.8607L15.5453 26.592C15.6594 26.3637 15.8348 26.1717 16.0518 26.0375C16.2689 25.9033 16.519 25.8322 16.7742 25.8321H20.2222ZM16.4371 29.9543C16.2549 29.9543 16.0801 30.0267 15.9513 30.1556C15.8225 30.2844 15.7501 30.4592 15.7501 30.6414C15.7501 30.8236 15.8225 30.9983 15.9513 31.1272C16.0801 31.256 16.2549 31.3284 16.4371 31.3284C16.6193 31.3284 16.7941 31.256 16.9229 31.1272C17.0518 30.9983 17.1241 30.8236 17.1241 30.6414C17.1241 30.4592 17.0518 30.2844 16.9229 30.1556C16.7941 30.0267 16.6193 29.9543 16.4371 29.9543ZM20.5593 29.9543C20.3771 29.9543 20.2024 30.0267 20.0735 30.1556C19.9447 30.2844 19.8723 30.4592 19.8723 30.6414C19.8723 30.8236 19.9447 30.9983 20.0735 31.1272C20.2024 31.256 20.3771 31.3284 20.5593 31.3284C20.7416 31.3284 20.9163 31.256 21.0451 31.1272C21.174 30.9983 21.2464 30.8236 21.2464 30.6414C21.2464 30.4592 21.174 30.2844 21.0451 30.1556C20.9163 30.0267 20.7416 29.9543 20.5593 29.9543ZM20.2222 26.7482H16.7742C16.6988 26.7481 16.6246 26.7667 16.5581 26.8023C16.4917 26.8379 16.435 26.8893 16.3931 26.952L16.3647 27.0014L15.783 28.1639C16.4921 28.3764 17.4475 28.5803 18.4982 28.5803C19.4793 28.5803 20.3766 28.4025 21.0677 28.2061L21.2129 28.1639L20.6317 27.0014C20.598 26.934 20.5482 26.876 20.4867 26.8324C20.4251 26.7889 20.3538 26.7612 20.279 26.7518L20.2227 26.7482H20.2222Z" fill="white"/>
<path d="M25.6992 25H26.6992V41H25.6992V25Z" fill="white"/>
<rect x="9.36719" y="17.9552" width="1" height="18.4062" transform="rotate(-65.8539 9.36719 17.9552)" fill="white"/>
<rect width="1" height="18.2366" transform="matrix(-0.409065 -0.912505 -0.912505 0.409065 43.1367 18.0246)" fill="white"/>
<path d="M26.8692 9.91606C27.2043 9.91575 27.5279 10.0379 27.7792 10.2595C28.0306 10.4811 28.1922 10.7869 28.2339 11.1194C28.2755 11.4518 28.1943 11.7881 28.0054 12.0648C27.8165 12.3416 27.5329 12.5397 27.2081 12.6221L26.0874 15.1834H27.144C27.4731 15.1833 27.7943 15.2845 28.0639 15.4733C28.3335 15.6621 28.5385 15.9293 28.6509 16.2386L29.2537 17.8976L29.4671 18.0039C29.5478 18.0442 29.6198 18.1001 29.679 18.1683C29.7381 18.2365 29.7832 18.3156 29.8117 18.4012C29.8403 18.4868 29.8517 18.5772 29.8453 18.6673C29.8389 18.7573 29.8148 18.8452 29.7745 18.9259C29.7341 19.0066 29.6782 19.0786 29.6101 19.1377C29.5419 19.1968 29.4627 19.242 29.3771 19.2705C29.2915 19.299 29.2011 19.3104 29.1111 19.304C29.0211 19.2976 28.9332 19.2736 28.8525 19.2332L28.3944 19.0042C28.2371 18.9255 28.1159 18.7894 28.0559 18.624L27.3593 16.7086C27.3432 16.6644 27.3139 16.6263 27.2754 16.5993C27.2369 16.5723 27.191 16.5579 27.144 16.5579H26.0878C25.0971 16.5579 24.4321 15.5411 24.8292 14.6333L25.2153 13.7507L24.5791 13.4323L23.0539 14.1949C22.973 14.2361 22.8849 14.2608 22.7945 14.2677C22.7041 14.2746 22.6132 14.2635 22.5271 14.2351C22.441 14.2068 22.3613 14.1616 22.2927 14.1023C22.2242 14.043 22.168 13.9707 22.1275 13.8895C22.087 13.8084 22.063 13.7201 22.0568 13.6296C22.0506 13.5392 22.0623 13.4484 22.0914 13.3625C22.1205 13.2766 22.1662 13.1973 22.2261 13.1292C22.2859 13.0611 22.3587 13.0055 22.4401 12.9656L24.067 12.1521C24.226 12.0726 24.4013 12.0313 24.5791 12.0313C24.7568 12.0313 24.9322 12.0726 25.0912 12.1521L25.7663 12.4897L25.8757 12.2396C25.6898 12.0451 25.565 11.8002 25.517 11.5354C25.469 11.2705 25.4998 10.9974 25.6056 10.7499C25.7114 10.5025 25.8875 10.2915 26.1122 10.1433C26.3368 9.99503 26.6001 9.91602 26.8692 9.91606ZM21.9143 14.3869L22.6636 14.9145C22.5041 15.1426 22.3925 15.4007 22.3354 15.6732C22.2784 15.9456 22.2771 16.2268 22.3317 16.4998C22.3863 16.7728 22.4956 17.0318 22.6531 17.2614C22.8105 17.491 23.0129 17.6862 23.2479 17.8355C23.4829 17.9847 23.7456 18.0848 24.0204 18.1297C24.2951 18.1746 24.5761 18.1634 24.8463 18.0967C25.1166 18.03 25.3706 17.9093 25.5929 17.7418C25.8153 17.5744 26.0014 17.3636 26.14 17.1222L26.1867 17.0361L27.002 17.4529C26.818 17.8109 26.5633 18.1279 26.2533 18.3847C25.9433 18.6415 25.5844 18.8328 25.1984 18.9469C24.8123 19.0611 24.4071 19.0958 24.0073 19.0489C23.6075 19.002 23.2213 18.8745 22.8722 18.6741C22.523 18.4737 22.2182 18.2046 21.976 17.8831C21.7338 17.5615 21.5593 17.1942 21.4632 16.8032C21.367 16.4123 21.3511 16.006 21.4164 15.6088C21.4818 15.2115 21.627 14.8317 21.8433 14.4922L21.9143 14.3869Z" fill="white"/>
<g clip-path="url(#clip0_4109_4867)">
<path d="M30.2881 33.1927C29.6545 33.1927 29.1145 32.9693 28.6681 32.5226C28.2217 32.0759 27.9984 31.5359 27.998 30.9027C27.9977 30.2694 28.2211 29.7294 28.6681 29.2827C29.1151 28.836 29.6551 28.6126 30.2881 28.6126H35.601L34.685 27.6966H33.0361V26.7806H34.6735C34.7956 26.7806 34.9121 26.8035 35.023 26.8493C35.1338 26.8951 35.2311 26.96 35.3147 27.0439L36.9063 28.6355C37.5017 28.6813 37.9979 28.9218 38.3948 29.3569C38.7918 29.792 38.9902 30.3073 38.9902 30.9027C38.9902 31.5362 38.7669 32.0764 38.3202 32.5231C37.8735 32.9698 37.3335 33.193 36.7002 33.1927C36.0669 33.1924 35.5269 32.969 35.0802 32.5226C34.6335 32.0762 34.4102 31.5362 34.4102 30.9027C34.4102 30.7653 34.4198 30.6297 34.439 30.496C34.4582 30.3622 34.4944 30.2306 34.5476 30.1011L33.288 31.3607H32.5323C32.4255 31.895 32.1621 32.3339 31.7423 32.6774C31.3224 33.0209 30.8377 33.1927 30.2881 33.1927ZM36.7002 32.2767C37.0819 32.2767 37.4063 32.1431 37.6735 31.8759C37.9406 31.6088 38.0742 31.2843 38.0742 30.9027C38.0742 30.521 37.9406 30.1966 37.6735 29.9294C37.4063 29.6622 37.0819 29.5286 36.7002 29.5286C36.3185 29.5286 35.9941 29.6622 35.7269 29.9294C35.4598 30.1966 35.3262 30.521 35.3262 30.9027C35.3262 31.2843 35.4598 31.6088 35.7269 31.8759C35.9941 32.1431 36.3185 32.2767 36.7002 32.2767ZM30.2881 32.2767C30.5782 32.2767 30.8397 32.1927 31.0727 32.0248C31.3056 31.8568 31.4716 31.6355 31.5705 31.3607H30.2881V30.4447H31.5705C31.4713 30.1698 31.3053 29.9485 31.0727 29.7805C30.84 29.6126 30.5785 29.5286 30.2881 29.5286C29.9064 29.5286 29.582 29.6622 29.3148 29.9294C29.0476 30.1966 28.9141 30.521 28.9141 30.9027C28.9141 31.2843 29.0476 31.6088 29.3148 31.8759C29.582 32.1431 29.9064 32.2767 30.2881 32.2767Z" fill="white"/>
</g>
<path d="M25.6992 25H26.6992V41H25.6992V25Z" fill="white"/>
<rect x="9.36719" y="17.9552" width="1" height="18.4062" transform="rotate(-65.8539 9.36719 17.9552)" fill="white"/>
<rect width="1" height="18.2366" transform="matrix(-0.409065 -0.912505 -0.912505 0.409065 43.1367 18.0246)" fill="white"/>
<defs>
<filter id="filter0_d_4109_4867" x="0.630094" y="0" width="49.7398" height="49.7398" filterUnits="userSpaceOnUse" color-interpolation-filters="sRGB">
<feFlood flood-opacity="0" result="BackgroundImageFix"/>
<feColorMatrix in="SourceAlpha" type="matrix" values="0 0 0 0 0 0 0 0 0 0 0 0 0 0 0 0 0 0 127 0" result="hardAlpha"/>
<feOffset dy="2.36991"/>
<feGaussianBlur stdDeviation="1.18495"/>
<feComposite in2="hardAlpha" operator="out"/>
<feColorMatrix type="matrix" values="0 0 0 0 0 0 0 0 0 0 0 0 0 0 0 0 0 0 0.25 0"/>
<feBlend mode="normal" in2="BackgroundImageFix" result="effect1_dropShadow_4109_4867"/>
<feBlend mode="normal" in="SourceGraphic" in2="effect1_dropShadow_4109_4867" result="shape"/>
</filter>
<clipPath id="clip0_4109_4867">
<rect width="10.9922" height="10.9922" fill="white" transform="translate(28 25)"/>
</clipPath>
</defs>
</svg>
