<svg width="26" height="27" viewBox="0 0 26 27" fill="none" xmlns="http://www.w3.org/2000/svg">
<g id="streamline:chat-bubble-square-question-solid">
<path id="Vector" fill-rule="evenodd" clip-rule="evenodd" d="M5.05666 4.12857C5.45815 3.72659 6.00285 3.5005 6.57099 3.5L20.8571 3.5C21.4254 3.5 21.9705 3.72576 22.3724 4.12763C22.7742 4.52949 23 5.07453 23 5.64285V19.9286C23 20.4969 22.7742 21.0419 22.3724 21.4438C21.9705 21.8456 21.4254 22.0714 20.8571 22.0714H9.51678L3.88806 23.4785C3.76388 23.5097 3.6336 23.5069 3.51087 23.4704C3.38814 23.434 3.27747 23.3652 3.19043 23.2713C3.1034 23.1774 3.0432 23.0618 3.01614 22.9367C2.98908 22.8116 2.99615 22.6814 3.03661 22.56L4.42808 18.3843V5.64285C4.42808 5.07428 4.6538 4.52857 5.05666 4.12857ZM13.1883 8.68571C13.3849 8.60346 13.5974 8.56594 13.8103 8.57584C14.0232 8.58575 14.2313 8.64284 14.4194 8.743C14.6076 8.84315 14.7711 8.98385 14.8982 9.15494C15.0253 9.32603 15.1129 9.52323 15.1544 9.73227C15.196 9.94132 15.1906 10.157 15.1386 10.3637C15.0866 10.5704 14.9894 10.763 14.8539 10.9275C14.7183 11.092 14.548 11.2243 14.355 11.315C14.1621 11.4056 13.9515 11.4522 13.7383 11.4514C13.5015 11.4514 13.2744 11.5455 13.107 11.7129C12.9395 11.8804 12.8454 12.1075 12.8454 12.3443V13.9C12.8454 14.1368 12.9395 14.3639 13.107 14.5313C13.2744 14.6988 13.5015 14.7928 13.7383 14.7928C13.9751 14.7928 14.2022 14.6988 14.3697 14.5313C14.5371 14.3639 14.6312 14.1368 14.6312 13.9V13.1128C15.2066 12.9469 15.7245 12.624 16.1266 12.1802C16.5287 11.7364 16.7993 11.1894 16.9079 10.6004C17.0164 10.0115 16.9588 9.40396 16.7413 8.84597C16.5239 8.28797 16.1553 7.8016 15.6768 7.4414C15.1984 7.0812 14.629 6.86144 14.0326 6.80675C13.4363 6.75206 12.8364 6.86462 12.3005 7.1318C11.7645 7.39897 11.3135 7.8102 10.9982 8.31934C10.6829 8.82849 10.5157 9.41541 10.5154 10.0143C10.5154 10.2511 10.6095 10.4782 10.7769 10.6456C10.9443 10.8131 11.1715 10.9071 11.4083 10.9071C11.6451 10.9071 11.8722 10.8131 12.0396 10.6456C12.2071 10.4782 12.3011 10.2511 12.3011 10.0143C12.3017 9.73007 12.3862 9.45237 12.5441 9.21601C12.7019 8.97965 12.926 8.79517 13.1883 8.68571ZM13.7383 18.6771C13.3986 18.6767 13.0729 18.5415 12.8329 18.301C12.5928 18.0606 12.4581 17.7347 12.4583 17.395C12.4585 17.0553 12.5936 16.7295 12.8339 16.4893C13.0742 16.2492 13.4 16.1143 13.7398 16.1143C14.0795 16.1143 14.4053 16.2492 14.6456 16.4893C14.8859 16.7295 15.021 17.0553 15.0212 17.395C15.0214 17.7347 14.8867 18.0606 14.6466 18.301C14.4066 18.5415 14.0809 18.6767 13.7412 18.6771H13.7383Z" fill="#0078FF"/>
</g>
</svg>
