<svg width="28" height="29" viewBox="0 0 28 29" fill="none" xmlns="http://www.w3.org/2000/svg">
<g id="material-symbols:privacy-tip">
<path id="Vector" d="M12.8327 20.3333H15.166V13.3333H12.8327V20.3333ZM13.9993 11C14.3299 11 14.6072 10.888 14.8312 10.664C15.0552 10.44 15.1668 10.1631 15.166 9.83333C15.1652 9.50355 15.0532 9.22666 14.83 9.00266C14.6068 8.77866 14.3299 8.66666 13.9993 8.66666C13.6688 8.66666 13.3919 8.77866 13.1687 9.00266C12.9455 9.22666 12.8335 9.50355 12.8327 9.83333C12.8319 10.1631 12.9439 10.4404 13.1687 10.6652C13.3935 10.8899 13.6703 11.0016 13.9993 11ZM13.9993 26.1667C11.2966 25.4861 9.06513 23.9352 7.30502 21.514C5.54491 19.0928 4.66524 16.4048 4.66602 13.45V6.33333L13.9993 2.83333L23.3327 6.33333V13.45C23.3327 16.4056 22.453 19.0939 20.6937 21.5152C18.9343 23.9364 16.7029 25.4869 13.9993 26.1667Z" fill="#0078FF"/>
</g>
</svg>
