<svg width="28" height="29" viewBox="0 0 28 29" fill="none" xmlns="http://www.w3.org/2000/svg">
<g id="ri:contract-fill">
<path id="Vector" d="M16.8396 3.5H4.98766C4.72572 3.5 4.4745 3.60907 4.28928 3.80322C4.10406 3.99737 4 4.2607 4 4.53527V23.1701C4 23.4447 4.10406 23.708 4.28928 23.9021C4.4745 24.0963 4.72572 24.2054 4.98766 24.2054H13.1408C12.269 22.8942 11.8351 21.3177 11.9068 19.7212C11.9784 18.1248 12.5515 16.5979 13.5369 15.3783C14.5223 14.1587 15.8647 13.3147 17.3551 12.9778C18.8456 12.6408 20.4005 12.8297 21.7779 13.5152V8.67634L16.8396 3.5ZM14.6529 17.297C14.6914 16.5444 15.2455 15.9315 15.9606 15.8518L16.8198 15.7565C16.9222 15.7449 17.0186 15.7 17.0954 15.6282L17.7384 15.0225C17.9971 14.7781 18.3307 14.6386 18.6789 14.6291C19.0271 14.6196 19.3671 14.7408 19.6376 14.9708L20.3112 15.5402C20.3902 15.6075 20.489 15.6468 20.5917 15.653L21.4549 15.7017C22.173 15.742 22.7576 16.3228 22.8337 17.0724L22.9246 17.9731C22.9357 18.0804 22.9785 18.1814 23.047 18.2619L23.6248 18.9359C24.1058 19.497 24.1265 20.3407 23.6742 20.9267L23.131 21.6327C23.0668 21.7166 23.0292 21.8194 23.0233 21.9267L22.9769 22.8316C22.959 23.1963 22.8174 23.5423 22.5777 23.8073C22.3379 24.0723 22.0158 24.2388 21.6692 24.2768L20.81 24.372C20.7076 24.3837 20.6113 24.4286 20.5344 24.5004L19.8915 25.1061C19.6327 25.3505 19.2992 25.49 18.9509 25.4995C18.6027 25.509 18.2627 25.3878 17.9922 25.1578L17.3186 24.5884C17.2386 24.5212 17.1405 24.4817 17.0381 24.4756L16.1749 24.4269C15.8269 24.4082 15.4968 24.2598 15.244 24.0085C14.9912 23.7571 14.8324 23.4194 14.7961 23.0562L14.7053 22.1555C14.6942 22.0482 14.6513 21.9472 14.5828 21.8667L14.005 21.1927C13.7718 20.9215 13.6387 20.5719 13.6297 20.2069C13.6206 19.8419 13.7362 19.4855 13.9556 19.2019L14.4988 18.4959C14.563 18.412 14.6006 18.3092 14.6065 18.2018L14.6529 17.297ZM21.8075 19.0601L20.7606 17.9627L18.3211 20.5198L16.8692 18.998L15.8223 20.0954L17.7976 22.1659L18.3211 22.7146L18.8445 22.1659L21.8075 19.0601Z" fill="#0078FF"/>
</g>
</svg>
