<svg width="28" height="29" viewBox="0 0 28 29" fill="none" xmlns="http://www.w3.org/2000/svg">
<g id="solar:settings-bold">
<path id="Vector" fill-rule="evenodd" clip-rule="evenodd" d="M16.6592 3.01066C16.2275 2.83333 15.6792 2.83333 14.5837 2.83333C13.4882 2.83333 12.941 2.83333 12.5082 3.01066C12.2234 3.12703 11.9644 3.29857 11.7462 3.51542C11.5279 3.73226 11.3547 3.99012 11.2365 4.27416C11.1269 4.53433 11.0849 4.83883 11.0674 5.281C11.059 5.60125 10.9694 5.91412 10.807 6.19024C10.6446 6.46636 10.4146 6.69666 10.1387 6.8595C9.85724 7.01595 9.54084 7.09883 9.21881 7.10046C8.89679 7.10209 8.57957 7.02242 8.29654 6.86883C7.9022 6.66116 7.61637 6.54683 7.33403 6.5095C6.71638 6.42891 6.09185 6.59489 5.5957 6.9715C5.2247 7.25383 4.95053 7.72516 4.40337 8.66666C3.85503 9.60816 3.58203 10.0783 3.5202 10.5392C3.43853 11.1528 3.60653 11.7735 3.98687 12.2647C4.15953 12.4887 4.40337 12.6765 4.7802 12.9122C5.3367 13.2587 5.6937 13.849 5.6937 14.5C5.6937 15.151 5.3367 15.7413 4.78137 16.0867C4.40337 16.3235 4.15953 16.5113 3.9857 16.7353C3.79853 16.9782 3.66108 17.2557 3.5812 17.5517C3.50133 17.8478 3.4806 18.1567 3.5202 18.4608C3.58203 18.9205 3.85503 19.3918 4.40337 20.3333C4.9517 21.2748 5.2247 21.745 5.5957 22.0285C6.09037 22.4053 6.7157 22.571 7.33403 22.4905C7.61637 22.4532 7.9022 22.3388 8.29654 22.1312C8.57971 21.9774 8.89715 21.8976 9.2194 21.8992C9.54165 21.9008 9.85826 21.9838 10.1399 22.1405C10.7069 22.4672 11.0429 23.068 11.0674 23.719C11.0849 24.1623 11.1269 24.4657 11.2365 24.7258C11.4745 25.2975 11.9319 25.7525 12.5082 25.9893C12.9399 26.1667 13.4882 26.1667 14.5837 26.1667C15.6792 26.1667 16.2275 26.1667 16.6592 25.9893C16.944 25.873 17.203 25.7014 17.4212 25.4846C17.6395 25.2677 17.8127 25.0099 17.9309 24.7258C18.0405 24.4657 18.0825 24.1623 18.1 23.719C18.1234 23.068 18.4605 22.466 19.0287 22.1405C19.3102 21.984 19.6266 21.9012 19.9486 21.8995C20.2706 21.8979 20.5878 21.9776 20.8709 22.1312C21.2652 22.3388 21.551 22.4532 21.8334 22.4905C22.4517 22.5722 23.077 22.4053 23.5717 22.0285C23.9427 21.7462 24.2169 21.2748 24.764 20.3333C25.3124 19.3918 25.5854 18.9217 25.6472 18.4608C25.6866 18.1567 25.6657 17.8477 25.5856 17.5516C25.5056 17.2555 25.3679 16.9782 25.1805 16.7353C25.0079 16.5113 24.764 16.3235 24.3872 16.0878C23.8307 15.7413 23.4737 15.151 23.4737 14.5C23.4737 13.849 23.8307 13.2587 24.386 12.9133C24.764 12.6765 25.0079 12.4887 25.1817 12.2647C25.3689 12.0217 25.5063 11.7443 25.5862 11.4482C25.6661 11.1522 25.6868 10.8433 25.6472 10.5392C25.5854 10.0795 25.3124 9.60816 24.764 8.66666C24.2157 7.72516 23.9427 7.255 23.5717 6.9715C23.0756 6.59489 22.451 6.42891 21.8334 6.5095C21.551 6.54683 21.2652 6.66116 20.8709 6.86883C20.5877 7.02263 20.2702 7.10242 19.948 7.10078C19.6258 7.09915 19.3091 7.01616 19.0275 6.8595C18.7519 6.69651 18.5221 6.46616 18.3599 6.19005C18.1977 5.91394 18.1082 5.60113 18.1 5.281C18.0825 4.83766 18.0405 4.53433 17.9309 4.27416C17.8127 3.99012 17.6395 3.73226 17.4212 3.51542C17.203 3.29857 16.944 3.12703 16.6592 3.01066ZM14.5837 18C16.532 18 18.1105 16.4332 18.1105 14.5C18.1105 12.5668 16.5309 11 14.5837 11C12.6365 11 11.0569 12.5668 11.0569 14.5C11.0569 16.4332 12.6365 18 14.5837 18Z" fill="#0078FF"/>
</g>
</svg>
