<svg width="24" height="20" viewBox="0 0 24 20" fill="none" xmlns="http://www.w3.org/2000/svg">
<path fill-rule="evenodd" clip-rule="evenodd" d="M16.3998 0.166382C17.0497 0.166404 17.6867 0.347371 18.2396 0.689012C18.7924 1.03065 19.2392 1.51947 19.53 2.10071L21.147 5.33355C21.4316 5.21688 21.7116 5.09088 21.987 4.95555C22.2639 4.81724 22.5844 4.7946 22.878 4.89262C23.1717 4.99064 23.4143 5.20128 23.5526 5.47821C23.6909 5.75515 23.7136 6.07568 23.6156 6.3693C23.5175 6.66291 23.3069 6.90557 23.03 7.04388C22.7495 7.16869 22.4676 7.29003 22.1841 7.40788L23.3053 9.65138C23.5486 10.1378 23.6753 10.6743 23.6751 11.2182V14.1664C23.6751 14.6588 23.5712 15.1457 23.3702 15.5952C23.1691 16.0447 22.8755 16.4468 22.5085 16.775V18.2497C22.5085 18.7138 22.3241 19.159 21.9959 19.4871C21.6677 19.8153 21.2226 19.9997 20.7585 19.9997C20.2943 19.9997 19.8492 19.8153 19.521 19.4871C19.1928 19.159 19.0085 18.7138 19.0085 18.2497V17.6664H5.00846V18.2497C5.00846 18.7138 4.82409 19.159 4.4959 19.4871C4.16771 19.8153 3.72259 19.9997 3.25846 19.9997C2.79433 19.9997 2.34922 19.8153 2.02103 19.4871C1.69284 19.159 1.50846 18.7138 1.50846 18.2497V16.775C0.79213 16.1334 0.341797 15.2024 0.341797 14.1664V11.217C0.342015 10.6739 0.468632 10.1383 0.71163 9.65255L1.82346 7.42655C1.54191 7.30832 1.26385 7.18116 0.989297 7.04505C0.713767 6.90494 0.504325 6.66217 0.406118 6.36908C0.307912 6.07599 0.328806 5.75604 0.464297 5.47821C0.532732 5.34105 0.627528 5.21871 0.743266 5.1182C0.859004 5.01769 0.993416 4.94097 1.13882 4.89243C1.28422 4.84389 1.43776 4.82448 1.59067 4.83531C1.74358 4.84614 1.89285 4.887 2.02996 4.95555C2.30607 5.09166 2.58607 5.21766 2.86996 5.33355L4.48696 2.10188C4.77752 1.52042 5.22426 1.03136 5.77712 0.689508C6.32998 0.347654 6.96712 0.166512 7.61713 0.166382H16.3998ZM6.75846 10.6664C6.29433 10.6664 5.84922 10.8508 5.52103 11.1789C5.19284 11.5071 5.00846 11.9523 5.00846 12.4164C5.00846 12.8805 5.19284 13.3256 5.52103 13.6538C5.84922 13.982 6.29433 14.1664 6.75846 14.1664C7.22259 14.1664 7.66771 13.982 7.9959 13.6538C8.32409 13.3256 8.50846 12.8805 8.50846 12.4164C8.50846 11.9523 8.32409 11.5071 7.9959 11.1789C7.66771 10.8508 7.22259 10.6664 6.75846 10.6664ZM17.2585 10.6664C16.7943 10.6664 16.3492 10.8508 16.021 11.1789C15.6928 11.5071 15.5085 11.9523 15.5085 12.4164C15.5085 12.8805 15.6928 13.3256 16.021 13.6538C16.3492 13.982 16.7943 14.1664 17.2585 14.1664C17.7226 14.1664 18.1677 13.982 18.4959 13.6538C18.8241 13.3256 19.0085 12.8805 19.0085 12.4164C19.0085 11.9523 18.8241 11.5071 18.4959 11.1789C18.1677 10.8508 17.7226 10.6664 17.2585 10.6664ZM16.3998 2.49971H7.61713C7.42511 2.49969 7.23604 2.54706 7.06672 2.63762C6.89739 2.72819 6.75304 2.85915 6.64646 3.01888L6.57413 3.14488L5.09246 6.10588C6.89846 6.64721 9.33213 7.16638 12.0085 7.16638C14.5075 7.16638 16.793 6.71371 18.5535 6.21321L18.9233 6.10588L17.4428 3.14488C17.3569 2.97317 17.23 2.82529 17.0733 2.71438C16.9166 2.60346 16.735 2.53293 16.5445 2.50905L16.401 2.49971H16.3998Z" fill="#0078FF"/>
</svg>
