<svg width="23" height="17" viewBox="0 0 23 17" fill="none" xmlns="http://www.w3.org/2000/svg">
<g id="Group">
<path id="Vector" d="M2.29102 0C1.72743 0 1.18693 0.223883 0.788414 0.622398C0.389899 1.02091 0.166016 1.56141 0.166016 2.125L0.166016 4.95833H8.66602C8.85388 4.95833 9.03404 5.03296 9.16688 5.1658C9.29972 5.29864 9.37435 5.4788 9.37435 5.66667C9.37435 6.02508 9.48768 6.579 9.80785 7.02383C10.1011 7.43183 10.5969 7.79167 11.4993 7.79167C12.4018 7.79167 12.8976 7.43183 13.1908 7.02383C13.511 6.579 13.6243 6.02508 13.6243 5.66667C13.6243 5.4788 13.699 5.29864 13.8318 5.1658C13.9647 5.03296 14.1448 4.95833 14.3327 4.95833H22.8327V2.125C22.8327 1.56141 22.6088 1.02091 22.2103 0.622398C21.8118 0.223883 21.2713 0 20.7077 0H2.29102Z" fill="#0078FF"/>
<path id="Vector_2" d="M22.8327 6.375H14.9688C14.8663 6.90588 14.6524 7.409 14.3412 7.85117C13.7844 8.62467 12.8636 9.20833 11.4993 9.20833C10.1351 9.20833 9.21426 8.62467 8.65752 7.85117C8.34634 7.409 8.13244 6.90588 8.02993 6.375H0.166016V14.875C0.166016 15.4386 0.389899 15.9791 0.788414 16.3776C1.18693 16.7761 1.72743 17 2.29102 17H20.7077C21.2713 17 21.8118 16.7761 22.2103 16.3776C22.6088 15.9791 22.8327 15.4386 22.8327 14.875V6.375Z" fill="#0078FF"/>
</g>
</svg>
