<svg width="34" height="34" viewBox="0 0 34 34" fill="none" xmlns="http://www.w3.org/2000/svg">
<g id="Edit Picture Icon">
<g id="Group 83">
<circle id="Ellipse 448" cx="17" cy="17" r="17" fill="white"/>
<path id="Vector" d="M17.0026 2.83331C9.16844 2.83331 2.83594 9.16581 2.83594 17C2.83594 24.8341 9.16844 31.1666 17.0026 31.1666C24.8368 31.1666 31.1693 24.8341 31.1693 17C31.1693 9.16581 24.8368 2.83331 17.0026 2.83331ZM21.3943 10.0158C21.5926 10.0158 21.7909 10.0866 21.9609 10.2425L23.7601 12.0416C24.0859 12.3533 24.0859 12.8491 23.7601 13.1466L22.3434 14.5633L19.4393 11.6591L20.8559 10.2425C20.9976 10.0866 21.1959 10.0158 21.3943 10.0158ZM18.6034 12.4808L21.5218 15.3991L12.9368 23.9841H10.0184V21.0658L18.6034 12.4808Z" fill="#1483FF"/>
</g>
</g>
</svg>
