<svg width="52" height="53" viewBox="0 0 52 53" fill="none" xmlns="http://www.w3.org/2000/svg">
<rect x="22.0234" width="29.5719" height="29.5719" rx="14.4056" fill="white"/>
<circle cx="36.8074" cy="14.7871" r="11.7536" fill="#F4AD22" stroke="#F4AD22" stroke-width="1.31428"/>
<g clip-path="url(#clip0_6237_8396)">
<path d="M33.1183 19.5602C32.2815 19.5602 31.5683 19.2652 30.9787 18.6752C30.3891 18.0852 30.0942 17.3721 30.0938 16.5357C30.0933 15.6993 30.3883 14.9861 30.9787 14.3961C31.5691 13.8062 32.2823 13.5112 33.1183 13.5112H40.1351L38.9253 12.3014H36.7477V11.0916H38.9102C39.0715 11.0916 39.2254 11.1218 39.3717 11.1823C39.5181 11.2428 39.6466 11.3285 39.7571 11.4394L41.8591 13.5414C42.6455 13.6019 43.3008 13.9195 43.825 14.4941C44.3493 15.0688 44.6114 15.7493 44.6114 16.5357C44.6114 17.3725 44.3164 18.0858 43.7264 18.6758C43.1365 19.2658 42.4233 19.5606 41.5869 19.5602C40.7505 19.5598 40.0373 19.2648 39.4474 18.6752C38.8574 18.0856 38.5624 17.3725 38.5624 16.5357C38.5624 16.3542 38.5751 16.1752 38.6005 15.9985C38.6259 15.8219 38.6737 15.6481 38.7439 15.4771L37.0804 17.1406H36.0823C35.9411 17.8463 35.5933 18.426 35.0388 18.8797C34.4843 19.3334 33.8441 19.5602 33.1183 19.5602ZM41.5869 18.3504C42.091 18.3504 42.5195 18.174 42.8723 17.8211C43.2252 17.4682 43.4016 17.0398 43.4016 16.5357C43.4016 16.0316 43.2252 15.6031 42.8723 15.2503C42.5195 14.8974 42.091 14.721 41.5869 14.721C41.0828 14.721 40.6543 14.8974 40.3015 15.2503C39.9486 15.6031 39.7722 16.0316 39.7722 16.5357C39.7722 17.0398 39.9486 17.4682 40.3015 17.8211C40.6543 18.174 41.0828 18.3504 41.5869 18.3504ZM33.1183 18.3504C33.5014 18.3504 33.8468 18.2395 34.1545 18.0177C34.4622 17.7959 34.6813 17.5035 34.812 17.1406H33.1183V15.9308H34.812C34.6809 15.5678 34.4618 15.2755 34.1545 15.0537C33.8472 14.8319 33.5018 14.721 33.1183 14.721C32.6142 14.721 32.1857 14.8974 31.8328 15.2503C31.48 15.6031 31.3036 16.0316 31.3036 16.5357C31.3036 17.0398 31.48 17.4682 31.8328 17.8211C32.1857 18.174 32.6142 18.3504 33.1183 18.3504Z" fill="white"/>
</g>
<rect x="22.0234" y="23.3202" width="29.68" height="29.68" rx="14.4585" fill="white"/>
<circle cx="36.8635" cy="38.1594" r="11.7965" fill="#8732BB" stroke="#8732BB" stroke-width="1.31911"/>
<g clip-path="url(#clip1_6237_8396)">
<path d="M43.5145 39.4508C43.2308 39.1614 42.7883 39.1803 42.4902 39.4508L40.2683 41.45C39.9955 41.6961 39.6561 41.8298 39.3064 41.8287H36.4625C36.3604 41.8287 36.2626 41.7831 36.1904 41.7019C36.1183 41.6207 36.0777 41.5107 36.0777 41.3959C36.0777 41.2811 36.1183 41.171 36.1904 41.0898C36.2626 41.0086 36.3604 40.963 36.4625 40.963H38.3451C38.7274 40.963 39.0835 40.6682 39.1446 40.2434C39.1521 40.1947 39.1558 40.1452 39.1557 40.0957C39.1553 39.8664 39.074 39.6467 38.9298 39.4847C38.7855 39.3227 38.59 39.2317 38.3862 39.2317H34.5388C33.8899 39.2319 33.2608 39.483 32.7569 39.9429L31.6388 40.963H30.3066C30.2046 40.963 30.1067 41.0086 30.0346 41.0898C29.9624 41.171 29.9219 41.2811 29.9219 41.3959V43.9929C29.9219 44.1077 29.9624 44.2177 30.0346 44.2989C30.1067 44.3801 30.2046 44.4257 30.3066 44.4257H38.8856C39.2352 44.426 39.5744 44.2924 39.8475 44.047L43.484 40.7737C43.5715 40.6949 43.6426 40.5957 43.6925 40.4828C43.7423 40.37 43.7696 40.2463 43.7726 40.1203C43.7755 39.9943 43.754 39.8691 43.7094 39.7535C43.6649 39.6379 43.5982 39.5346 43.5145 39.4508Z" fill="white"/>
<g clip-path="url(#clip2_6237_8396)">
<path d="M39.7215 31.0505C40.0756 31.0505 40.4148 31.2096 40.6649 31.4924L41.9042 32.8933C42.028 33.0333 42.1263 33.1995 42.1933 33.3824C42.2604 33.5654 42.2949 33.7615 42.2949 33.9595C42.2949 34.1575 42.2604 34.3536 42.1933 34.5365C42.1263 34.7195 42.028 34.8857 41.9042 35.0257L40.9948 36.0536C40.7743 36.3028 40.4835 36.4567 40.173 36.4888C39.8625 36.521 39.5518 36.4292 39.2949 36.2294L39.2588 36.1991L37.2351 38.4871C37.0785 38.6636 36.8759 38.7785 36.6571 38.815L36.5814 38.8255L36.5054 38.829H36.1022C35.7533 38.829 35.4598 38.5338 35.4172 38.12L35.4141 38.0511V37.5953C35.4141 37.3215 35.4994 37.0563 35.6652 36.833L35.7165 36.7704L35.8589 36.6094C35.9234 36.5365 36.0109 36.4955 36.1022 36.4955H36.4462V36.1065C36.4462 36.0113 36.4772 35.9193 36.5331 35.8481C36.5891 35.777 36.6663 35.7315 36.75 35.7203L36.7903 35.7176H37.1343V35.3287C37.1343 35.2432 37.1592 35.1601 37.2052 35.0922L37.2351 35.0533L37.7402 34.482L37.714 34.4419C37.5767 34.216 37.496 33.9521 37.4808 33.6785L37.4783 33.5867C37.4783 33.1865 37.6191 32.803 37.8692 32.5203L38.7785 31.4924C39.0286 31.2097 39.3678 31.0508 39.7215 31.0505ZM39.8918 32.9952H39.885C39.7025 32.9952 39.5274 33.0771 39.3984 33.223C39.2694 33.3689 39.1969 33.5667 39.1969 33.773C39.1969 33.9793 39.2694 34.1771 39.3984 34.323C39.5274 34.4689 39.7025 34.5508 39.885 34.5508H39.8918C40.0743 34.5508 40.2493 34.4689 40.3784 34.323C40.5074 34.1771 40.5799 33.9793 40.5799 33.773C40.5799 33.5667 40.5074 33.3689 40.3784 33.223C40.2493 33.0771 40.0743 32.9952 39.8918 32.9952Z" fill="white"/>
</g>
</g>
<rect x="0.109375" width="29.5713" height="29.5713" rx="14.4056" fill="white"/>
<circle cx="14.8931" cy="14.7867" r="11.7533" fill="#195CA7" stroke="#195CA7" stroke-width="1.31428"/>
<path fill-rule="evenodd" clip-rule="evenodd" d="M17.1919 9.87927C17.5336 9.87928 17.8685 9.97442 18.1591 10.154C18.4498 10.3336 18.6847 10.5906 18.8375 10.8962L19.6876 12.5957C19.8372 12.5344 19.9844 12.4682 20.1292 12.397C20.2748 12.3243 20.4433 12.3124 20.5976 12.3639C20.752 12.4155 20.8796 12.5262 20.9523 12.6718C21.025 12.8174 21.0369 12.9859 20.9853 13.1402C20.9338 13.2946 20.8231 13.4222 20.6775 13.4949C20.5301 13.5605 20.3818 13.6243 20.2328 13.6862L20.8222 14.8657C20.9502 15.1214 21.0167 15.4034 21.0167 15.6894V17.2393C21.0167 17.4981 20.962 17.7541 20.8563 17.9904C20.7507 18.2267 20.5963 18.4381 20.4033 18.6107V19.3859C20.4033 19.6299 20.3064 19.8639 20.1339 20.0365C19.9613 20.209 19.7273 20.3059 19.4833 20.3059C19.2393 20.3059 19.0053 20.209 18.8328 20.0365C18.6603 19.8639 18.5633 19.6299 18.5633 19.3859V19.0793H11.2033V19.3859C11.2033 19.6299 11.1064 19.8639 10.9339 20.0365C10.7613 20.209 10.5273 20.3059 10.2833 20.3059C10.0393 20.3059 9.80533 20.209 9.6328 20.0365C9.46026 19.8639 9.36333 19.6299 9.36333 19.3859V18.6107C8.98675 18.2734 8.75 17.7839 8.75 17.2393V15.6888C8.75011 15.4032 8.81668 15.1216 8.94443 14.8663L9.52893 13.696C9.38092 13.6339 9.23474 13.567 9.0904 13.4955C8.94555 13.4218 8.83544 13.2942 8.78381 13.1401C8.73219 12.986 8.74317 12.8178 8.8144 12.6718C8.85038 12.5997 8.90021 12.5354 8.96106 12.4825C9.0219 12.4297 9.09257 12.3893 9.16901 12.3638C9.24545 12.3383 9.32617 12.3281 9.40655 12.3338C9.48694 12.3395 9.56541 12.361 9.63749 12.397C9.78265 12.4686 9.92985 12.5348 10.0791 12.5957L10.9292 10.8968C11.0819 10.5911 11.3168 10.334 11.6074 10.1543C11.8981 9.97457 12.233 9.87934 12.5747 9.87927H17.1919ZM12.1233 15.3993C11.8793 15.3993 11.6453 15.4962 11.4728 15.6687C11.3003 15.8413 11.2033 16.0753 11.2033 16.3193C11.2033 16.5633 11.3003 16.7973 11.4728 16.9698C11.6453 17.1423 11.8793 17.2393 12.1233 17.2393C12.3673 17.2393 12.6013 17.1423 12.7739 16.9698C12.9464 16.7973 13.0433 16.5633 13.0433 16.3193C13.0433 16.0753 12.9464 15.8413 12.7739 15.6687C12.6013 15.4962 12.3673 15.3993 12.1233 15.3993ZM17.6433 15.3993C17.3993 15.3993 17.1653 15.4962 16.9928 15.6687C16.8203 15.8413 16.7233 16.0753 16.7233 16.3193C16.7233 16.5633 16.8203 16.7973 16.9928 16.9698C17.1653 17.1423 17.3993 17.2393 17.6433 17.2393C17.8873 17.2393 18.1213 17.1423 18.2939 16.9698C18.4664 16.7973 18.5633 16.5633 18.5633 16.3193C18.5633 16.0753 18.4664 15.8413 18.2939 15.6687C18.1213 15.4962 17.8873 15.3993 17.6433 15.3993ZM17.1919 11.1059H12.5747C12.4738 11.1059 12.3744 11.1308 12.2854 11.1784C12.1964 11.226 12.1205 11.2949 12.0645 11.3789L12.0264 11.4451L11.2475 13.0018C12.1969 13.2863 13.4763 13.5593 14.8833 13.5593C16.1971 13.5593 17.3986 13.3213 18.3241 13.0582L18.5186 13.0018L17.7402 11.4451C17.6951 11.3548 17.6284 11.2771 17.546 11.2188C17.4636 11.1605 17.3681 11.1234 17.268 11.1108L17.1925 11.1059H17.1919Z" fill="white"/>
<rect x="0.109375" y="23.3202" width="29.68" height="29.68" rx="14.8028" fill="white"/>
<circle cx="14.949" cy="38.1602" r="12.0774" fill="#4CD9CC" stroke="#4CD9CC" stroke-width="1.35052"/>
<path d="M14.2656 39.8069H15.5809V50.9869H14.2656V39.8069Z" fill="white"/>
<path d="M3.89844 30.3425L4.82849 29.4125L15.3867 39.9707L14.4567 40.9008L3.89844 30.3425Z" fill="white"/>
<path d="M25.6172 30.4387L24.6871 29.5087L14.2257 39.9701L15.1558 40.9002L25.6172 30.4387Z" fill="white"/>
<path fill-rule="evenodd" clip-rule="evenodd" d="M10.5736 39.8799C10.7672 39.8799 10.957 39.9338 11.1218 40.0356C11.2865 40.1374 11.4196 40.283 11.5062 40.4562L11.988 41.4195C12.0728 41.3847 12.1563 41.3472 12.2383 41.3068C12.3208 41.2656 12.4163 41.2589 12.5038 41.2881C12.5913 41.3173 12.6636 41.38 12.7048 41.4626C12.746 41.5451 12.7528 41.6406 12.7236 41.7281C12.6943 41.8155 12.6316 41.8878 12.5491 41.9291C12.4655 41.9662 12.3815 42.0024 12.2971 42.0375L12.6311 42.706C12.7036 42.8509 12.7413 43.0108 12.7413 43.1728V44.0512C12.7413 44.1979 12.7103 44.343 12.6504 44.477C12.5905 44.6109 12.5031 44.7307 12.3937 44.8285V45.2679C12.3937 45.4062 12.3388 45.5388 12.241 45.6366C12.1432 45.7344 12.0106 45.7893 11.8723 45.7893C11.734 45.7893 11.6014 45.7344 11.5036 45.6366C11.4058 45.5388 11.3509 45.4062 11.3509 45.2679V45.0941H7.17951V45.2679C7.17951 45.4062 7.12458 45.5388 7.02679 45.6366C6.92901 45.7344 6.79638 45.7893 6.65809 45.7893C6.5198 45.7893 6.38718 45.7344 6.28939 45.6366C6.19161 45.5388 6.13667 45.4062 6.13667 45.2679V44.8285C5.92324 44.6373 5.78906 44.3599 5.78906 44.0512V43.1725C5.78913 43.0106 5.82685 42.851 5.89926 42.7063L6.23053 42.0431C6.14664 42.0078 6.06379 41.97 5.98199 41.9294C5.89989 41.8877 5.83749 41.8153 5.80823 41.728C5.77897 41.6407 5.78519 41.5453 5.82556 41.4626C5.84595 41.4217 5.8742 41.3852 5.90868 41.3553C5.94317 41.3253 5.98321 41.3025 6.02654 41.288C6.06986 41.2736 6.11561 41.2678 6.16117 41.271C6.20673 41.2742 6.25121 41.2864 6.29206 41.3068C6.37433 41.3474 6.45775 41.3849 6.54234 41.4195L7.02413 40.4566C7.1107 40.2833 7.24381 40.1376 7.40853 40.0358C7.57326 39.9339 7.7631 39.8799 7.95677 39.8799H10.5736ZM7.70093 43.0084C7.56264 43.0084 7.43002 43.0633 7.33223 43.1611C7.23445 43.2589 7.17951 43.3915 7.17951 43.5298C7.17951 43.6681 7.23445 43.8007 7.33223 43.8985C7.43002 43.9963 7.56264 44.0512 7.70093 44.0512C7.83922 44.0512 7.97184 43.9963 8.06963 43.8985C8.16741 43.8007 8.22235 43.6681 8.22235 43.5298C8.22235 43.3915 8.16741 43.2589 8.06963 43.1611C7.97184 43.0633 7.83922 43.0084 7.70093 43.0084ZM10.8294 43.0084C10.6911 43.0084 10.5585 43.0633 10.4607 43.1611C10.363 43.2589 10.308 43.3915 10.308 43.5298C10.308 43.6681 10.363 43.8007 10.4607 43.8985C10.5585 43.9963 10.6911 44.0512 10.8294 44.0512C10.9677 44.0512 11.1004 43.9963 11.1981 43.8985C11.2959 43.8007 11.3509 43.6681 11.3509 43.5298C11.3509 43.3915 11.2959 43.2589 11.1981 43.1611C11.1004 43.0633 10.9677 43.0084 10.8294 43.0084ZM10.5736 40.5751H7.95677C7.89956 40.5751 7.84323 40.5892 7.79277 40.6162C7.74232 40.6432 7.69931 40.6822 7.66756 40.7298L7.64601 40.7673L7.20454 41.6496C7.74264 41.8109 8.46776 41.9656 9.26518 41.9656C10.0098 41.9656 10.6907 41.8307 11.2153 41.6816L11.3255 41.6496L10.8844 40.7673C10.8588 40.7162 10.821 40.6721 10.7743 40.6391C10.7276 40.606 10.6735 40.585 10.6167 40.5779L10.5739 40.5751H10.5736Z" fill="white"/>
<g clip-path="url(#clip3_6237_8396)">
<path d="M18.8941 44.7366C18.4392 44.7366 18.0516 44.5762 17.7311 44.2555C17.4106 43.9348 17.2502 43.5471 17.25 43.0925C17.2498 42.6378 17.4101 42.2501 17.7311 41.9294C18.052 41.6087 18.4397 41.4484 18.8941 41.4484H22.7085L22.0508 40.7907H20.8671V40.1331H22.0426C22.1303 40.1331 22.2139 40.1495 22.2935 40.1824C22.3731 40.2153 22.4429 40.2618 22.503 40.3221L23.6456 41.4648C24.0731 41.4977 24.4293 41.6703 24.7143 41.9827C24.9993 42.2951 25.1418 42.665 25.1418 43.0925C25.1418 43.5473 24.9814 43.9351 24.6607 44.2558C24.34 44.5766 23.9523 44.7368 23.4976 44.7366C23.043 44.7364 22.6553 44.576 22.3346 44.2555C22.0139 43.935 21.8535 43.5473 21.8535 43.0925C21.8535 42.9938 21.8604 42.8965 21.8742 42.8005C21.8881 42.7045 21.914 42.61 21.9522 42.517L21.0479 43.4213H20.5054C20.4286 43.8049 20.2396 44.12 19.9381 44.3667C19.6367 44.6133 19.2887 44.7366 18.8941 44.7366ZM23.4976 44.0789C23.7717 44.0789 24.0046 43.983 24.1964 43.7912C24.3882 43.5994 24.4841 43.3665 24.4841 43.0925C24.4841 42.8184 24.3882 42.5855 24.1964 42.3937C24.0046 42.2019 23.7717 42.106 23.4976 42.106C23.2236 42.106 22.9907 42.2019 22.7989 42.3937C22.6071 42.5855 22.5112 42.8184 22.5112 43.0925C22.5112 43.3665 22.6071 43.5994 22.7989 43.7912C22.9907 43.983 23.2236 44.0789 23.4976 44.0789ZM18.8941 44.0789C19.1024 44.0789 19.2901 44.0187 19.4574 43.8981C19.6247 43.7775 19.7438 43.6186 19.8148 43.4213H18.8941V42.7636H19.8148C19.7436 42.5664 19.6244 42.4074 19.4574 42.2869C19.2904 42.1663 19.1026 42.106 18.8941 42.106C18.6201 42.106 18.3872 42.2019 18.1954 42.3937C18.0036 42.5855 17.9076 42.8184 17.9076 43.0925C17.9076 43.3665 18.0036 43.5994 18.1954 43.7912C18.3872 43.983 18.6201 44.0789 18.8941 44.0789Z" fill="white"/>
</g>
<path d="M15.9206 27.3096C16.1808 27.3093 16.4321 27.4042 16.6272 27.5762C16.8224 27.7483 16.9479 27.9857 16.9802 28.2439C17.0126 28.502 16.9495 28.7631 16.8028 28.9779C16.6561 29.1928 16.436 29.3467 16.1838 29.4106L15.3136 31.3993H16.134C16.3896 31.3992 16.6389 31.4779 16.8483 31.6244C17.0576 31.771 17.2167 31.9785 17.304 32.2187L17.772 33.5067L17.9378 33.5893C18.0004 33.6206 18.0563 33.664 18.1022 33.7169C18.1481 33.7698 18.1832 33.8313 18.2053 33.8978C18.2275 33.9642 18.2363 34.0344 18.2314 34.1043C18.2264 34.1742 18.2077 34.2425 18.1764 34.3051C18.1451 34.3678 18.1017 34.4237 18.0487 34.4696C17.9958 34.5155 17.9343 34.5506 17.8679 34.5727C17.8014 34.5949 17.7312 34.6037 17.6613 34.5987C17.5914 34.5938 17.5232 34.5751 17.4605 34.5438L17.1049 34.3659C16.9827 34.3048 16.8887 34.1992 16.8421 34.0708L16.3012 32.5835C16.2887 32.5492 16.2659 32.5196 16.236 32.4987C16.2061 32.4777 16.1705 32.4665 16.134 32.4665H15.3139C14.5447 32.4665 14.0283 31.677 14.3367 30.9722L14.6365 30.2869L14.1425 30.0397L12.9583 30.6318C12.8955 30.6638 12.8271 30.683 12.7569 30.6883C12.6867 30.6937 12.6161 30.6851 12.5493 30.6631C12.4824 30.641 12.4206 30.606 12.3673 30.5599C12.3141 30.5139 12.2705 30.4577 12.239 30.3947C12.2076 30.3317 12.1889 30.2631 12.1841 30.1929C12.1793 30.1227 12.1884 30.0522 12.211 29.9855C12.2335 29.9188 12.2691 29.8572 12.3155 29.8044C12.362 29.7515 12.4185 29.7083 12.4817 29.6773L13.7449 29.0457C13.8684 28.984 14.0045 28.9519 14.1425 28.9519C14.2805 28.9519 14.4166 28.984 14.5401 29.0457L15.0643 29.3078L15.1493 29.1137C15.0049 28.9626 14.908 28.7725 14.8707 28.5668C14.8334 28.3612 14.8573 28.1492 14.9395 27.957C15.0217 27.7649 15.1584 27.6011 15.3329 27.486C15.5073 27.3709 15.7117 27.3095 15.9206 27.3096ZM12.0735 30.7809L12.6553 31.1905C12.5314 31.3677 12.4447 31.5681 12.4004 31.7796C12.3561 31.9912 12.3552 32.2095 12.3976 32.4214C12.4399 32.6334 12.5248 32.8345 12.6471 33.0128C12.7693 33.191 12.9264 33.3426 13.1089 33.4585C13.2913 33.5744 13.4954 33.6521 13.7087 33.6869C13.922 33.7218 14.1402 33.7131 14.35 33.6613C14.5599 33.6096 14.757 33.5158 14.9297 33.3858C15.1023 33.2558 15.2468 33.0921 15.3545 32.9047L15.3908 32.8378L16.0238 33.1614C15.8809 33.4394 15.6831 33.6856 15.4424 33.8849C15.2017 34.0843 14.9231 34.2328 14.6233 34.3215C14.3236 34.4101 14.009 34.437 13.6986 34.4006C13.3881 34.3642 13.0883 34.2652 12.8172 34.1096C12.5461 33.9541 12.3094 33.7451 12.1214 33.4954C11.9333 33.2458 11.7979 32.9605 11.7232 32.657C11.6485 32.3535 11.6362 32.038 11.6869 31.7296C11.7376 31.4212 11.8504 31.1263 12.0183 30.8627L12.0735 30.7809Z" fill="white"/>
<defs>
<clipPath id="clip0_6237_8396">
<rect width="14.5177" height="14.5177" fill="white" transform="translate(30.0938 8.06677)"/>
</clipPath>
<clipPath id="clip1_6237_8396">
<rect width="13.8507" height="13.8507" fill="white" transform="translate(29.9219 30.5745)"/>
</clipPath>
<clipPath id="clip2_6237_8396">
<rect width="8.25713" height="9.33414" fill="white" transform="translate(34.7266 30.2739)"/>
</clipPath>
<clipPath id="clip3_6237_8396">
<rect width="7.89177" height="7.89177" fill="white" transform="translate(17.25 38.4902)"/>
</clipPath>
</defs>
</svg>
