<svg width="51" height="50" viewBox="0 0 51 50" fill="none" xmlns="http://www.w3.org/2000/svg">
<g filter="url(#filter0_d_4109_4605)">
<rect x="3" width="45" height="45" rx="21.9216" fill="#F4AD22" shape-rendering="crispEdges"/>
<circle cx="25.5008" cy="22.5" r="17.8856" fill="#F4AD22" stroke="white" stroke-width="2"/>
<path fill-rule="evenodd" clip-rule="evenodd" d="M28.9536 16.1599C29.3937 16.1599 29.8251 16.2824 30.1994 16.5138C30.5738 16.7451 30.8764 17.0761 31.0732 17.4697L32.1681 19.6588C32.3609 19.5798 32.5505 19.4945 32.7369 19.4028C32.9245 19.3092 33.1415 19.2938 33.3403 19.3602C33.5392 19.4266 33.7035 19.5692 33.7971 19.7567C33.8908 19.9443 33.9061 20.1613 33.8397 20.3601C33.7734 20.559 33.6307 20.7233 33.4432 20.8169C33.2533 20.9014 33.0624 20.9836 32.8705 21.0634L33.6296 22.5826C33.7944 22.912 33.8802 23.2752 33.8801 23.6435V25.6399C33.8801 25.9733 33.8097 26.303 33.6736 26.6074C33.5374 26.9118 33.3386 27.184 33.0901 27.4063V28.4049C33.0901 28.7192 32.9652 29.0206 32.743 29.2428C32.5208 29.465 32.2194 29.5899 31.9051 29.5899C31.5908 29.5899 31.2894 29.465 31.0672 29.2428C30.8449 29.0206 30.7201 28.7192 30.7201 28.4049V28.0099H21.2401V28.4049C21.2401 28.7192 21.1152 29.0206 20.893 29.2428C20.6708 29.465 20.3694 29.5899 20.0551 29.5899C19.7408 29.5899 19.4394 29.465 19.2172 29.2428C18.9949 29.0206 18.8701 28.7192 18.8701 28.4049V27.4063C18.385 26.9718 18.0801 26.3414 18.0801 25.6399V23.6427C18.0802 23.275 18.166 22.9123 18.3305 22.5834L19.0834 21.076C18.8927 20.996 18.7044 20.9099 18.5185 20.8177C18.332 20.7228 18.1901 20.5584 18.1236 20.36C18.0571 20.1615 18.0713 19.9449 18.163 19.7567C18.2094 19.6639 18.2736 19.581 18.3519 19.513C18.4303 19.4449 18.5213 19.3929 18.6198 19.3601C18.7182 19.3272 18.8222 19.3141 18.9257 19.3214C19.0293 19.3287 19.1304 19.3564 19.2232 19.4028C19.4102 19.495 19.5998 19.5803 19.792 19.6588L20.8869 17.4705C21.0837 17.0767 21.3862 16.7456 21.7606 16.5141C22.1349 16.2826 22.5664 16.16 23.0065 16.1599H28.9536ZM22.4251 23.2699C22.1108 23.2699 21.8094 23.3947 21.5872 23.6169C21.3649 23.8392 21.2401 24.1406 21.2401 24.4549C21.2401 24.7692 21.3649 25.0706 21.5872 25.2928C21.8094 25.515 22.1108 25.6399 22.4251 25.6399C22.7394 25.6399 23.0408 25.515 23.263 25.2928C23.4852 25.0706 23.6101 24.7692 23.6101 24.4549C23.6101 24.1406 23.4852 23.8392 23.263 23.6169C23.0408 23.3947 22.7394 23.2699 22.4251 23.2699ZM29.5351 23.2699C29.2208 23.2699 28.9194 23.3947 28.6972 23.6169C28.4749 23.8392 28.3501 24.1406 28.3501 24.4549C28.3501 24.7692 28.4749 25.0706 28.6972 25.2928C28.9194 25.515 29.2208 25.6399 29.5351 25.6399C29.8494 25.6399 30.1508 25.515 30.373 25.2928C30.5952 25.0706 30.7201 24.7692 30.7201 24.4549C30.7201 24.1406 30.5952 23.8392 30.373 23.6169C30.1508 23.3947 29.8494 23.2699 29.5351 23.2699ZM28.9536 17.7399H23.0065C22.8765 17.7399 22.7485 17.7719 22.6338 17.8333C22.5192 17.8946 22.4214 17.9833 22.3492 18.0914L22.3003 18.1767L21.297 20.1818C22.5199 20.5483 24.1678 20.8999 25.9801 20.8999C27.6723 20.8999 29.2199 20.5933 30.412 20.2544L30.6624 20.1818L29.6599 18.1767C29.6018 18.0605 29.5158 17.9603 29.4097 17.8852C29.3036 17.8101 29.1806 17.7624 29.0516 17.7462L28.9544 17.7399H28.9536Z" fill="white"/>
</g>
<defs>
<filter id="filter0_d_4109_4605" x="0.630094" y="0" width="49.7398" height="49.7398" filterUnits="userSpaceOnUse" color-interpolation-filters="sRGB">
<feFlood flood-opacity="0" result="BackgroundImageFix"/>
<feColorMatrix in="SourceAlpha" type="matrix" values="0 0 0 0 0 0 0 0 0 0 0 0 0 0 0 0 0 0 127 0" result="hardAlpha"/>
<feOffset dy="2.36991"/>
<feGaussianBlur stdDeviation="1.18495"/>
<feComposite in2="hardAlpha" operator="out"/>
<feColorMatrix type="matrix" values="0 0 0 0 0 0 0 0 0 0 0 0 0 0 0 0 0 0 0.25 0"/>
<feBlend mode="normal" in2="BackgroundImageFix" result="effect1_dropShadow_4109_4605"/>
<feBlend mode="normal" in="SourceGraphic" in2="effect1_dropShadow_4109_4605" result="shape"/>
</filter>
</defs>
</svg>
