<svg width="51" height="50" viewBox="0 0 51 50" fill="none" xmlns="http://www.w3.org/2000/svg">
<g filter="url(#filter0_d_4109_4630)">
<rect x="3" width="45" height="45" rx="21.9216" fill="#F4AD22" shape-rendering="crispEdges"/>
<circle cx="25.5008" cy="22.5" r="17.8856" fill="#F4AD22" stroke="white" stroke-width="2"/>
<path d="M25.5008 5.61442C27.7183 5.61442 29.914 6.05118 31.9626 6.89976C34.0113 7.74834 35.8728 8.99212 37.4407 10.5601C39.0087 12.1281 40.2525 13.9895 41.1011 16.0382C41.9496 18.0868 42.3864 20.2826 42.3864 22.5C42.3864 24.7174 41.9496 26.9132 41.1011 28.9618C40.2525 31.0105 39.0087 32.8719 37.4407 34.4399C35.8728 36.0079 34.0113 37.2517 31.9626 38.1002C29.914 38.9488 27.7183 39.3856 25.5008 39.3856L25.5008 22.5L25.5008 5.61442Z" fill="#F4AD22"/>
<path fill-rule="evenodd" clip-rule="evenodd" d="M19.3415 18.5743C19.6145 18.5743 19.882 18.6503 20.1142 18.7938C20.3464 18.9373 20.534 19.1426 20.6561 19.3867L21.3352 20.7444C21.4547 20.6954 21.5723 20.6424 21.688 20.5856C21.8043 20.5275 21.9389 20.518 22.0622 20.5592C22.1855 20.6003 22.2874 20.6888 22.3455 20.8051C22.4036 20.9214 22.4131 21.056 22.3719 21.1793C22.3308 21.3026 22.2423 21.4046 22.126 21.4626C22.0082 21.5151 21.8898 21.566 21.7708 21.6155L22.2416 22.5577C22.3438 22.762 22.397 22.9873 22.3969 23.2157V24.4539C22.3969 24.6607 22.3533 24.8652 22.2689 25.0539C22.1844 25.2427 22.0611 25.4116 21.907 25.5494V26.1688C21.907 26.3637 21.8295 26.5506 21.6917 26.6884C21.5539 26.8263 21.367 26.9037 21.172 26.9037C20.9771 26.9037 20.7902 26.8263 20.6523 26.6884C20.5145 26.5506 20.4371 26.3637 20.4371 26.1688V25.9238H14.5575V26.1688C14.5575 26.3637 14.4801 26.5506 14.3423 26.6884C14.2044 26.8263 14.0175 26.9037 13.8226 26.9037C13.6276 26.9037 13.4407 26.8263 13.3029 26.6884C13.1651 26.5506 13.0876 26.3637 13.0876 26.1688V25.5494C12.7868 25.28 12.5977 24.889 12.5977 24.4539V23.2152C12.5977 22.9871 12.6509 22.7622 12.753 22.5582L13.2199 21.6234C13.1017 21.5737 12.9849 21.5203 12.8696 21.4631C12.7539 21.4043 12.6659 21.3023 12.6247 21.1792C12.5834 21.0562 12.5922 20.9218 12.6491 20.8051C12.6778 20.7475 12.7177 20.6961 12.7663 20.6539C12.8149 20.6117 12.8713 20.5795 12.9324 20.5591C12.9934 20.5387 13.0579 20.5306 13.1221 20.5351C13.1864 20.5397 13.2491 20.5568 13.3066 20.5856C13.4226 20.6428 13.5402 20.6957 13.6594 20.7444L14.3385 19.3872C14.4605 19.143 14.6481 18.9376 14.8803 18.794C15.1125 18.6504 15.3801 18.5744 15.6531 18.5743H19.3415ZM15.2925 22.984C15.0975 22.984 14.9106 23.0614 14.7728 23.1992C14.6349 23.3371 14.5575 23.524 14.5575 23.7189C14.5575 23.9138 14.6349 24.1008 14.7728 24.2386C14.9106 24.3764 15.0975 24.4539 15.2925 24.4539C15.4874 24.4539 15.6743 24.3764 15.8121 24.2386C15.95 24.1008 16.0274 23.9138 16.0274 23.7189C16.0274 23.524 15.95 23.3371 15.8121 23.1992C15.6743 23.0614 15.4874 22.984 15.2925 22.984ZM19.7021 22.984C19.5072 22.984 19.3203 23.0614 19.1825 23.1992C19.0446 23.3371 18.9672 23.524 18.9672 23.7189C18.9672 23.9138 19.0446 24.1008 19.1825 24.2386C19.3203 24.3764 19.5072 24.4539 19.7021 24.4539C19.8971 24.4539 20.084 24.3764 20.2218 24.2386C20.3597 24.1008 20.4371 23.9138 20.4371 23.7189C20.4371 23.524 20.3597 23.3371 20.2218 23.1992C20.084 23.0614 19.8971 22.984 19.7021 22.984ZM19.3415 19.5542H15.6531C15.5724 19.5542 15.493 19.5741 15.4219 19.6121C15.3508 19.6502 15.2902 19.7052 15.2454 19.7723L15.215 19.8252L14.5928 21.0687C15.3513 21.2961 16.3733 21.5141 17.4973 21.5141C18.5468 21.5141 19.5066 21.324 20.246 21.1138L20.4013 21.0687L19.7796 19.8252C19.7435 19.7531 19.6902 19.691 19.6244 19.6444C19.5586 19.5978 19.4823 19.5682 19.4023 19.5582L19.342 19.5542H19.3415Z" fill="white"/>
<rect x="25.1152" y="5.61442" width="1" height="35" fill="white"/>
<g clip-path="url(#clip0_4109_4630)">
<path d="M31.063 25.9235C30.3852 25.9235 29.8076 25.6845 29.3301 25.2067C28.8525 24.7288 28.6136 24.1512 28.6133 23.4737C28.613 22.7963 28.8519 22.2187 29.3301 21.7408C29.8083 21.2629 30.3859 21.024 31.063 21.024H36.7464L35.7665 20.0441H34.0027V19.0642H35.7542C35.8849 19.0642 36.0095 19.0887 36.1281 19.1377C36.2466 19.1867 36.3507 19.2561 36.4402 19.346L38.1427 21.0485C38.7796 21.0975 39.3104 21.3547 39.735 21.8202C40.1597 22.2856 40.372 22.8368 40.372 23.4737C40.372 24.1515 40.133 24.7293 39.6552 25.2072C39.1773 25.685 38.5997 25.9238 37.9222 25.9235C37.2448 25.9231 36.6672 25.6842 36.1893 25.2067C35.7114 24.7291 35.4725 24.1515 35.4725 23.4737C35.4725 23.3268 35.4828 23.1817 35.5034 23.0387C35.524 22.8956 35.5627 22.7548 35.6195 22.6163L34.2721 23.9637H33.4637C33.3494 24.5353 33.0677 25.0048 32.6186 25.3723C32.1695 25.7397 31.6509 25.9235 31.063 25.9235ZM37.9222 24.9436C38.3305 24.9436 38.6776 24.8007 38.9634 24.5149C39.2492 24.2291 39.3921 23.882 39.3921 23.4737C39.3921 23.0655 39.2492 22.7184 38.9634 22.4326C38.6776 22.1468 38.3305 22.0039 37.9222 22.0039C37.5139 22.0039 37.1669 22.1468 36.8811 22.4326C36.5953 22.7184 36.4524 23.0655 36.4524 23.4737C36.4524 23.882 36.5953 24.2291 36.8811 24.5149C37.1669 24.8007 37.5139 24.9436 37.9222 24.9436ZM31.063 24.9436C31.3733 24.9436 31.6531 24.8538 31.9023 24.6741C32.1515 24.4945 32.329 24.2577 32.4349 23.9637H31.063V22.9838H32.4349C32.3287 22.6898 32.1512 22.453 31.9023 22.2734C31.6534 22.0937 31.3736 22.0039 31.063 22.0039C30.6547 22.0039 30.3077 22.1468 30.0219 22.4326C29.7361 22.7184 29.5932 23.0655 29.5932 23.4737C29.5932 23.882 29.7361 24.2291 30.0219 24.5149C30.3077 24.8007 30.6547 24.9436 31.063 24.9436Z" fill="white"/>
</g>
</g>
<defs>
<filter id="filter0_d_4109_4630" x="0.630094" y="0" width="49.7398" height="49.7398" filterUnits="userSpaceOnUse" color-interpolation-filters="sRGB">
<feFlood flood-opacity="0" result="BackgroundImageFix"/>
<feColorMatrix in="SourceAlpha" type="matrix" values="0 0 0 0 0 0 0 0 0 0 0 0 0 0 0 0 0 0 127 0" result="hardAlpha"/>
<feOffset dy="2.36991"/>
<feGaussianBlur stdDeviation="1.18495"/>
<feComposite in2="hardAlpha" operator="out"/>
<feColorMatrix type="matrix" values="0 0 0 0 0 0 0 0 0 0 0 0 0 0 0 0 0 0 0.25 0"/>
<feBlend mode="normal" in2="BackgroundImageFix" result="effect1_dropShadow_4109_4630"/>
<feBlend mode="normal" in="SourceGraphic" in2="effect1_dropShadow_4109_4630" result="shape"/>
</filter>
<clipPath id="clip0_4109_4630">
<rect width="11.7587" height="11.7587" fill="white" transform="translate(28.6152 16.6144)"/>
</clipPath>
</defs>
</svg>
