<svg width="49" height="49" viewBox="0 0 49 49" fill="none" xmlns="http://www.w3.org/2000/svg">
<rect width="49" height="49" rx="3.9894" fill="#0078FF"/>
<path fill-rule="evenodd" clip-rule="evenodd" d="M27.9816 15.4725C28.5799 15.4726 29.1663 15.6476 29.6753 15.978C30.1842 16.3084 30.5955 16.7812 30.8631 17.3434L32.3517 20.4701C32.6138 20.3572 32.8715 20.2354 33.125 20.1045C33.3799 19.9707 33.675 19.9488 33.9453 20.0436C34.2156 20.1384 34.4389 20.3422 34.5663 20.61C34.6936 20.8778 34.7144 21.1879 34.6242 21.4718C34.534 21.7558 34.3401 21.9905 34.0851 22.1243C33.827 22.245 33.5674 22.3623 33.3065 22.4763L34.3386 24.6462C34.5626 25.1167 34.6792 25.6355 34.679 26.1616V29.013C34.679 29.4892 34.5834 29.9601 34.3983 30.3949C34.2132 30.8297 33.9429 31.2185 33.605 31.536V32.9623C33.605 33.4112 33.4353 33.8417 33.1332 34.1591C32.8311 34.4765 32.4213 34.6548 31.9941 34.6548C31.5668 34.6548 31.157 34.4765 30.8549 34.1591C30.5528 33.8417 30.3831 33.4112 30.3831 32.9623V32.3981H17.4952V32.9623C17.4952 33.4112 17.3255 33.8417 17.0233 34.1591C16.7212 34.4765 16.3115 34.6548 15.8842 34.6548C15.4569 34.6548 15.0472 34.4765 14.7451 34.1591C14.4429 33.8417 14.2732 33.4112 14.2732 32.9623V31.536C13.6138 30.9154 13.1992 30.015 13.1992 29.013V26.1605C13.1994 25.6352 13.316 25.1171 13.5397 24.6473L14.5632 22.4944C14.304 22.38 14.048 22.257 13.7953 22.1254C13.5416 21.9899 13.3488 21.7551 13.2584 21.4716C13.168 21.1882 13.1873 20.8787 13.312 20.61C13.375 20.4773 13.4623 20.359 13.5688 20.2618C13.6753 20.1646 13.7991 20.0904 13.9329 20.0434C14.0668 19.9965 14.2081 19.9777 14.3489 19.9882C14.4896 19.9987 14.6271 20.0382 14.7533 20.1045C15.0075 20.2361 15.2652 20.358 15.5266 20.4701L17.0151 17.3445C17.2826 16.7821 17.6938 16.3091 18.2028 15.9785C18.7117 15.6479 19.2982 15.4727 19.8966 15.4725H27.9816ZM19.1062 25.6279C18.6789 25.6279 18.2691 25.8062 17.967 26.1236C17.6649 26.441 17.4952 26.8715 17.4952 27.3204C17.4952 27.7693 17.6649 28.1998 17.967 28.5172C18.2691 28.8347 18.6789 29.013 19.1062 29.013C19.5334 29.013 19.9432 28.8347 20.2453 28.5172C20.5474 28.1998 20.7172 27.7693 20.7172 27.3204C20.7172 26.8715 20.5474 26.441 20.2453 26.1236C19.9432 25.8062 19.5334 25.6279 19.1062 25.6279ZM28.7721 25.6279C28.3448 25.6279 27.9351 25.8062 27.6329 26.1236C27.3308 26.441 27.1611 26.8715 27.1611 27.3204C27.1611 27.7693 27.3308 28.1998 27.6329 28.5172C27.9351 28.8347 28.3448 29.013 28.7721 29.013C29.1993 29.013 29.6091 28.8347 29.9112 28.5172C30.2133 28.1998 30.3831 27.7693 30.3831 27.3204C30.3831 26.8715 30.2133 26.441 29.9112 26.1236C29.6091 25.8062 29.1993 25.6279 28.7721 25.6279ZM27.9816 17.7293H19.8966C19.7199 17.7292 19.5458 17.7751 19.3899 17.8627C19.2341 17.9502 19.1012 18.0769 19.0031 18.2314L18.9365 18.3533L17.5725 21.2171C19.235 21.7406 21.4754 22.2428 23.9391 22.2428C26.2396 22.2428 28.3436 21.8049 29.9642 21.3209L30.3047 21.2171L28.9418 18.3533C28.8627 18.1872 28.7459 18.0442 28.6017 17.9369C28.4574 17.8296 28.2902 17.7614 28.1148 17.7383L27.9827 17.7293H27.9816Z" fill="white"/>
</svg>
