<svg width="50" height="49" viewBox="0 0 50 49" fill="none" xmlns="http://www.w3.org/2000/svg">
<rect x="0.5" width="49" height="49" rx="7" fill="#FEEFE8"/>
<path d="M18.0323 23.8313L20.1323 27.4748L17.4758 30.8138L13.8008 24.4508L18.0323 23.8313ZM29.5508 30.0998V27.2543C30.4748 26.8448 31.1258 25.9313 31.1258 24.8498C31.1258 24.2513 30.9158 23.6948 30.5693 23.2748L32.6378 22.0673C33.6983 21.4478 34.0658 20.0933 33.4463 19.0328L31.9973 16.5128C31.7018 16.0036 31.2171 15.6317 30.6487 15.4783C30.0803 15.3249 29.4743 15.4024 28.9628 15.6938L20.4263 20.6498C19.4288 21.2063 19.0823 22.4873 19.6598 23.4953L21.2348 26.2253C21.8123 27.2228 23.1038 27.5693 24.1013 26.9918L26.0753 25.8578C26.3378 26.4773 26.8313 26.9813 27.4508 27.2543V30.0998C27.4508 31.2548 28.3958 32.1998 29.5508 32.1998H34.8008V30.0998H29.5508Z" fill="#F37648"/>
</svg>
