<svg width="49" height="49" viewBox="0 0 49 49" fill="none" xmlns="http://www.w3.org/2000/svg">
<rect width="49" height="49" rx="23.8702" fill="#30D48F"/>
<circle cx="24.4998" cy="24.4993" r="19.4754" fill="#30D48F" stroke="#30D48F" stroke-width="2.17778"/>
<path d="M29.0184 15.8805C29.0184 15.6519 29.1092 15.4326 29.2709 15.2709C29.4326 15.1093 29.6518 15.0184 29.8804 15.0184H33.1131C33.3417 15.0184 33.561 15.1093 33.7226 15.2709C33.8843 15.4326 33.9751 15.6519 33.9751 15.8805V20.1907C33.9751 20.4193 33.8843 20.6386 33.7226 20.8002C33.561 20.9619 33.3417 21.0527 33.1131 21.0527H32.251V33.3367C32.251 33.5082 32.1829 33.6727 32.0617 33.7939C31.9404 33.9151 31.776 33.9833 31.6045 33.9833C31.433 33.9833 31.2686 33.9151 31.1473 33.7939C31.0261 33.6727 30.958 33.5082 30.958 33.3367V21.0527H29.8804C29.6518 21.0527 29.4326 20.9619 29.2709 20.8002C29.1092 20.6386 29.0184 20.4193 29.0184 20.1907V15.8805ZM27.7684 16.7425C27.8995 16.7425 28.0288 16.7514 28.1564 16.7692V18.0873C28.0297 18.054 27.8994 18.037 27.7684 18.0364H21.2178C20.8813 18.0364 20.5544 18.1489 20.2892 18.356C20.024 18.5631 19.8356 18.853 19.7541 19.1795L19.0714 21.9147H30.0959V30.1041H29.2331L29.2339 31.1791C29.2339 31.298 29.3305 31.3946 29.4494 31.3946H30.0959V32.6876H29.4494C29.0493 32.6876 28.6656 32.5287 28.3827 32.2458C28.0998 31.9629 27.9409 31.5792 27.9409 31.1791L27.94 30.1041H21.048V31.1791C21.048 31.5792 20.8891 31.9629 20.6062 32.2458C20.3232 32.5287 19.9395 32.6876 19.5394 32.6876H18.2429C17.8428 32.6876 17.4591 32.5287 17.1762 32.2458C16.8933 31.9629 16.7344 31.5792 16.7344 31.1791V23.8543C16.7344 23.1518 17.1076 22.5363 17.6671 22.1966L17.8455 21.4837H17.3809C17.2247 21.4837 17.0737 21.4271 16.956 21.3245C16.8382 21.2218 16.7617 21.0799 16.7404 20.9251L16.7344 20.8372C16.7344 20.681 16.791 20.53 16.8937 20.4123C16.9963 20.2945 17.1382 20.218 17.293 20.1967L17.3809 20.1907H18.1679L18.5007 18.8649C18.6522 18.2587 19.002 17.7205 19.4945 17.336C19.987 16.9514 20.5939 16.7425 21.2187 16.7425H27.7684ZM19.7541 30.1041H18.0266L18.0274 31.1791C18.0274 31.298 18.124 31.3946 18.2429 31.3946H19.5394C19.5966 31.3946 19.6514 31.3719 19.6918 31.3314C19.7322 31.291 19.755 31.2362 19.755 31.1791L19.7541 30.1041ZM26.0013 26.2249H22.9824L22.8945 26.231C22.7397 26.2523 22.5979 26.3289 22.4953 26.4466C22.3926 26.5643 22.3361 26.7153 22.3361 26.8715C22.3361 27.0277 22.3926 27.1786 22.4953 27.2963C22.5979 27.4141 22.7397 27.4907 22.8945 27.512L22.9824 27.518H26.0013L26.0883 27.512C26.2505 27.4896 26.3981 27.4067 26.5015 27.2798C26.6049 27.1529 26.6563 26.9915 26.6453 26.8282C26.6344 26.665 26.5619 26.5119 26.4426 26.3999C26.3232 26.2879 26.1658 26.2254 26.0021 26.2249M28.8029 24.5009C28.5743 24.5009 28.355 24.5917 28.1933 24.7533C28.0317 24.915 27.9409 25.1343 27.9409 25.3629C27.9409 25.5915 28.0317 25.8108 28.1933 25.9724C28.355 26.1341 28.5743 26.2249 28.8029 26.2249C29.0315 26.2249 29.2508 26.1341 29.4124 25.9724C29.5741 25.8108 29.6649 25.5915 29.6649 25.3629C29.6649 25.1343 29.5741 24.915 29.4124 24.7533C29.2508 24.5917 29.0315 24.5009 28.8029 24.5009ZM20.1825 24.5009C19.9539 24.5009 19.7346 24.5917 19.573 24.7533C19.4113 24.915 19.3205 25.1343 19.3205 25.3629C19.3205 25.5915 19.4113 25.8108 19.573 25.9724C19.7346 26.1341 19.9539 26.2249 20.1825 26.2249C20.4111 26.2249 20.6304 26.1341 20.7921 25.9724C20.9537 25.8108 21.0446 25.5915 21.0446 25.3629C21.0446 25.1343 20.9537 24.915 20.7921 24.7533C20.6304 24.5917 20.4111 24.5009 20.1825 24.5009Z" fill="white"/>
</svg>
