<svg width="51" height="49" viewBox="0 0 51 49" fill="none" xmlns="http://www.w3.org/2000/svg">
<rect x="1" width="49" height="49" rx="7" fill="#FFF0D5"/>
<path d="M37.1667 33.75V21.4108C37.1667 19.9787 37.1667 19.2615 36.794 18.7068C36.4213 18.1522 35.7616 17.8857 34.4432 17.3527L27.9432 14.731C27.148 14.4103 26.7515 14.25 26.3333 14.25C25.9152 14.25 25.5187 14.4103 24.7235 14.731L18.2235 17.3527C16.9051 17.8857 16.2453 18.1522 15.8727 18.7068C15.5 19.2615 15.5 19.9787 15.5 21.4108V33.75" stroke="#E99F22" stroke-width="1.77273" stroke-linecap="round" stroke-linejoin="round"/>
<g clip-path="url(#clip0_5425_5701)">
<path fill-rule="evenodd" clip-rule="evenodd" d="M28.5637 22.8184C28.8929 22.8184 29.2156 22.91 29.4956 23.0831C29.7757 23.2561 30.002 23.5038 30.1493 23.7982L30.9683 25.4357C31.1125 25.3766 31.2543 25.3128 31.3938 25.2443C31.5341 25.1742 31.6965 25.1627 31.8452 25.2124C31.9939 25.262 32.1168 25.3687 32.1869 25.509C32.2569 25.6493 32.2684 25.8117 32.2188 25.9604C32.1691 26.1091 32.0624 26.232 31.9221 26.3021C31.7801 26.3653 31.6373 26.4268 31.4937 26.4865L32.0616 27.6229C32.1849 27.8693 32.249 28.141 32.2489 28.4165V29.9099C32.2489 30.1593 32.1963 30.406 32.0945 30.6337C31.9926 30.8614 31.8439 31.065 31.658 31.2313V31.9783C31.658 32.2134 31.5646 32.4389 31.3983 32.6051C31.2321 32.7713 31.0066 32.8647 30.7715 32.8647C30.5364 32.8647 30.311 32.7713 30.1447 32.6051C29.9785 32.4389 29.8851 32.2134 29.8851 31.9783V31.6828H22.7935V31.9783C22.7935 32.2134 22.7001 32.4389 22.5339 32.6051C22.3677 32.7713 22.1422 32.8647 21.9071 32.8647C21.672 32.8647 21.4465 32.7713 21.2803 32.6051C21.114 32.4389 21.0207 32.2134 21.0207 31.9783V31.2313C20.6578 30.9063 20.4297 30.4347 20.4297 29.9099V28.416C20.4298 28.1408 20.4939 27.8695 20.617 27.6235L21.1802 26.4959C21.0376 26.436 20.8967 26.3716 20.7577 26.3027C20.6181 26.2317 20.512 26.1087 20.4623 25.9603C20.4125 25.8118 20.4231 25.6497 20.4917 25.509C20.5264 25.4395 20.5744 25.3776 20.633 25.3267C20.6917 25.2757 20.7598 25.2369 20.8334 25.2123C20.9071 25.1877 20.9848 25.1779 21.0623 25.1834C21.1397 25.1888 21.2154 25.2095 21.2848 25.2443C21.4247 25.3132 21.5665 25.377 21.7103 25.4357L22.5294 23.7988C22.6766 23.5042 22.9028 23.2565 23.1829 23.0833C23.4629 22.9102 23.7857 22.8184 24.1149 22.8184H28.5637ZM23.68 28.137C23.4449 28.137 23.2194 28.2304 23.0532 28.3967C22.8869 28.5629 22.7935 28.7884 22.7935 29.0235C22.7935 29.2586 22.8869 29.484 23.0532 29.6503C23.2194 29.8165 23.4449 29.9099 23.68 29.9099C23.9151 29.9099 24.1406 29.8165 24.3068 29.6503C24.473 29.484 24.5664 29.2586 24.5664 29.0235C24.5664 28.7884 24.473 28.5629 24.3068 28.3967C24.1406 28.2304 23.9151 28.137 23.68 28.137ZM28.9986 28.137C28.7635 28.137 28.5381 28.2304 28.3718 28.3967C28.2056 28.5629 28.1122 28.7884 28.1122 29.0235C28.1122 29.2586 28.2056 29.484 28.3718 29.6503C28.5381 29.8165 28.7635 29.9099 28.9986 29.9099C29.2337 29.9099 29.4592 29.8165 29.6255 29.6503C29.7917 29.484 29.8851 29.2586 29.8851 29.0235C29.8851 28.7884 29.7917 28.5629 29.6255 28.3967C29.4592 28.2304 29.2337 28.137 28.9986 28.137ZM28.5637 24.0003H24.1149C24.0177 24.0003 23.9219 24.0243 23.8361 24.0701C23.7504 24.116 23.6772 24.1824 23.6232 24.2633L23.5866 24.3271L22.8361 25.827C23.7509 26.1012 24.9836 26.3641 26.3393 26.3641C27.6052 26.3641 28.7629 26.1348 29.6546 25.8813L29.8419 25.827L29.092 24.3271C29.0485 24.2401 28.9842 24.1652 28.9049 24.109C28.8255 24.0528 28.7335 24.0171 28.637 24.005L28.5643 24.0003H28.5637Z" fill="#E99F22"/>
</g>
<path d="M36.7526 33.7441V21.405C36.7526 19.9728 36.7526 19.2556 36.3799 18.701C36.0073 18.1463 35.3475 17.8798 34.0291 17.3468L27.5291 14.7251C26.7339 14.4045 26.3374 14.2441 25.9193 14.2441C25.5011 14.2441 25.1046 14.4045 24.3094 14.7251L17.8094 17.3468C16.491 17.8798 15.8313 18.1463 15.4586 18.701C15.0859 19.2556 15.0859 19.9728 15.0859 21.405V33.7441" stroke="#E99F22" stroke-width="1.77273" stroke-linecap="round" stroke-linejoin="round"/>
<g clip-path="url(#clip1_5425_5701)">
<path fill-rule="evenodd" clip-rule="evenodd" d="M28.1496 22.8125C28.4788 22.8125 28.8015 22.9042 29.0816 23.0772C29.3616 23.2503 29.5879 23.4979 29.7352 23.7923L30.5543 25.4299C30.6985 25.3708 30.8403 25.307 30.9798 25.2384C31.12 25.1683 31.2824 25.1569 31.4311 25.2065C31.5799 25.2562 31.7028 25.3629 31.7728 25.5032C31.8429 25.6434 31.8544 25.8058 31.8047 25.9545C31.7551 26.1033 31.6484 26.2262 31.5081 26.2962C31.366 26.3594 31.2232 26.4209 31.0796 26.4806L31.6475 27.617C31.7708 27.8634 31.835 28.1352 31.8349 28.4107V29.9041C31.8349 30.1535 31.7822 30.4001 31.6804 30.6278C31.5786 30.8555 31.4298 31.0592 31.2439 31.2254V31.9724C31.2439 32.2075 31.1505 32.433 30.9843 32.5992C30.818 32.7655 30.5926 32.8589 30.3575 32.8589C30.1224 32.8589 29.8969 32.7655 29.7307 32.5992C29.5644 32.433 29.471 32.2075 29.471 31.9724V31.6769H22.3795V31.9724C22.3795 32.2075 22.2861 32.433 22.1198 32.5992C21.9536 32.7655 21.7281 32.8589 21.493 32.8589C21.2579 32.8589 21.0325 32.7655 20.8662 32.5992C20.7 32.433 20.6066 32.2075 20.6066 31.9724V31.2254C20.2437 30.9004 20.0156 30.4288 20.0156 29.9041V28.4101C20.0157 28.135 20.0799 27.8637 20.203 27.6176L20.7661 26.4901C20.6235 26.4302 20.4827 26.3658 20.3436 26.2968C20.204 26.2258 20.098 26.1029 20.0482 25.9544C19.9985 25.8059 20.009 25.6439 20.0777 25.5032C20.1123 25.4337 20.1604 25.3717 20.219 25.3208C20.2776 25.2699 20.3457 25.231 20.4193 25.2064C20.493 25.1818 20.5708 25.172 20.6482 25.1775C20.7257 25.183 20.8013 25.2037 20.8707 25.2384C21.0106 25.3073 21.1524 25.3712 21.2962 25.4299L22.1153 23.7929C22.2625 23.4984 22.4888 23.2506 22.7688 23.0775C23.0489 22.9043 23.3716 22.8126 23.7009 22.8125H28.1496ZM23.2659 28.1312C23.0308 28.1312 22.8053 28.2246 22.6391 28.3908C22.4729 28.557 22.3795 28.7825 22.3795 29.0176C22.3795 29.2527 22.4729 29.4782 22.6391 29.6444C22.8053 29.8107 23.0308 29.9041 23.2659 29.9041C23.501 29.9041 23.7265 29.8107 23.8927 29.6444C24.059 29.4782 24.1524 29.2527 24.1524 29.0176C24.1524 28.7825 24.059 28.557 23.8927 28.3908C23.7265 28.2246 23.501 28.1312 23.2659 28.1312ZM28.5846 28.1312C28.3495 28.1312 28.124 28.2246 27.9578 28.3908C27.7915 28.557 27.6981 28.7825 27.6981 29.0176C27.6981 29.2527 27.7915 29.4782 27.9578 29.6444C28.124 29.8107 28.3495 29.9041 28.5846 29.9041C28.8197 29.9041 29.0452 29.8107 29.2114 29.6444C29.3776 29.4782 29.471 29.2527 29.471 29.0176C29.471 28.7825 29.3776 28.557 29.2114 28.3908C29.0452 28.2246 28.8197 28.1312 28.5846 28.1312ZM28.1496 23.9944H23.7009C23.6036 23.9944 23.5078 24.0184 23.4221 24.0643C23.3363 24.1102 23.2632 24.1765 23.2092 24.2574L23.1725 24.3212L22.422 25.8211C23.3368 26.0953 24.5696 26.3583 25.9253 26.3583C27.1911 26.3583 28.3488 26.129 29.2406 25.8755L29.4279 25.8211L28.678 24.3212C28.6345 24.2342 28.5702 24.1593 28.4908 24.1032C28.4114 24.047 28.3194 24.0113 28.2229 23.9992L28.1502 23.9944H28.1496Z" fill="#E99F22"/>
</g>
<defs>
<clipPath id="clip0_5425_5701">
<rect width="14.1818" height="14.1818" fill="white" transform="translate(19.2461 20.4545)"/>
</clipPath>
<clipPath id="clip1_5425_5701">
<rect width="14.1818" height="14.1818" fill="white" transform="translate(18.832 20.4486)"/>
</clipPath>
</defs>
</svg>
