<svg width="51" height="49" viewBox="0 0 51 49" fill="none" xmlns="http://www.w3.org/2000/svg">
<rect x="1" width="49" height="49" rx="7" fill="#D1EFE1"/>
<g clip-path="url(#clip0_5425_5721)">
<path fill-rule="evenodd" clip-rule="evenodd" d="M20.3264 16.9654C20.4738 16.8413 20.6566 16.7667 20.8488 16.7524C21.041 16.7381 21.2328 16.7847 21.397 16.8857C24.565 18.8354 26.3012 21.3022 27.227 24.0174C27.4562 24.6893 27.6349 25.374 27.7734 26.067C28.7166 24.4812 30.2236 23.2235 32.4933 22.316C32.6533 22.2521 32.8281 22.2346 32.9977 22.2655C33.1672 22.2964 33.3246 22.3745 33.4518 22.4908C33.5789 22.607 33.6708 22.7568 33.7167 22.9229C33.7627 23.089 33.7609 23.2647 33.7115 23.4298L33.5456 23.9834C32.2989 28.1341 31.9167 29.4055 31.9167 32.3334C31.9167 32.5765 31.8201 32.8096 31.6482 32.9815C31.4763 33.1534 31.2431 33.25 31 33.25H20C19.7569 33.25 19.5238 33.1534 19.3519 32.9815C19.1799 32.8096 19.0834 32.5765 19.0834 32.3334C19.0834 28.7914 18.6507 26.5996 17.2968 22.5397C17.2417 22.3739 17.2351 22.1958 17.2778 22.0264C17.3206 21.857 17.4108 21.7033 17.538 21.5835C17.6651 21.4637 17.8239 21.3827 17.9955 21.35C18.1671 21.3174 18.3445 21.3345 18.5068 21.3994C19.7855 21.9099 20.7572 22.5919 21.4905 23.3977C21.2462 21.5479 20.7675 19.7367 20.066 18.0077C19.9943 17.8287 19.9808 17.6316 20.0275 17.4444C20.0743 17.2573 20.1788 17.0897 20.3264 16.9654Z" fill="#3E9A6B"/>
</g>
<defs>
<clipPath id="clip0_5425_5721">
<rect width="22" height="22" fill="white" transform="translate(14.5 14)"/>
</clipPath>
</defs>
</svg>
