<svg width="50" height="49" viewBox="0 0 50 49" fill="none" xmlns="http://www.w3.org/2000/svg">
<rect x="0.5" width="49" height="49" rx="3.9894" fill="#0038FF"/>
<g clip-path="url(#clip0_5425_5166)">
<path d="M15.8789 18.9174C15.8789 17.4052 17.1037 16.1805 18.6158 16.1805H30.658C32.1702 16.1805 33.3949 17.4052 33.3949 18.9174V28.7701C33.3949 29.6664 32.9638 30.4601 32.3002 30.9596V32.6017C32.3002 33.2073 31.8109 33.6965 31.2054 33.6965H30.1107C29.5051 33.6965 29.0159 33.2073 29.0159 32.6017V31.507H20.2579V32.6017C20.2579 33.2073 19.7687 33.6965 19.1632 33.6965H18.0684C17.4629 33.6965 16.9737 33.2073 16.9737 32.6017V30.9596C16.31 30.4601 15.8789 29.6664 15.8789 28.7701V18.9174ZM20.3229 21.3874L19.7105 23.8437H29.5633L28.9509 21.3874C28.8277 20.9016 28.3898 20.5595 27.8869 20.5595H21.3869C20.884 20.5595 20.4461 20.9016 20.3263 21.3874H20.3229ZM20.2579 27.128C20.2579 26.8376 20.1426 26.5592 19.9373 26.3539C19.732 26.1486 19.4535 26.0332 19.1632 26.0332C18.8728 26.0332 18.5944 26.1486 18.3891 26.3539C18.1837 26.5592 18.0684 26.8376 18.0684 27.128C18.0684 27.4183 18.1837 27.6968 18.3891 27.9021C18.5944 28.1074 18.8728 28.2227 19.1632 28.2227C19.4535 28.2227 19.732 28.1074 19.9373 27.9021C20.1426 27.6968 20.2579 27.4183 20.2579 27.128ZM30.1107 28.2227C30.401 28.2227 30.6795 28.1074 30.8848 27.9021C31.0901 27.6968 31.2054 27.4183 31.2054 27.128C31.2054 26.8376 31.0901 26.5592 30.8848 26.3539C30.6795 26.1486 30.401 26.0332 30.1107 26.0332C29.8203 26.0332 29.5419 26.1486 29.3366 26.3539C29.1312 26.5592 29.0159 26.8376 29.0159 27.128C29.0159 27.4183 29.1312 27.6968 29.3366 27.9021C29.5419 28.1074 29.8203 28.2227 30.1107 28.2227Z" fill="white"/>
</g>
<defs>
<clipPath id="clip0_5425_5166">
<rect width="17.516" height="17.516" fill="white" transform="translate(15.875 16.1802)"/>
</clipPath>
</defs>
</svg>
