<svg width="49" height="49" viewBox="0 0 49 49" fill="none" xmlns="http://www.w3.org/2000/svg">
<rect width="49" height="49" rx="3.9894" fill="#269DF1"/>
<g clip-path="url(#clip0_5425_5172)">
<path d="M24.0038 27.2866C23.5629 27.2874 23.1402 27.4629 22.8284 27.7746C22.5166 28.0863 22.3409 28.5088 22.3398 28.9497V32.351C22.3398 32.7923 22.5151 33.2155 22.8272 33.5276C23.1392 33.8396 23.5625 34.0149 24.0038 34.0149C24.4451 34.0149 24.8683 33.8396 25.1803 33.5276C25.4924 33.2155 25.6677 32.7923 25.6677 32.351V32.317V32.3186V28.9505C25.6668 28.5097 25.4915 28.0872 25.18 27.7754C24.8684 27.4636 24.4461 27.2878 24.0053 27.2866H24.0038Z" fill="white"/>
<path d="M30.0327 17.0979H26.8305C26.4426 15.8836 25.3238 15.0192 24.0028 15.0192C22.6818 15.0192 21.5638 15.8836 21.1814 17.0766L21.1759 17.0979H18.0156C17.7949 17.0979 17.5833 17.1856 17.4273 17.3416C17.2712 17.4976 17.1836 17.7092 17.1836 17.9299C17.1836 18.1505 17.2712 18.3621 17.4273 18.5182C17.5833 18.6742 17.7949 18.7618 18.0156 18.7618H21.2178C21.4295 19.4721 21.8893 20.0536 22.4937 20.4179L22.5064 20.425C20.2381 21.11 18.6121 23.1745 18.5978 25.6213V29.9889C18.6011 30.3517 18.7467 30.6988 19.0032 30.9554C19.2597 31.212 19.6066 31.3578 19.9694 31.3613H21.0929V28.991C21.0929 28.208 21.404 27.457 21.9577 26.9033C22.5114 26.3496 23.2624 26.0385 24.0455 26.0385C24.8285 26.0385 25.5795 26.3496 26.1332 26.9033C26.6869 27.457 26.998 28.208 26.998 28.991V31.3613H28.1207C28.484 31.3588 28.8317 31.2134 29.0886 30.9566C29.3456 30.6998 29.4912 30.3522 29.4939 29.9889V25.664C29.4933 24.4977 29.1164 23.3627 28.419 22.4279C27.7216 21.4931 26.7411 20.8083 25.6232 20.4755L25.5853 20.4661C26.2033 20.0976 26.6612 19.5114 26.8692 18.8227L26.8747 18.8021H30.0769C30.2974 18.8015 30.5086 18.7137 30.6645 18.5578C30.8204 18.4019 30.9083 18.1906 30.9089 17.9702C30.9001 17.7416 30.8054 17.5247 30.6437 17.3629C30.482 17.201 30.2652 17.1061 30.0366 17.0971H30.0351L30.0327 17.0979ZM24.0028 19.6333C23.6737 19.6333 23.352 19.5357 23.0784 19.3529C22.8047 19.1701 22.5915 18.9102 22.4655 18.6061C22.3396 18.3021 22.3066 17.9675 22.3709 17.6448C22.4351 17.322 22.5935 17.0255 22.8262 16.7928C23.0589 16.5601 23.3554 16.4017 23.6782 16.3375C24.0009 16.2732 24.3355 16.3062 24.6395 16.4321C24.9436 16.5581 25.2035 16.7713 25.3863 17.045C25.5691 17.3186 25.6667 17.6403 25.6667 17.9694L25.6675 18.0168C25.6675 18.9096 24.9438 19.6333 24.051 19.6333L24.0012 19.6325H24.0036L24.0028 19.6333Z" fill="white"/>
</g>
<defs>
<clipPath id="clip0_5425_5172">
<rect width="13.4314" height="18.962" fill="white" transform="translate(17.1797 15.019)"/>
</clipPath>
</defs>
</svg>
