<svg width="50" height="49" viewBox="0 0 50 49" fill="none" xmlns="http://www.w3.org/2000/svg">
<rect x="0.5" width="49" height="49" rx="3.9894" fill="#269DF1"/>
<g clip-path="url(#clip0_5837_2649)">
<path d="M18 31.4998C16.6167 31.4998 15.4377 31.0122 14.463 30.0368C13.4883 29.0615 13.0007 27.8825 13 26.4998C12.9993 25.1172 13.487 23.9382 14.463 22.9628C15.439 21.9875 16.618 21.4998 18 21.4998H29.6L27.6 19.4998H24V17.4998H27.575C27.8417 17.4998 28.096 17.5498 28.338 17.6498C28.58 17.7498 28.7923 17.8915 28.975 18.0748L32.45 21.5498C33.75 21.6498 34.8333 22.1748 35.7 23.1248C36.5667 24.0748 37 25.1998 37 26.4998C37 27.8832 36.5123 29.0625 35.537 30.0378C34.5617 31.0132 33.3827 31.5005 32 31.4998C30.6173 31.4992 29.4383 31.0115 28.463 30.0368C27.4877 29.0622 27 27.8832 27 26.4998C27 26.1998 27.021 25.9038 27.063 25.6118C27.105 25.3198 27.184 25.0325 27.3 24.7498L24.55 27.4998H22.9C22.6667 28.6665 22.0917 29.6248 21.175 30.3748C20.2583 31.1248 19.2 31.4998 18 31.4998ZM32 29.4998C32.8333 29.4998 33.5417 29.2082 34.125 28.6248C34.7083 28.0415 35 27.3332 35 26.4998C35 25.6665 34.7083 24.9582 34.125 24.3748C33.5417 23.7915 32.8333 23.4998 32 23.4998C31.1667 23.4998 30.4583 23.7915 29.875 24.3748C29.2917 24.9582 29 25.6665 29 26.4998C29 27.3332 29.2917 28.0415 29.875 28.6248C30.4583 29.2082 31.1667 29.4998 32 29.4998ZM18 29.4998C18.6333 29.4998 19.2043 29.3165 19.713 28.9498C20.2217 28.5832 20.584 28.0998 20.8 27.4998H18V25.4998H20.8C20.5833 24.8998 20.221 24.4165 19.713 24.0498C19.205 23.6832 18.634 23.4998 18 23.4998C17.1667 23.4998 16.4583 23.7915 15.875 24.3748C15.2917 24.9582 15 25.6665 15 26.4998C15 27.3332 15.2917 28.0415 15.875 28.6248C16.4583 29.2082 17.1667 29.4998 18 29.4998Z" fill="white"/>
</g>
<defs>
<clipPath id="clip0_5837_2649">
<rect width="24" height="24" fill="white" transform="translate(13 12.5)"/>
</clipPath>
</defs>
</svg>
