<svg width="49" height="49" viewBox="0 0 49 49" fill="none" xmlns="http://www.w3.org/2000/svg">
<rect width="49" height="49" rx="7" fill="#F8F1E4"/>
<g clip-path="url(#clip0_5425_6214)">
<path d="M13.5 29.371L24.1133 35.3866V30.2303L13.5 25.5038V29.371ZM35.5 25.5046L24.8867 30.2303V35.3866L35.5 29.3931V25.5046ZM33.0578 25.9413L34.7233 25.2048L31.0672 23.8192L30.7288 24.7337C31.396 25.0289 32.1919 25.4507 33.0578 25.9413ZM28.8547 14.6135L28.1632 16.555C28.0097 17.092 28.285 17.9152 29.169 18.0879L28.0169 21.3024C27.0805 20.9112 26.2447 21.1808 25.7424 21.7248L24.4795 21.2398L14.276 25.2033L15.9383 25.9292C18.6695 24.3015 21.9005 23.1781 24.9946 23.3557L24.5461 24.5604C23.3711 24.5952 22.3663 24.8903 21.4854 25.3747C24.5591 24.88 27.7609 25.7017 30.1288 26.919C30.0716 26.64 29.9146 26.387 29.6527 26.1365L30.4904 23.7625C30.743 23.0843 30.5436 21.8011 28.9744 21.5684L30.1313 18.3635C31.2154 18.6364 31.8606 17.9302 32.013 17.4629L32.6446 15.6641L28.8547 14.6135ZM31.0141 17.218C30.9828 17.3484 30.7531 17.4551 30.5709 17.3744L29.4395 17.0564C29.2193 16.9698 29.134 16.835 29.2049 16.6445L29.4708 15.8938L31.3164 16.4099L31.0141 17.218Z" fill="#C89C45"/>
</g>
<defs>
<clipPath id="clip0_5425_6214">
<rect width="22" height="22" fill="white" transform="translate(13.5 14)"/>
</clipPath>
</defs>
</svg>
