<svg width="49" height="49" viewBox="0 0 49 49" fill="none" xmlns="http://www.w3.org/2000/svg">
<rect width="49" height="49" rx="23.8702" fill="#195CA7"/>
<circle cx="24.4881" cy="24.5014" r="19.4754" fill="#195CA7" stroke="#195CA7" stroke-width="2.17778"/>
<g clip-path="url(#clip0_5425_5213)">
<path fill-rule="evenodd" clip-rule="evenodd" d="M23.3802 14.157H19.3163C19.1492 14.1571 18.987 14.2139 18.8563 14.318C18.7256 14.4222 18.6341 14.5675 18.5966 14.7304L14.1633 33.9415C14.1384 34.0498 14.1383 34.1622 14.1628 34.2705C14.1874 34.3788 14.2361 34.4802 14.3052 34.5671C14.3744 34.654 14.4623 34.7242 14.5623 34.7725C14.6623 34.8207 14.7719 34.8459 14.883 34.8459H23.3802V31.6628C23.3802 31.3688 23.497 31.0869 23.7048 30.8791C23.9127 30.6712 24.1946 30.5544 24.4885 30.5544C24.7825 30.5544 25.0644 30.6712 25.2723 30.8791C25.4801 31.0869 25.5969 31.3688 25.5969 31.6628V34.8459H34.0941C34.2052 34.8459 34.3148 34.8207 34.4148 34.7725C34.5148 34.7242 34.6027 34.654 34.6718 34.5671C34.741 34.4802 34.7897 34.3788 34.8142 34.2705C34.8388 34.1622 34.8386 34.0498 34.8138 33.9415L30.3804 14.7304C30.343 14.5675 30.2515 14.4222 30.1207 14.318C29.99 14.2139 29.8279 14.1571 29.6608 14.157H25.5969V17.3402C25.5969 17.6341 25.4801 17.916 25.2723 18.1239C25.0644 18.3317 24.7825 18.4485 24.4885 18.4485C24.1946 18.4485 23.9127 18.3317 23.7048 18.1239C23.497 17.916 23.3802 17.6341 23.3802 17.3402V14.157ZM24.4885 21.8016C24.7825 21.8016 25.0644 21.9183 25.2723 22.1262C25.4801 22.334 25.5969 22.616 25.5969 22.9099V26.093C25.5969 26.387 25.4801 26.6689 25.2723 26.8767C25.0644 27.0846 24.7825 27.2014 24.4885 27.2014C24.1946 27.2014 23.9127 27.0846 23.7048 26.8767C23.497 26.6689 23.3802 26.387 23.3802 26.093V22.9099C23.3802 22.616 23.497 22.334 23.7048 22.1262C23.9127 21.9183 24.1946 21.8016 24.4885 21.8016Z" fill="white"/>
</g>
<defs>
<clipPath id="clip0_5425_5213">
<rect width="20.6889" height="20.6889" fill="white" transform="translate(14.1484 14.1572)"/>
</clipPath>
</defs>
</svg>
