<svg width="49" height="49" viewBox="0 0 49 49" fill="none" xmlns="http://www.w3.org/2000/svg">
<circle cx="24.5" cy="24.5" r="24.5" fill="#8732BB"/>
<rect x="3.14062" y="3.14105" width="42.7179" height="42.7179" rx="20.8099" fill="#8732BB"/>
<circle cx="24.5097" cy="24.4998" r="16.9786" fill="#8732BB" stroke="#8732BB" stroke-width="1.89858"/>
<g clip-path="url(#clip0_5425_5182)">
<path d="M34.0949 26.3571C33.6865 25.9405 33.0497 25.9678 32.6206 26.3571L29.4227 29.2345C29.0301 29.5888 28.5415 29.7811 28.0383 29.7796H23.945C23.7982 29.7796 23.6573 29.7139 23.5535 29.5971C23.4496 29.4803 23.3913 29.3218 23.3913 29.1566C23.3913 28.9914 23.4496 28.8329 23.5535 28.7161C23.6573 28.5993 23.7982 28.5336 23.945 28.5336H26.6546C27.2049 28.5336 27.7175 28.1092 27.8054 27.4979C27.8162 27.4277 27.8216 27.3566 27.8213 27.2854C27.8207 26.9553 27.7038 26.639 27.4962 26.4058C27.2885 26.1727 27.0071 26.0417 26.7138 26.0417H21.1763C20.2424 26.042 19.3369 26.4034 18.6117 27.0654L17.0024 28.5336H15.085C14.9381 28.5336 14.7973 28.5993 14.6934 28.7161C14.5896 28.8329 14.5312 28.9914 14.5312 29.1566V32.8944C14.5312 33.0596 14.5896 33.2181 14.6934 33.3349C14.7973 33.4518 14.9381 33.5174 15.085 33.5174H27.4326C27.9357 33.5178 28.4239 33.3256 28.817 32.9723L34.051 28.2611C34.1769 28.1478 34.2793 28.0049 34.351 27.8425C34.4228 27.6801 34.4621 27.502 34.4663 27.3207C34.4706 27.1394 34.4395 26.9592 34.3755 26.7928C34.3114 26.6263 34.2154 26.4777 34.0949 26.3571Z" fill="white"/>
<path d="M28.6176 14.2683C29.1272 14.2683 29.6154 14.4972 29.9754 14.9042L31.7591 16.9205C31.9373 17.122 32.0788 17.3613 32.1753 17.6246C32.2717 17.8879 32.3214 18.1701 32.3214 18.4551C32.3214 18.7401 32.2717 19.0223 32.1753 19.2856C32.0788 19.5489 31.9373 19.7882 31.7591 19.9897L30.4503 21.4692C30.1328 21.8277 29.7143 22.0493 29.2674 22.0956C28.8205 22.1418 28.3734 22.0097 28.0036 21.7222L27.9516 21.6785L25.039 24.9717C24.8135 25.2256 24.5219 25.3911 24.2071 25.4435L24.0981 25.4587L23.9887 25.4637H23.4083C22.9062 25.4637 22.4838 25.0388 22.4224 24.4432L22.418 24.3442V23.6881C22.418 23.294 22.5408 22.9123 22.7795 22.591L22.8532 22.5008L23.0582 22.2691C23.1511 22.1641 23.277 22.1051 23.4083 22.1051H23.9035V21.5453C23.9035 21.4082 23.9481 21.2759 24.0287 21.1734C24.1092 21.071 24.2203 21.0055 24.3408 20.9895L24.3987 20.9855H24.8939V20.4258C24.8939 20.3027 24.9297 20.1831 24.9959 20.0854L25.039 20.0295L25.7659 19.2071L25.7283 19.1495C25.5305 18.8243 25.4145 18.4445 25.3925 18.0507L25.3891 17.9186C25.3891 17.3426 25.5916 16.7906 25.9516 16.3837L27.2603 14.9042C27.6204 14.4973 28.1085 14.2686 28.6176 14.2683ZM28.8628 17.0671H28.8528C28.5902 17.0671 28.3383 17.1851 28.1526 17.3951C27.9668 17.605 27.8625 17.8898 27.8625 18.1867C27.8625 18.4836 27.9668 18.7684 28.1526 18.9783C28.3383 19.1883 28.5902 19.3062 28.8528 19.3062H28.8628C29.1254 19.3062 29.3773 19.1883 29.563 18.9783C29.7488 18.7684 29.8531 18.4836 29.8531 18.1867C29.8531 17.8898 29.7488 17.605 29.563 17.3951C29.3773 17.1851 29.1254 17.0671 28.8628 17.0671Z" fill="white"/>
</g>
<defs>
<clipPath id="clip0_5425_5182">
<rect width="19.935" height="19.935" fill="white" transform="translate(14.5312 13.5827)"/>
</clipPath>
</defs>
</svg>
