<svg width="39" height="39" viewBox="0 0 39 39" fill="none" xmlns="http://www.w3.org/2000/svg">
<circle cx="19.5008" cy="19.5" r="17.8856" fill="#195CA7" stroke="white" stroke-width="2"/>
<path d="M19.5008 2.61443C21.7183 2.61443 23.914 3.05119 25.9626 3.89977C28.0113 4.74835 29.8728 5.99213 31.4407 7.5601C33.0087 9.12807 34.2525 10.9895 35.1011 13.0382C35.9496 15.0868 36.3864 17.2826 36.3864 19.5C36.3864 21.7175 35.9496 23.9132 35.1011 25.9618C34.2525 28.0105 33.0087 29.8719 31.4407 31.4399C29.8728 33.0079 28.0113 34.2517 25.9626 35.1003C23.914 35.9488 21.7183 36.3856 19.5008 36.3856L19.5008 19.5L19.5008 2.61443Z" fill="#195CA7"/>
<path fill-rule="evenodd" clip-rule="evenodd" d="M13.3415 15.5743C13.6145 15.5743 13.882 15.6503 14.1142 15.7938C14.3464 15.9373 14.534 16.1426 14.6561 16.3867L15.3352 17.7444C15.4547 17.6954 15.5723 17.6424 15.688 17.5856C15.8043 17.5275 15.9389 17.518 16.0622 17.5592C16.1855 17.6004 16.2874 17.6888 16.3455 17.8051C16.4036 17.9214 16.4131 18.056 16.3719 18.1793C16.3308 18.3027 16.2423 18.4046 16.126 18.4627C16.0082 18.5151 15.8898 18.566 15.7708 18.6155L16.2416 19.5577C16.3438 19.762 16.397 19.9873 16.3969 20.2157V21.4539C16.3969 21.6607 16.3533 21.8652 16.2689 22.0539C16.1844 22.2427 16.0611 22.4116 15.907 22.5494V23.1688C15.907 23.3637 15.8295 23.5506 15.6917 23.6884C15.5539 23.8263 15.367 23.9037 15.172 23.9037C14.9771 23.9037 14.7902 23.8263 14.6523 23.6884C14.5145 23.5506 14.4371 23.3637 14.4371 23.1688V22.9238H8.55751V23.1688C8.55751 23.3637 8.48008 23.5506 8.34225 23.6884C8.20442 23.8263 8.01749 23.9037 7.82257 23.9037C7.62765 23.9037 7.44071 23.8263 7.30288 23.6884C7.16505 23.5506 7.08762 23.3637 7.08762 23.1688V22.5494C6.78678 22.28 6.59766 21.889 6.59766 21.4539V20.2153C6.59775 19.9872 6.65092 19.7622 6.75297 19.5582L7.21991 18.6234C7.10167 18.5737 6.98489 18.5203 6.86959 18.4631C6.75387 18.4043 6.66591 18.3023 6.62467 18.1793C6.58343 18.0562 6.5922 17.9218 6.6491 17.8051C6.67784 17.7475 6.71765 17.6961 6.76626 17.6539C6.81487 17.6117 6.87132 17.5795 6.93238 17.5591C6.99345 17.5387 7.05793 17.5306 7.12215 17.5351C7.18636 17.5397 7.24905 17.5568 7.30663 17.5856C7.42259 17.6428 7.54018 17.6957 7.65941 17.7444L8.3385 16.3872C8.46052 16.143 8.64814 15.9376 8.88033 15.794C9.11251 15.6504 9.38009 15.5744 9.65307 15.5743H13.3415ZM9.29246 19.984C9.09754 19.984 8.9106 20.0614 8.77277 20.1993C8.63495 20.3371 8.55751 20.524 8.55751 20.7189C8.55751 20.9139 8.63495 21.1008 8.77277 21.2386C8.9106 21.3765 9.09754 21.4539 9.29246 21.4539C9.48738 21.4539 9.67432 21.3765 9.81215 21.2386C9.94998 21.1008 10.0274 20.9139 10.0274 20.7189C10.0274 20.524 9.94998 20.3371 9.81215 20.1993C9.67432 20.0614 9.48738 19.984 9.29246 19.984ZM13.7021 19.984C13.5072 19.984 13.3203 20.0614 13.1825 20.1993C13.0446 20.3371 12.9672 20.524 12.9672 20.7189C12.9672 20.9139 13.0446 21.1008 13.1825 21.2386C13.3203 21.3765 13.5072 21.4539 13.7021 21.4539C13.8971 21.4539 14.084 21.3765 14.2218 21.2386C14.3597 21.1008 14.4371 20.9139 14.4371 20.7189C14.4371 20.524 14.3597 20.3371 14.2218 20.1993C14.084 20.0614 13.8971 19.984 13.7021 19.984ZM13.3415 16.5542H9.65307C9.57243 16.5542 9.49303 16.5741 9.42192 16.6122C9.35081 16.6502 9.29018 16.7052 9.24542 16.7723L9.21505 16.8252L8.59279 18.0687C9.35126 18.2961 10.3733 18.5141 11.4973 18.5141C12.5468 18.5141 13.5066 18.324 14.246 18.1138L14.4013 18.0687L13.7796 16.8252C13.7435 16.7531 13.6902 16.691 13.6244 16.6444C13.5586 16.5978 13.4823 16.5682 13.4023 16.5582L13.342 16.5542H13.3415Z" fill="white"/>
<rect x="19.1152" y="2.61443" width="1" height="35" fill="white"/>
<g clip-path="url(#clip0_4109_4435)">
<path d="M25.063 22.9235C24.3852 22.9235 23.8076 22.6845 23.3301 22.2067C22.8525 21.7288 22.6136 21.1512 22.6133 20.4737C22.613 19.7963 22.8519 19.2187 23.3301 18.7408C23.8083 18.2629 24.3859 18.024 25.063 18.024H30.7464L29.7665 17.0441H28.0027V16.0642H29.7542C29.8849 16.0642 30.0095 16.0887 30.1281 16.1377C30.2466 16.1867 30.3507 16.2561 30.4402 16.346L32.1427 18.0485C32.7796 18.0975 33.3104 18.3547 33.735 18.8202C34.1597 19.2856 34.372 19.8368 34.372 20.4737C34.372 21.1515 34.133 21.7293 33.6552 22.2072C33.1773 22.685 32.5997 22.9238 31.9222 22.9235C31.2448 22.9231 30.6672 22.6842 30.1893 22.2067C29.7114 21.7291 29.4725 21.1515 29.4725 20.4737C29.4725 20.3268 29.4828 20.1817 29.5034 20.0387C29.524 19.8956 29.5627 19.7548 29.6195 19.6163L28.2721 20.9637H27.4637C27.3494 21.5353 27.0677 22.0048 26.6186 22.3723C26.1695 22.7397 25.6509 22.9235 25.063 22.9235ZM31.9222 21.9436C32.3305 21.9436 32.6776 21.8007 32.9634 21.5149C33.2492 21.2291 33.3921 20.882 33.3921 20.4737C33.3921 20.0655 33.2492 19.7184 32.9634 19.4326C32.6776 19.1468 32.3305 19.0039 31.9222 19.0039C31.5139 19.0039 31.1669 19.1468 30.8811 19.4326C30.5953 19.7184 30.4524 20.0655 30.4524 20.4737C30.4524 20.882 30.5953 21.2291 30.8811 21.5149C31.1669 21.8007 31.5139 21.9436 31.9222 21.9436ZM25.063 21.9436C25.3733 21.9436 25.6531 21.8538 25.9023 21.6741C26.1515 21.4945 26.329 21.2577 26.4349 20.9637H25.063V19.9838H26.4349C26.3287 19.6898 26.1512 19.453 25.9023 19.2734C25.6534 19.0937 25.3736 19.0039 25.063 19.0039C24.6547 19.0039 24.3077 19.1468 24.0219 19.4326C23.7361 19.7184 23.5932 20.0655 23.5932 20.4737C23.5932 20.882 23.7361 21.2291 24.0219 21.5149C24.3077 21.8007 24.6547 21.9436 25.063 21.9436Z" fill="white"/>
</g>
<defs>
<clipPath id="clip0_4109_4435">
<rect width="11.7587" height="11.7587" fill="white" transform="translate(22.6152 13.6144)"/>
</clipPath>
</defs>
</svg>
