<svg width="51" height="50" viewBox="0 0 51 50" fill="none" xmlns="http://www.w3.org/2000/svg">
<g filter="url(#filter0_d_4109_4384)">
<rect x="3" width="45" height="45" rx="21.9216" fill="#195CA7" shape-rendering="crispEdges"/>
<circle cx="25.5008" cy="22.5" r="17.8856" fill="#195CA7" stroke="white" stroke-width="2"/>
<g clip-path="url(#clip0_4109_4384)">
<path d="M20.2682 28.3262C19.1754 28.3262 18.244 27.9409 17.4741 27.1705C16.7041 26.4 16.3189 25.4686 16.3184 24.3763C16.3178 23.2841 16.7031 22.3527 17.4741 21.5822C18.2451 20.8117 19.1765 20.4265 20.2682 20.4265H29.4318L27.8519 18.8466H25.008V17.2666H27.8322C28.0428 17.2666 28.2437 17.3061 28.4349 17.3851C28.6261 17.4641 28.7938 17.576 28.9381 17.7208L31.6833 20.466C32.7102 20.545 33.566 20.9597 34.2506 21.7102C34.9353 22.4607 35.2776 23.3494 35.2776 24.3763C35.2776 25.4691 34.8924 26.4008 34.1219 27.1712C33.3514 27.9417 32.42 28.3267 31.3278 28.3262C30.2355 28.3257 29.3041 27.9404 28.5336 27.1705C27.7632 26.4005 27.3779 25.4691 27.3779 24.3763C27.3779 24.1393 27.3945 23.9055 27.4277 23.6748C27.4609 23.4442 27.5233 23.2172 27.6149 22.9939L25.4425 25.1663H24.139C23.9547 26.0879 23.5005 26.845 22.7764 27.4375C22.0522 28.0299 21.2162 28.3262 20.2682 28.3262ZM31.3278 26.7462C31.9861 26.7462 32.5456 26.5158 33.0064 26.055C33.4673 25.5942 33.6977 25.0346 33.6977 24.3763C33.6977 23.718 33.4673 23.1585 33.0064 22.6977C32.5456 22.2368 31.9861 22.0064 31.3278 22.0064C30.6695 22.0064 30.1099 22.2368 29.6491 22.6977C29.1883 23.1585 28.9579 23.718 28.9579 24.3763C28.9579 25.0346 29.1883 25.5942 29.6491 26.055C30.1099 26.5158 30.6695 26.7462 31.3278 26.7462ZM20.2682 26.7462C20.7685 26.7462 21.2196 26.6014 21.6214 26.3118C22.0233 26.0221 22.3095 25.6403 22.4801 25.1663H20.2682V23.5864H22.4801C22.309 23.1124 22.0227 22.7306 21.6214 22.4409C21.2201 22.1513 20.769 22.0064 20.2682 22.0064C19.6099 22.0064 19.0503 22.2368 18.5895 22.6977C18.1287 23.1585 17.8983 23.718 17.8983 24.3763C17.8983 25.0346 18.1287 25.5942 18.5895 26.055C19.0503 26.5158 19.6099 26.7462 20.2682 26.7462Z" fill="white"/>
</g>
</g>
<defs>
<filter id="filter0_d_4109_4384" x="0.630094" y="0" width="49.7398" height="49.7398" filterUnits="userSpaceOnUse" color-interpolation-filters="sRGB">
<feFlood flood-opacity="0" result="BackgroundImageFix"/>
<feColorMatrix in="SourceAlpha" type="matrix" values="0 0 0 0 0 0 0 0 0 0 0 0 0 0 0 0 0 0 127 0" result="hardAlpha"/>
<feOffset dy="2.36991"/>
<feGaussianBlur stdDeviation="1.18495"/>
<feComposite in2="hardAlpha" operator="out"/>
<feColorMatrix type="matrix" values="0 0 0 0 0 0 0 0 0 0 0 0 0 0 0 0 0 0 0.25 0"/>
<feBlend mode="normal" in2="BackgroundImageFix" result="effect1_dropShadow_4109_4384"/>
<feBlend mode="normal" in="SourceGraphic" in2="effect1_dropShadow_4109_4384" result="shape"/>
</filter>
<clipPath id="clip0_4109_4384">
<rect width="18.9592" height="18.9592" fill="white" transform="translate(16.3184 13.3167)"/>
</clipPath>
</defs>
</svg>
