<svg width="51" height="50" viewBox="0 0 51 50" fill="none" xmlns="http://www.w3.org/2000/svg">
<g filter="url(#filter0_d_4109_4540)">
<rect x="3" width="45" height="45" rx="21.9216" fill="#195CA7" shape-rendering="crispEdges"/>
<circle cx="25.5008" cy="22.5" r="17.8856" fill="#195CA7" stroke="white" stroke-width="2"/>
<path d="M25.5008 5.61443C27.7183 5.61443 29.914 6.05119 31.9626 6.89977C34.0113 7.74835 35.8728 8.99213 37.4407 10.5601C39.0087 12.1281 40.2525 13.9895 41.1011 16.0382C41.9496 18.0868 42.3864 20.2826 42.3864 22.5C42.3864 24.7175 41.9496 26.9132 41.1011 28.9618C40.2525 31.0105 39.0087 32.8719 37.4407 34.4399C35.8728 36.0079 34.0113 37.2517 31.9626 38.1003C29.914 38.9488 27.7183 39.3856 25.5008 39.3856L25.5008 22.5L25.5008 5.61443Z" fill="#195CA7"/>
<g clip-path="url(#clip0_4109_4540)">
<path d="M13.4497 26.309C12.772 26.309 12.1943 26.0701 11.7168 25.5923C11.2393 25.1144 11.0003 24.5367 11 23.8593C10.9997 23.1819 11.2386 22.6042 11.7168 22.1264C12.195 21.6485 12.7726 21.4096 13.4497 21.4096H19.1331L18.1532 20.4297H16.3894V19.4498H18.1409C18.2716 19.4498 18.3962 19.4743 18.5148 19.5233C18.6333 19.5723 18.7374 19.6417 18.8269 19.7315L20.5294 21.4341C21.1664 21.4831 21.6971 21.7403 22.1218 22.2058C22.5464 22.6712 22.7587 23.2224 22.7587 23.8593C22.7587 24.5371 22.5198 25.1149 22.0419 25.5927C21.564 26.0706 20.9864 26.3094 20.309 26.309C19.6315 26.3087 19.0539 26.0698 18.576 25.5923C18.0982 25.1147 17.8592 24.5371 17.8592 23.8593C17.8592 23.7123 17.8695 23.5673 17.8901 23.4242C17.9107 23.2812 17.9494 23.1404 18.0062 23.0019L16.6589 24.3493H15.8505C15.7361 24.9209 15.4544 25.3904 15.0053 25.7579C14.5562 26.1253 14.0377 26.309 13.4497 26.309ZM20.309 25.3292C20.7172 25.3292 21.0643 25.1863 21.3501 24.9005C21.6359 24.6147 21.7788 24.2676 21.7788 23.8593C21.7788 23.451 21.6359 23.104 21.3501 22.8182C21.0643 22.5324 20.7172 22.3895 20.309 22.3895C19.9007 22.3895 19.5536 22.5324 19.2678 22.8182C18.982 23.104 18.8391 23.451 18.8391 23.8593C18.8391 24.2676 18.982 24.6147 19.2678 24.9005C19.5536 25.1863 19.9007 25.3292 20.309 25.3292ZM13.4497 25.3292C13.76 25.3292 14.0398 25.2393 14.289 25.0597C14.5382 24.88 14.7157 24.6432 14.8216 24.3493H13.4497V23.3694H14.8216C14.7154 23.0754 14.5379 22.8386 14.289 22.659C14.0401 22.4793 13.7604 22.3895 13.4497 22.3895C13.0414 22.3895 12.6944 22.5324 12.4086 22.8182C12.1228 23.104 11.9799 23.451 11.9799 23.8593C11.9799 24.2676 12.1228 24.6147 12.4086 24.9005C12.6944 25.1863 13.0414 25.3292 13.4497 25.3292Z" fill="white"/>
</g>
<rect x="25.1152" y="5.61443" width="1" height="35" fill="white"/>
<path d="M34.8712 17.9161C35.2062 17.9158 35.5299 18.0379 35.7812 18.2595C36.0325 18.4811 36.1942 18.7869 36.2358 19.1194C36.2775 19.4518 36.1962 19.7881 36.0073 20.0648C35.8184 20.3416 35.5349 20.5397 35.2101 20.6221L34.0893 23.1834H35.146C35.4751 23.1833 35.7963 23.2845 36.0659 23.4733C36.3355 23.6621 36.5404 23.9293 36.6529 24.2386L37.2556 25.8976L37.4691 26.0039C37.5498 26.0442 37.6218 26.1001 37.6809 26.1683C37.74 26.2365 37.7852 26.3156 37.8137 26.4012C37.8422 26.4868 37.8536 26.5772 37.8472 26.6673C37.8408 26.7573 37.8168 26.8452 37.7764 26.9259C37.7361 27.0066 37.6802 27.0786 37.612 27.1377C37.5438 27.1968 37.4647 27.242 37.3791 27.2705C37.2934 27.299 37.203 27.3104 37.113 27.304C37.023 27.2976 36.9351 27.2736 36.8544 27.2332L36.3964 27.0042C36.239 26.9255 36.1179 26.7894 36.0579 26.624L35.3612 24.7086C35.3452 24.6644 35.3159 24.6263 35.2774 24.5993C35.2389 24.5723 35.193 24.5579 35.146 24.5579H34.0898C33.0991 24.5579 32.434 23.5411 32.8311 22.6333L33.2172 21.7507L32.581 21.4323L31.0558 22.1949C30.975 22.2361 30.8868 22.2608 30.7964 22.2677C30.706 22.2746 30.6151 22.2635 30.529 22.2351C30.4429 22.2068 30.3633 22.1616 30.2947 22.1023C30.2261 22.043 30.17 21.9707 30.1295 21.8895C30.089 21.8084 30.0649 21.7201 30.0587 21.6296C30.0525 21.5392 30.0643 21.4484 30.0933 21.3625C30.1224 21.2766 30.1682 21.1973 30.228 21.1292C30.2879 21.0611 30.3606 21.0055 30.4421 20.9656L32.069 20.1521C32.228 20.0726 32.4033 20.0313 32.581 20.0313C32.7588 20.0313 32.9341 20.0726 33.0931 20.1521L33.7682 20.4897L33.8777 20.2396C33.6917 20.0451 33.567 19.8002 33.5189 19.5354C33.4709 19.2705 33.5017 18.9974 33.6075 18.7499C33.7133 18.5025 33.8895 18.2915 34.1141 18.1433C34.3388 17.995 34.602 17.916 34.8712 17.9161ZM29.9162 22.3869L30.6656 22.9145C30.5061 23.1426 30.3944 23.4007 30.3374 23.6732C30.2803 23.9456 30.2791 24.2268 30.3337 24.4998C30.3883 24.7728 30.4976 25.0318 30.655 25.2614C30.8125 25.491 31.0148 25.6862 31.2498 25.8355C31.4848 25.9847 31.7476 26.0848 32.0223 26.1297C32.297 26.1746 32.578 26.1634 32.8483 26.0967C33.1186 26.03 33.3725 25.9093 33.5949 25.7418C33.8172 25.5744 34.0033 25.3636 34.142 25.1222L34.1887 25.0361L35.004 25.4529C34.82 25.8109 34.5653 26.1279 34.2552 26.3847C33.9452 26.6415 33.5863 26.8328 33.2003 26.9469C32.8143 27.0611 32.4091 27.0958 32.0093 27.0489C31.6095 27.002 31.2233 26.8745 30.8741 26.6741C30.525 26.4737 30.2201 26.2046 29.9779 25.8831C29.7358 25.5615 29.5613 25.1942 29.4651 24.8032C29.3689 24.4123 29.353 24.006 29.4184 23.6088C29.4837 23.2115 29.6289 22.8317 29.8452 22.4922L29.9162 22.3869Z" fill="white"/>
</g>
<defs>
<filter id="filter0_d_4109_4540" x="0.630094" y="0" width="49.7398" height="49.7398" filterUnits="userSpaceOnUse" color-interpolation-filters="sRGB">
<feFlood flood-opacity="0" result="BackgroundImageFix"/>
<feColorMatrix in="SourceAlpha" type="matrix" values="0 0 0 0 0 0 0 0 0 0 0 0 0 0 0 0 0 0 127 0" result="hardAlpha"/>
<feOffset dy="2.36991"/>
<feGaussianBlur stdDeviation="1.18495"/>
<feComposite in2="hardAlpha" operator="out"/>
<feColorMatrix type="matrix" values="0 0 0 0 0 0 0 0 0 0 0 0 0 0 0 0 0 0 0.25 0"/>
<feBlend mode="normal" in2="BackgroundImageFix" result="effect1_dropShadow_4109_4540"/>
<feBlend mode="normal" in="SourceGraphic" in2="effect1_dropShadow_4109_4540" result="shape"/>
</filter>
<clipPath id="clip0_4109_4540">
<rect width="11.7587" height="11.7587" fill="white" transform="translate(11.002 17)"/>
</clipPath>
</defs>
</svg>
