<svg width="51" height="50" viewBox="0 0 51 50" fill="none" xmlns="http://www.w3.org/2000/svg">
<g filter="url(#filter0_d_4109_4512)">
<rect x="3" width="45" height="45" rx="21.9216" fill="#195CA7" shape-rendering="crispEdges"/>
<circle cx="25.5008" cy="22.5" r="17.8856" fill="#195CA7" stroke="white" stroke-width="2"/>
<path d="M25.5008 5.61443C27.7183 5.61443 29.914 6.05119 31.9626 6.89977C34.0113 7.74835 35.8728 8.99213 37.4407 10.5601C39.0087 12.1281 40.2525 13.9895 41.1011 16.0382C41.9496 18.0868 42.3864 20.2826 42.3864 22.5C42.3864 24.7175 41.9496 26.9132 41.1011 28.9618C40.2525 31.0105 39.0087 32.8719 37.4407 34.4399C35.8728 36.0079 34.0113 37.2517 31.9626 38.1003C29.914 38.9488 27.7183 39.3856 25.5008 39.3856L25.5008 22.5L25.5008 5.61443Z" fill="#195CA7"/>
<path fill-rule="evenodd" clip-rule="evenodd" d="M19.3415 18.5743C19.6145 18.5743 19.882 18.6503 20.1142 18.7938C20.3464 18.9373 20.534 19.1426 20.6561 19.3867L21.3352 20.7444C21.4547 20.6954 21.5723 20.6424 21.688 20.5856C21.8043 20.5275 21.9389 20.518 22.0622 20.5592C22.1855 20.6004 22.2874 20.6888 22.3455 20.8051C22.4036 20.9214 22.4131 21.056 22.3719 21.1793C22.3308 21.3027 22.2423 21.4046 22.126 21.4627C22.0082 21.5151 21.8898 21.566 21.7708 21.6155L22.2416 22.5577C22.3438 22.762 22.397 22.9873 22.3969 23.2157V24.4539C22.3969 24.6607 22.3533 24.8652 22.2689 25.0539C22.1844 25.2427 22.0611 25.4116 21.907 25.5494V26.1688C21.907 26.3637 21.8295 26.5506 21.6917 26.6884C21.5539 26.8263 21.367 26.9037 21.172 26.9037C20.9771 26.9037 20.7902 26.8263 20.6523 26.6884C20.5145 26.5506 20.4371 26.3637 20.4371 26.1688V25.9238H14.5575V26.1688C14.5575 26.3637 14.4801 26.5506 14.3423 26.6884C14.2044 26.8263 14.0175 26.9037 13.8226 26.9037C13.6276 26.9037 13.4407 26.8263 13.3029 26.6884C13.1651 26.5506 13.0876 26.3637 13.0876 26.1688V25.5494C12.7868 25.28 12.5977 24.889 12.5977 24.4539V23.2153C12.5977 22.9872 12.6509 22.7622 12.753 22.5582L13.2199 21.6234C13.1017 21.5737 12.9849 21.5203 12.8696 21.4631C12.7539 21.4043 12.6659 21.3023 12.6247 21.1793C12.5834 21.0562 12.5922 20.9218 12.6491 20.8051C12.6778 20.7475 12.7177 20.6961 12.7663 20.6539C12.8149 20.6117 12.8713 20.5795 12.9324 20.5591C12.9934 20.5387 13.0579 20.5306 13.1221 20.5351C13.1864 20.5397 13.2491 20.5568 13.3066 20.5856C13.4226 20.6428 13.5402 20.6957 13.6594 20.7444L14.3385 19.3872C14.4605 19.143 14.6481 18.9376 14.8803 18.794C15.1125 18.6504 15.3801 18.5744 15.6531 18.5743H19.3415ZM15.2925 22.984C15.0975 22.984 14.9106 23.0614 14.7728 23.1993C14.6349 23.3371 14.5575 23.524 14.5575 23.7189C14.5575 23.9139 14.6349 24.1008 14.7728 24.2386C14.9106 24.3765 15.0975 24.4539 15.2925 24.4539C15.4874 24.4539 15.6743 24.3765 15.8121 24.2386C15.95 24.1008 16.0274 23.9139 16.0274 23.7189C16.0274 23.524 15.95 23.3371 15.8121 23.1993C15.6743 23.0614 15.4874 22.984 15.2925 22.984ZM19.7021 22.984C19.5072 22.984 19.3203 23.0614 19.1825 23.1993C19.0446 23.3371 18.9672 23.524 18.9672 23.7189C18.9672 23.9139 19.0446 24.1008 19.1825 24.2386C19.3203 24.3765 19.5072 24.4539 19.7021 24.4539C19.8971 24.4539 20.084 24.3765 20.2218 24.2386C20.3597 24.1008 20.4371 23.9139 20.4371 23.7189C20.4371 23.524 20.3597 23.3371 20.2218 23.1993C20.084 23.0614 19.8971 22.984 19.7021 22.984ZM19.3415 19.5542H15.6531C15.5724 19.5542 15.493 19.5741 15.4219 19.6122C15.3508 19.6502 15.2902 19.7052 15.2454 19.7723L15.215 19.8252L14.5928 21.0687C15.3513 21.2961 16.3733 21.5141 17.4973 21.5141C18.5468 21.5141 19.5066 21.324 20.246 21.1138L20.4013 21.0687L19.7796 19.8252C19.7435 19.7531 19.6902 19.691 19.6244 19.6444C19.5586 19.5978 19.4823 19.5682 19.4023 19.5582L19.342 19.5542H19.3415Z" fill="white"/>
<rect x="25.1152" y="5.61443" width="1" height="35" fill="white"/>
<path d="M35.8712 17.9161C36.2062 17.9158 36.5299 18.0379 36.7812 18.2595C37.0325 18.4811 37.1942 18.7869 37.2358 19.1194C37.2775 19.4518 37.1962 19.7881 37.0073 20.0648C36.8184 20.3416 36.5349 20.5397 36.2101 20.6221L35.0893 23.1834H36.146C36.4751 23.1833 36.7963 23.2845 37.0659 23.4733C37.3355 23.6621 37.5404 23.9293 37.6529 24.2386L38.2556 25.8976L38.4691 26.0039C38.5498 26.0442 38.6218 26.1001 38.6809 26.1683C38.74 26.2365 38.7852 26.3156 38.8137 26.4012C38.8422 26.4868 38.8536 26.5772 38.8472 26.6673C38.8408 26.7573 38.8168 26.8452 38.7764 26.9259C38.7361 27.0066 38.6802 27.0786 38.612 27.1377C38.5438 27.1968 38.4647 27.242 38.3791 27.2705C38.2934 27.299 38.203 27.3104 38.113 27.304C38.023 27.2976 37.9351 27.2736 37.8544 27.2332L37.3964 27.0042C37.239 26.9255 37.1179 26.7894 37.0579 26.624L36.3612 24.7086C36.3452 24.6644 36.3159 24.6263 36.2774 24.5993C36.2389 24.5723 36.193 24.5579 36.146 24.5579H35.0898C34.0991 24.5579 33.434 23.5411 33.8311 22.6333L34.2172 21.7507L33.581 21.4323L32.0558 22.1949C31.975 22.2361 31.8868 22.2608 31.7964 22.2677C31.706 22.2746 31.6151 22.2635 31.529 22.2351C31.4429 22.2068 31.3633 22.1616 31.2947 22.1023C31.2261 22.043 31.17 21.9707 31.1295 21.8895C31.089 21.8084 31.0649 21.7201 31.0587 21.6296C31.0525 21.5392 31.0643 21.4484 31.0933 21.3625C31.1224 21.2766 31.1682 21.1973 31.228 21.1292C31.2879 21.0611 31.3606 21.0055 31.4421 20.9656L33.069 20.1521C33.228 20.0726 33.4033 20.0313 33.581 20.0313C33.7588 20.0313 33.9341 20.0726 34.0931 20.1521L34.7682 20.4897L34.8777 20.2396C34.6917 20.0451 34.567 19.8002 34.5189 19.5354C34.4709 19.2705 34.5017 18.9974 34.6075 18.7499C34.7133 18.5025 34.8895 18.2915 35.1141 18.1433C35.3388 17.995 35.602 17.916 35.8712 17.9161ZM30.9162 22.3869L31.6656 22.9145C31.5061 23.1426 31.3944 23.4007 31.3374 23.6732C31.2803 23.9456 31.2791 24.2268 31.3337 24.4998C31.3883 24.7728 31.4976 25.0318 31.655 25.2614C31.8125 25.491 32.0148 25.6862 32.2498 25.8355C32.4848 25.9847 32.7476 26.0848 33.0223 26.1297C33.297 26.1746 33.578 26.1634 33.8483 26.0967C34.1186 26.03 34.3725 25.9093 34.5949 25.7418C34.8172 25.5744 35.0033 25.3636 35.142 25.1222L35.1887 25.0361L36.004 25.4529C35.82 25.8109 35.5653 26.1279 35.2552 26.3847C34.9452 26.6415 34.5863 26.8328 34.2003 26.9469C33.8143 27.0611 33.4091 27.0958 33.0093 27.0489C32.6095 27.002 32.2233 26.8745 31.8741 26.6741C31.525 26.4737 31.2201 26.2046 30.9779 25.8831C30.7358 25.5615 30.5613 25.1942 30.4651 24.8032C30.3689 24.4123 30.353 24.006 30.4184 23.6088C30.4837 23.2115 30.6289 22.8317 30.8452 22.4922L30.9162 22.3869Z" fill="white"/>
</g>
<defs>
<filter id="filter0_d_4109_4512" x="0.630094" y="0" width="49.7398" height="49.7398" filterUnits="userSpaceOnUse" color-interpolation-filters="sRGB">
<feFlood flood-opacity="0" result="BackgroundImageFix"/>
<feColorMatrix in="SourceAlpha" type="matrix" values="0 0 0 0 0 0 0 0 0 0 0 0 0 0 0 0 0 0 127 0" result="hardAlpha"/>
<feOffset dy="2.36991"/>
<feGaussianBlur stdDeviation="1.18495"/>
<feComposite in2="hardAlpha" operator="out"/>
<feColorMatrix type="matrix" values="0 0 0 0 0 0 0 0 0 0 0 0 0 0 0 0 0 0 0.25 0"/>
<feBlend mode="normal" in2="BackgroundImageFix" result="effect1_dropShadow_4109_4512"/>
<feBlend mode="normal" in="SourceGraphic" in2="effect1_dropShadow_4109_4512" result="shape"/>
</filter>
</defs>
</svg>
