<svg width="43" height="43" viewBox="0 0 43 43" fill="none" xmlns="http://www.w3.org/2000/svg">
<circle cx="21.4998" cy="21.4993" r="19.4754" fill="#E6EBF0" stroke="#E6EBF0" stroke-width="2.17778"/>
<path d="M26.0184 12.8805C26.0184 12.6518 26.1092 12.4326 26.2709 12.2709C26.4326 12.1093 26.6518 12.0184 26.8804 12.0184H30.1131C30.3417 12.0184 30.561 12.1093 30.7226 12.2709C30.8843 12.4326 30.9751 12.6518 30.9751 12.8805V17.1907C30.9751 17.4193 30.8843 17.6385 30.7226 17.8002C30.561 17.9619 30.3417 18.0527 30.1131 18.0527H29.251V30.3367C29.251 30.5082 29.1829 30.6726 29.0617 30.7939C28.9404 30.9151 28.776 30.9832 28.6045 30.9832C28.433 30.9832 28.2686 30.9151 28.1473 30.7939C28.0261 30.6726 27.958 30.5082 27.958 30.3367V18.0527H26.8804C26.6518 18.0527 26.4326 17.9619 26.2709 17.8002C26.1092 17.6385 26.0184 17.4193 26.0184 17.1907V12.8805ZM24.7684 13.7425C24.8995 13.7425 25.0288 13.7514 25.1564 13.7692V15.0873C25.0297 15.054 24.8994 15.0369 24.7684 15.0364H18.2178C17.8813 15.0364 17.5544 15.1489 17.2892 15.356C17.024 15.5631 16.8356 15.853 16.7541 16.1795L16.0714 18.9147H27.0959V27.1041H26.2331L26.2339 28.179C26.2339 28.298 26.3305 28.3946 26.4494 28.3946H27.0959V29.6876H26.4494C26.0493 29.6876 25.6656 29.5287 25.3827 29.2458C25.0998 28.9628 24.9409 28.5791 24.9409 28.179L24.94 27.1041H18.048V28.179C18.048 28.5791 17.8891 28.9628 17.6062 29.2458C17.3232 29.5287 16.9395 29.6876 16.5394 29.6876H15.2429C14.8428 29.6876 14.4591 29.5287 14.1762 29.2458C13.8933 28.9628 13.7344 28.5791 13.7344 28.179V20.8543C13.7344 20.1518 14.1076 19.5363 14.6671 19.1966L14.8455 18.4837H14.3809C14.2247 18.4837 14.0737 18.4271 13.956 18.3244C13.8382 18.2217 13.7617 18.0799 13.7404 17.9251L13.7344 17.8372C13.7344 17.6809 13.791 17.53 13.8937 17.4123C13.9963 17.2945 14.1382 17.2179 14.293 17.1967L14.3809 17.1907H15.1679L15.5007 15.8648C15.6522 15.2586 16.002 14.7205 16.4945 14.3359C16.987 13.9514 17.5939 13.7425 18.2187 13.7425H24.7684ZM16.7541 27.1041H15.0266L15.0274 28.179C15.0274 28.298 15.124 28.3946 15.2429 28.3946H16.5394C16.5966 28.3946 16.6514 28.3718 16.6918 28.3314C16.7322 28.291 16.755 28.2362 16.755 28.179L16.7541 27.1041ZM23.0013 23.2249H19.9824L19.8945 23.2309C19.7397 23.2522 19.5979 23.3288 19.4953 23.4466C19.3926 23.5643 19.3361 23.7152 19.3361 23.8714C19.3361 24.0276 19.3926 24.1786 19.4953 24.2963C19.5979 24.414 19.7397 24.4906 19.8945 24.5119L19.9824 24.518H23.0013L23.0883 24.5119C23.2505 24.4896 23.3981 24.4067 23.5015 24.2798C23.6049 24.1529 23.6563 23.9915 23.6453 23.8282C23.6344 23.6649 23.5619 23.5119 23.4426 23.3999C23.3232 23.2879 23.1658 23.2254 23.0021 23.2249M25.8029 21.5008C25.5743 21.5008 25.355 21.5917 25.1933 21.7533C25.0317 21.915 24.9409 22.1343 24.9409 22.3629C24.9409 22.5915 25.0317 22.8108 25.1933 22.9724C25.355 23.1341 25.5743 23.2249 25.8029 23.2249C26.0315 23.2249 26.2508 23.1341 26.4124 22.9724C26.5741 22.8108 26.6649 22.5915 26.6649 22.3629C26.6649 22.1343 26.5741 21.915 26.4124 21.7533C26.2508 21.5917 26.0315 21.5008 25.8029 21.5008ZM17.1825 21.5008C16.9539 21.5008 16.7346 21.5917 16.573 21.7533C16.4113 21.915 16.3205 22.1343 16.3205 22.3629C16.3205 22.5915 16.4113 22.8108 16.573 22.9724C16.7346 23.1341 16.9539 23.2249 17.1825 23.2249C17.4111 23.2249 17.6304 23.1341 17.7921 22.9724C17.9537 22.8108 18.0446 22.5915 18.0446 22.3629C18.0446 22.1343 17.9537 21.915 17.7921 21.7533C17.6304 21.5917 17.4111 21.5008 17.1825 21.5008Z" fill="#B6C1CC"/>
</svg>
