<svg width="50" height="49" viewBox="0 0 50 49" fill="none" xmlns="http://www.w3.org/2000/svg">
<rect x="0.5" width="49" height="49" rx="7" fill="#E6EBF0"/>
<rect width="22" height="22" transform="translate(14.5 13)" fill="#E6EBF0"/>
<path d="M21.9102 14.7626C20.2142 14.7777 18.5265 15.0192 16.9803 15.3997C17.414 16.0556 18.1478 16.5577 18.9955 16.8978C20.0117 17.3055 21.1748 17.4707 22.0445 17.4263C22.9394 17.3805 24.0969 17.017 24.9992 16.5236C25.4504 16.2769 25.8389 15.9974 26.1014 15.7287C26.2406 15.5861 26.3385 15.45 26.4018 15.3284C25.0752 14.9512 23.6648 14.7756 22.2495 14.7626C22.1364 14.7616 22.0233 14.7616 21.9102 14.7626ZM26.703 16.2183C26.687 16.2353 26.6711 16.2523 26.6546 16.2691C26.3157 16.6161 25.8713 16.9283 25.3704 17.2022C24.3686 17.7501 23.1458 18.1444 22.0839 18.1987C21.0859 18.2497 19.8428 18.0712 18.7074 17.6157C17.93 17.3037 17.1954 16.8572 16.6552 16.2461C15.9541 21.8885 15.3321 28.1752 16.2201 33.3247C17.0622 33.5895 17.9815 33.7899 18.9275 33.9241V31.1758H21.6775V28.4258H26.4022C26.4012 28.2963 26.4087 28.1553 26.4231 27.9974C26.4643 27.5442 26.5613 26.9653 26.6954 26.3213C26.9278 25.2055 27.2717 23.9014 27.6385 22.7913C27.4258 20.6801 27.1172 18.4568 26.703 16.2183ZM33.2635 16.2436C33.2245 16.2437 33.1806 16.2482 33.1402 16.2495L30.6932 19.3123C31.0237 19.4185 31.3205 19.6297 31.5371 19.9161L33.9119 17.0782C33.9506 16.9897 33.952 16.7425 33.8184 16.55C33.7139 16.3994 33.562 16.273 33.3006 16.2453C33.289 16.2441 33.2766 16.2436 33.2635 16.2436ZM30.277 20.0138C30.2038 20.1023 30.1421 20.1997 30.0931 20.3036C29.9277 20.6585 29.8989 21.0371 29.9292 21.3611L29.9301 21.3707L30.0808 22.4195C30.0025 22.4268 29.9243 22.4352 29.8462 22.4446C29.3671 22.5032 28.8411 22.6116 28.4796 22.7283C28.0875 23.8588 27.7008 25.2872 27.4526 26.479C27.3223 27.1047 27.23 27.6653 27.1933 28.0674C27.1818 28.1939 27.1853 28.2675 27.1846 28.3565C27.2851 28.3048 27.4015 28.2392 27.5424 28.1472C27.9581 27.8758 28.5093 27.4503 29.0948 26.9628C30.192 26.0493 31.4025 24.9261 32.1885 24.1348C32.0603 23.8072 31.8356 23.4368 31.589 23.1243C31.3019 22.7604 30.9664 22.4736 30.8787 22.4193C30.8763 22.4196 30.8675 22.4182 30.8619 22.4176L30.6993 21.2865C30.6801 21.0755 30.7095 20.812 30.7942 20.6304C30.8361 20.5405 30.8806 20.4702 30.9428 20.4176C30.7775 20.1864 30.525 20.0355 30.277 20.0138ZM30.7009 26.4492V28.4258H35.4275V26.4492H30.7009ZM22.4509 29.1992V31.1758H27.1775V29.1992H22.4509ZM27.9509 29.1992V31.1758H32.6775V29.1992H27.9509ZM33.4509 29.1992V31.1758H35.4275V29.1992H33.4509ZM19.7009 31.9492V33.9258H24.4275V31.9492H19.7009ZM25.2009 31.9492V33.9258H29.9275V31.9492H25.2009ZM30.7009 31.9492V33.9258H35.4275V31.9492H30.7009Z" fill="#B6C1CC"/>
</svg>
