<svg width="51" height="49" viewBox="0 0 51 49" fill="none" xmlns="http://www.w3.org/2000/svg">
<rect x="1" width="49" height="49" rx="7" fill="#E6EBF0"/>
<path d="M37.1667 33.75V21.4108C37.1667 19.9787 37.1667 19.2615 36.794 18.7068C36.4213 18.1522 35.7616 17.8857 34.4432 17.3527L27.9432 14.731C27.148 14.4103 26.7515 14.25 26.3333 14.25C25.9152 14.25 25.5187 14.4103 24.7235 14.731L18.2235 17.3527C16.9051 17.8857 16.2453 18.1522 15.8727 18.7068C15.5 19.2615 15.5 19.9787 15.5 21.4108V33.75" stroke="#B6C1CC" stroke-width="1.77273" stroke-linecap="round" stroke-linejoin="round"/>
<g clip-path="url(#clip0_5425_5555)">
<path fill-rule="evenodd" clip-rule="evenodd" d="M28.5637 22.8184C28.8929 22.8184 29.2156 22.91 29.4956 23.0831C29.7757 23.2561 30.002 23.5038 30.1493 23.7982L30.9683 25.4357C31.1125 25.3766 31.2543 25.3128 31.3938 25.2443C31.5341 25.1742 31.6965 25.1627 31.8452 25.2124C31.9939 25.262 32.1168 25.3687 32.1869 25.509C32.2569 25.6493 32.2684 25.8117 32.2188 25.9604C32.1691 26.1091 32.0624 26.232 31.9221 26.3021C31.7801 26.3653 31.6373 26.4268 31.4937 26.4865L32.0616 27.6229C32.1849 27.8693 32.249 28.141 32.2489 28.4165V29.9099C32.2489 30.1593 32.1963 30.406 32.0945 30.6337C31.9926 30.8614 31.8439 31.065 31.658 31.2313V31.9783C31.658 32.2134 31.5646 32.4389 31.3983 32.6051C31.2321 32.7713 31.0066 32.8647 30.7715 32.8647C30.5364 32.8647 30.311 32.7713 30.1447 32.6051C29.9785 32.4389 29.8851 32.2134 29.8851 31.9783V31.6828H22.7935V31.9783C22.7935 32.2134 22.7001 32.4389 22.5339 32.6051C22.3677 32.7713 22.1422 32.8647 21.9071 32.8647C21.672 32.8647 21.4465 32.7713 21.2803 32.6051C21.114 32.4389 21.0207 32.2134 21.0207 31.9783V31.2313C20.6578 30.9063 20.4297 30.4347 20.4297 29.9099V28.416C20.4298 28.1408 20.4939 27.8695 20.617 27.6235L21.1802 26.4959C21.0376 26.436 20.8967 26.3716 20.7577 26.3027C20.6181 26.2317 20.512 26.1087 20.4623 25.9603C20.4125 25.8118 20.4231 25.6497 20.4917 25.509C20.5264 25.4395 20.5744 25.3776 20.633 25.3267C20.6917 25.2757 20.7598 25.2369 20.8334 25.2123C20.9071 25.1877 20.9848 25.1779 21.0623 25.1834C21.1397 25.1888 21.2154 25.2095 21.2848 25.2443C21.4247 25.3132 21.5665 25.377 21.7103 25.4357L22.5294 23.7988C22.6766 23.5042 22.9028 23.2565 23.1829 23.0833C23.4629 22.9102 23.7857 22.8184 24.1149 22.8184H28.5637ZM23.68 28.137C23.4449 28.137 23.2194 28.2304 23.0532 28.3967C22.8869 28.5629 22.7935 28.7884 22.7935 29.0235C22.7935 29.2586 22.8869 29.484 23.0532 29.6503C23.2194 29.8165 23.4449 29.9099 23.68 29.9099C23.9151 29.9099 24.1406 29.8165 24.3068 29.6503C24.473 29.484 24.5664 29.2586 24.5664 29.0235C24.5664 28.7884 24.473 28.5629 24.3068 28.3967C24.1406 28.2304 23.9151 28.137 23.68 28.137ZM28.9986 28.137C28.7635 28.137 28.5381 28.2304 28.3718 28.3967C28.2056 28.5629 28.1122 28.7884 28.1122 29.0235C28.1122 29.2586 28.2056 29.484 28.3718 29.6503C28.5381 29.8165 28.7635 29.9099 28.9986 29.9099C29.2337 29.9099 29.4592 29.8165 29.6255 29.6503C29.7917 29.484 29.8851 29.2586 29.8851 29.0235C29.8851 28.7884 29.7917 28.5629 29.6255 28.3967C29.4592 28.2304 29.2337 28.137 28.9986 28.137ZM28.5637 24.0003H24.1149C24.0177 24.0003 23.9219 24.0243 23.8361 24.0701C23.7504 24.116 23.6772 24.1824 23.6232 24.2633L23.5866 24.3271L22.8361 25.827C23.7509 26.1012 24.9836 26.3641 26.3393 26.3641C27.6052 26.3641 28.7629 26.1348 29.6546 25.8813L29.8419 25.827L29.092 24.3271C29.0485 24.2401 28.9842 24.1652 28.9049 24.109C28.8255 24.0528 28.7335 24.0171 28.637 24.005L28.5643 24.0003H28.5637Z" fill="#B6C1CC"/>
</g>
<defs>
<clipPath id="clip0_5425_5555">
<rect width="14.1818" height="14.1818" fill="white" transform="translate(19.2461 20.4545)"/>
</clipPath>
</defs>
</svg>
