<svg width="50" height="49" viewBox="0 0 50 49" fill="none" xmlns="http://www.w3.org/2000/svg">
<rect x="0.5" width="49" height="49" rx="7" fill="#E6EBF0"/>
<path d="M27.6533 18.6794L23.563 22.8299L22.4059 26.5602L23.1595 28.1382L24.0368 28.5372L25.4626 26.1704L25.948 26.0153L28.6013 27.169L29.4719 26.6105L29.664 24.7328L30.1547 27.0373L29.6983 27.6459L29.8603 27.7163L30.0854 27.9956L30.379 29.4713L32.7842 26.6021L33.3849 26.6119L34.3473 27.8398L33.9411 25.5949L32.6498 21.1676L27.6534 18.6794H27.6533ZM19.3123 19.1947L18.0435 21.4336L17.8457 22.6204L18.962 22.2576L19.4649 22.5746L19.4685 22.6018L20.6843 25.1742L21.2761 24.979L21.7462 25.1795L21.9147 25.5323L22.7533 22.8288L22.7072 21.3964L20.982 21.374L19.7045 20.3522L21.168 20.8201L22.9937 20.488L24.1124 21.1704L25.6714 19.5885C25.5492 19.5364 25.4263 19.4859 25.3027 19.4372L21.8832 19.8723L21.7316 19.8616L19.3122 19.1947H19.3123ZM30.0257 20.7597L32.0477 23.5965L32.1383 26.2825L31.0519 23.7174L28.2451 21.1219L30.0257 20.7597ZM18.7593 23.1368L15.9993 24.0338L15.2812 27.4091L17.4638 27.6489L17.4894 27.3421L19.1077 25.7649L18.7593 23.1369V23.1368ZM21.1951 25.8202L19.6293 26.3365L18.2696 27.6616L19.2402 28.9879L21.7034 29.0627L22.4124 28.3683L21.1951 25.8202ZM25.9503 26.8596L24.0465 30.0198L24.0451 32.475L28.2244 32.9999L30.1254 32.1608L29.3663 28.3449L25.9503 26.8596ZM33.0705 27.4647L31.0577 29.8656L31.07 29.9418L33.8693 30.5385L34.9771 29.8972L33.0705 27.4646L33.0705 27.4647ZM27.1244 28.1474L28.81 29.1289L29.3863 31.3056L28.2338 32.3299L26.2996 32.2202L27.9566 31.0067L28.0633 29.321L27.1244 28.1474ZM16.8819 30.4608L16.5051 31.6858L17.0702 33.7697L20.982 33.258L21.0387 32.1228L18.3496 30.748L16.882 30.4608L16.8819 30.4608Z" fill="#B6C1CC"/>
</svg>
