<svg width="49" height="49" viewBox="0 0 49 49" fill="none" xmlns="http://www.w3.org/2000/svg">
<rect width="49" height="49" rx="23.8702" fill="#E6EBF0"/>
<circle cx="24.4998" cy="24.5001" r="19.4754" fill="#E6EBF0" stroke="#E6EBF0" stroke-width="2.17778"/>
<g clip-path="url(#clip0_5425_5445)">
<path d="M25.8628 12.9316C25.8628 13.148 25.7787 13.3448 25.6411 13.491L26.7125 14.8304C26.7271 14.8486 26.7475 14.8614 26.7703 14.8664C26.7931 14.8715 26.817 14.8686 26.8379 14.8581L27.92 14.3167C27.8966 14.1982 27.8997 14.076 27.9291 13.9589C27.9585 13.8418 28.0135 13.7327 28.0901 13.6393C28.1667 13.5459 28.263 13.4707 28.3721 13.4189C28.4812 13.3672 28.6004 13.3402 28.7211 13.3399C28.9219 13.34 29.1156 13.414 29.2653 13.5478C29.4149 13.6816 29.5101 13.8659 29.5325 14.0654C29.5549 14.2649 29.5031 14.4657 29.3869 14.6294C29.2706 14.7931 29.0982 14.9083 28.9024 14.9529L28.1658 18.8823C28.135 19.046 28.048 19.1939 27.9197 19.3003C27.7915 19.4067 27.6301 19.465 27.4634 19.4649H22.6288C22.4621 19.465 22.3007 19.4067 22.1725 19.3003C22.0442 19.1939 21.9572 19.046 21.9264 18.8823L21.1898 14.9529C21.0333 14.9172 20.8907 14.8361 20.78 14.7198C20.6692 14.6036 20.5952 14.4572 20.5672 14.2991C20.5392 14.141 20.5584 13.9782 20.6224 13.8309C20.6865 13.6837 20.7925 13.5586 20.9273 13.4713C21.062 13.3839 21.2195 13.3383 21.3801 13.34C21.5406 13.3417 21.6971 13.3907 21.83 13.4809C21.9628 13.5711 22.0662 13.6984 22.127 13.847C22.1879 13.9956 22.2037 14.1588 22.1723 14.3163L23.2543 14.8577C23.2753 14.8681 23.2991 14.8711 23.3219 14.866C23.3448 14.861 23.3651 14.8482 23.3797 14.83L24.4512 13.4906C24.3599 13.3935 24.2937 13.2756 24.2585 13.1471C24.2233 13.0186 24.22 12.8834 24.2491 12.7533C24.2781 12.6233 24.3385 12.5023 24.425 12.4009C24.5115 12.2996 24.6215 12.2209 24.7454 12.1719C24.8693 12.1228 25.0033 12.1048 25.1358 12.1194C25.2683 12.1341 25.3951 12.1809 25.5053 12.2558C25.6155 12.3308 25.7057 12.4315 25.768 12.5493C25.8303 12.6671 25.8629 12.7984 25.8628 12.9316ZM25.0461 17.8316C25.2627 17.8316 25.4704 17.7456 25.6236 17.5924C25.7767 17.4393 25.8628 17.2315 25.8628 17.0149C25.8628 16.7984 25.7767 16.5906 25.6236 16.4375C25.4704 16.2843 25.2627 16.1983 25.0461 16.1983C24.8295 16.1983 24.6218 16.2843 24.4686 16.4375C24.3155 16.5906 24.2294 16.7984 24.2294 17.0149C24.2294 17.2315 24.3155 17.4393 24.4686 17.5924C24.6218 17.7456 24.8295 17.8316 25.0461 17.8316Z" fill="#B6C1CC"/>
</g>
<path fill-rule="evenodd" clip-rule="evenodd" d="M27.7112 20.864C28.1904 20.8641 28.6601 20.9975 29.0677 21.2494C29.4754 21.5013 29.8048 21.8617 30.0192 22.2903L31.2114 24.674C31.4213 24.5879 31.6278 24.495 31.8308 24.3953C32.035 24.2933 32.2713 24.2766 32.4878 24.3489C32.7043 24.4211 32.8832 24.5764 32.9852 24.7806C33.0872 24.9848 33.1039 25.2212 33.0316 25.4377C32.9593 25.6542 32.804 25.8331 32.5998 25.9351C32.3931 26.0271 32.1852 26.1165 31.9762 26.2034L32.8028 27.8577C32.9823 28.2163 33.0756 28.6119 33.0755 29.0129V31.1867C33.0755 31.5498 32.9989 31.9088 32.8507 32.2402C32.7024 32.5717 32.4859 32.8681 32.2153 33.1102V34.1975C32.2153 34.5397 32.0794 34.8679 31.8374 35.1099C31.5954 35.3519 31.2672 35.4878 30.925 35.4878C30.5828 35.4878 30.2546 35.3519 30.0126 35.1099C29.7706 34.8679 29.6346 34.5397 29.6346 34.1975V33.7674H19.312V34.1975C19.312 34.5397 19.176 34.8679 18.9341 35.1099C18.6921 35.3519 18.3639 35.4878 18.0216 35.4878C17.6794 35.4878 17.3512 35.3519 17.1092 35.1099C16.8673 34.8679 16.7313 34.5397 16.7313 34.1975V33.1102C16.2031 32.637 15.8711 31.9506 15.8711 31.1867V29.0121C15.8713 28.6116 15.9646 28.2167 16.1438 27.8585L16.9636 26.2172C16.756 26.13 16.551 26.0363 16.3485 25.9359C16.1454 25.8326 15.9909 25.6536 15.9185 25.4375C15.8461 25.2214 15.8615 24.9855 15.9614 24.7806C16.0119 24.6795 16.0818 24.5893 16.1671 24.5152C16.2524 24.4411 16.3516 24.3845 16.4588 24.3487C16.566 24.3129 16.6792 24.2986 16.7919 24.3066C16.9047 24.3146 17.0147 24.3447 17.1158 24.3953C17.3194 24.4956 17.5259 24.5885 17.7352 24.674L18.9275 22.2912C19.1417 21.8624 19.4711 21.5018 19.8787 21.2498C20.2864 20.9977 20.7562 20.8641 21.2354 20.864H27.7112ZM20.6023 28.606C20.2601 28.606 19.9319 28.742 19.6899 28.984C19.4479 29.226 19.312 29.5542 19.312 29.8964C19.312 30.2386 19.4479 30.5668 19.6899 30.8088C19.9319 31.0508 20.2601 31.1867 20.6023 31.1867C20.9445 31.1867 21.2727 31.0508 21.5147 30.8088C21.7567 30.5668 21.8926 30.2386 21.8926 29.8964C21.8926 29.5542 21.7567 29.226 21.5147 28.984C21.2727 28.742 20.9445 28.606 20.6023 28.606ZM28.3443 28.606C28.0021 28.606 27.6739 28.742 27.4319 28.984C27.1899 29.226 27.054 29.5542 27.054 29.8964C27.054 30.2386 27.1899 30.5668 27.4319 30.8088C27.6739 31.0508 28.0021 31.1867 28.3443 31.1867C28.6865 31.1867 29.0147 31.0508 29.2567 30.8088C29.4987 30.5668 29.6346 30.2386 29.6346 29.8964C29.6346 29.5542 29.4987 29.226 29.2567 28.984C29.0147 28.742 28.6865 28.606 28.3443 28.606ZM27.7112 22.5845H21.2354C21.0939 22.5845 20.9545 22.6194 20.8296 22.6862C20.7048 22.7529 20.5983 22.8495 20.5197 22.9673L20.4664 23.0602L19.3739 25.2434C20.7055 25.6426 22.5 26.0254 24.4733 26.0254C26.3159 26.0254 28.0011 25.6916 29.2992 25.3226L29.5719 25.2434L28.4802 23.0602C28.4169 22.9336 28.3233 22.8245 28.2078 22.7428C28.0923 22.661 27.9583 22.609 27.8179 22.5914L27.7121 22.5845H27.7112Z" fill="#B6C1CC"/>
<defs>
<clipPath id="clip0_5425_5445">
<rect width="9.8" height="9.8" fill="white" transform="translate(20.1406 10.8893)"/>
</clipPath>
</defs>
</svg>
