<svg width="50" height="49" viewBox="0 0 50 49" fill="none" xmlns="http://www.w3.org/2000/svg">
<rect x="0.5" width="49" height="49" rx="7" fill="#E6EBF0"/>
<g clip-path="url(#clip0_5425_5587)">
<path d="M14 29.371L24.6133 35.3866V30.2303L14 25.5038V29.371ZM36 25.5046L25.3867 30.2303V35.3866L36 29.3931V25.5046ZM33.5578 25.9413L35.2233 25.2048L31.5672 23.8192L31.2288 24.7337C31.896 25.0289 32.6919 25.4507 33.5578 25.9413ZM29.3547 14.6135L28.6632 16.555C28.5097 17.092 28.785 17.9152 29.669 18.0879L28.5169 21.3024C27.5805 20.9112 26.7447 21.1808 26.2424 21.7248L24.9795 21.2398L14.776 25.2033L16.4383 25.9292C19.1695 24.3015 22.4005 23.1781 25.4946 23.3557L25.0461 24.5604C23.8711 24.5952 22.8663 24.8903 21.9854 25.3747C25.0591 24.88 28.2609 25.7017 30.6288 26.919C30.5716 26.64 30.4146 26.387 30.1527 26.1365L30.9904 23.7625C31.243 23.0843 31.0436 21.8011 29.4744 21.5684L30.6313 18.3635C31.7154 18.6364 32.3606 17.9302 32.513 17.4629L33.1446 15.6641L29.3547 14.6135ZM31.5141 17.218C31.4828 17.3484 31.2531 17.4551 31.0709 17.3744L29.9395 17.0564C29.7193 16.9698 29.634 16.835 29.7049 16.6445L29.9708 15.8938L31.8164 16.4099L31.5141 17.218Z" fill="#B6C1CC"/>
</g>
<defs>
<clipPath id="clip0_5425_5587">
<rect width="22" height="22" fill="white" transform="translate(14 14)"/>
</clipPath>
</defs>
</svg>
