<svg width="51" height="49" viewBox="0 0 51 49" fill="none" xmlns="http://www.w3.org/2000/svg">
<rect x="1" width="49" height="49" rx="7" fill="#E6EBF0"/>
<path d="M22.565 15.4667L23.2983 16.9333H30.6317L31.365 15.4667H22.565ZM23.2983 17.6667V19.5C23.2983 19.5 23.2983 23.5333 26.965 23.5333C30.6317 23.5333 30.6317 19.5 30.6317 19.5V17.6667H23.2983ZM17.4082 19.8461C17.0197 19.8523 16.6495 20.0124 16.379 20.2912C16.1084 20.57 15.9595 20.9448 15.965 21.3333V27.2C15.9648 27.4197 16.014 27.6367 16.1089 27.8349C16.2039 28.0331 16.3421 28.2074 16.5135 28.3449C16.6848 28.4825 16.8849 28.5798 17.0989 28.6297C17.3129 28.6795 17.5354 28.6806 17.7499 28.6329L21.8317 27.7236V34.5333L30.4542 24.3693C30.2459 24.3055 30.0297 24.2709 29.8118 24.2667H24.0317L18.8983 25.3725V21.3333C18.9011 21.137 18.8644 20.9421 18.7905 20.7603C18.7165 20.5784 18.6068 20.4132 18.4679 20.2745C18.3289 20.1358 18.1635 20.0264 17.9815 19.9528C17.7994 19.8793 17.6045 19.843 17.4082 19.8461ZM31.7287 25.3095L23.9026 34.5333H32.0983V26.5532C32.0983 26.0927 31.9605 25.6673 31.7287 25.3095Z" fill="#B6C1CC"/>
</svg>
