<svg width="43" height="43" viewBox="0 0 43 43" fill="none" xmlns="http://www.w3.org/2000/svg">
<circle cx="21.4881" cy="21.5014" r="19.4754" fill="#E6EBF0" stroke="#E6EBF0" stroke-width="2.17778"/>
<g clip-path="url(#clip0_5425_5492)">
<path fill-rule="evenodd" clip-rule="evenodd" d="M20.3802 11.157H16.3163C16.1492 11.1571 15.987 11.2138 15.8563 11.318C15.7256 11.4221 15.6341 11.5675 15.5966 11.7304L11.1633 30.9415C11.1384 31.0497 11.1383 31.1622 11.1628 31.2705C11.1874 31.3788 11.2361 31.4802 11.3052 31.5671C11.3744 31.654 11.4623 31.7242 11.5623 31.7724C11.6623 31.8207 11.7719 31.8458 11.883 31.8459H20.3802V28.6627C20.3802 28.3688 20.497 28.0869 20.7048 27.879C20.9127 27.6712 21.1946 27.5544 21.4885 27.5544C21.7825 27.5544 22.0644 27.6712 22.2723 27.879C22.4801 28.0869 22.5969 28.3688 22.5969 28.6627V31.8459H31.0941C31.2052 31.8458 31.3148 31.8207 31.4148 31.7724C31.5148 31.7242 31.6027 31.654 31.6718 31.5671C31.741 31.4802 31.7897 31.3788 31.8142 31.2705C31.8388 31.1622 31.8386 31.0497 31.8138 30.9415L27.3804 11.7304C27.343 11.5675 27.2515 11.4221 27.1207 11.318C26.99 11.2138 26.8279 11.1571 26.6608 11.157H22.5969V14.3401C22.5969 14.6341 22.4801 14.916 22.2723 15.1238C22.0644 15.3317 21.7825 15.4484 21.4885 15.4484C21.1946 15.4484 20.9127 15.3317 20.7048 15.1238C20.497 14.916 20.3802 14.6341 20.3802 14.3401V11.157ZM21.4885 18.8015C21.7825 18.8015 22.0644 18.9183 22.2723 19.1261C22.4801 19.334 22.5969 19.6159 22.5969 19.9099V23.093C22.5969 23.3869 22.4801 23.6689 22.2723 23.8767C22.0644 24.0846 21.7825 24.2013 21.4885 24.2013C21.1946 24.2013 20.9127 24.0846 20.7048 23.8767C20.497 23.6689 20.3802 23.3869 20.3802 23.093V19.9099C20.3802 19.6159 20.497 19.334 20.7048 19.1261C20.9127 18.9183 21.1946 18.8015 21.4885 18.8015Z" fill="#B6C1CC"/>
</g>
<defs>
<clipPath id="clip0_5425_5492">
<rect width="20.6889" height="20.6889" fill="white" transform="translate(11.1484 11.1572)"/>
</clipPath>
</defs>
</svg>
