<svg width="99" height="99" viewBox="0 0 99 99" fill="none" xmlns="http://www.w3.org/2000/svg">
<circle opacity="0.8" cx="39.8268" cy="39.8263" r="31.8219" fill="#0078FF" fill-opacity="0.12"/>
<rect opacity="0.8" x="64.041" y="16.634" width="10.7871" height="65.128" transform="rotate(41.4423 64.041 16.634)" fill="white"/>
<path opacity="0.78" d="M27.7588 29.1736C27.7524 29.3195 27.7771 29.4651 27.8315 29.6015C27.8859 29.7379 27.9687 29.8622 28.075 29.9668C28.1813 30.0713 28.3088 30.1538 28.4495 30.2094C28.5903 30.2649 28.7414 30.2922 28.8936 30.2896H32.7782C33.428 30.2896 33.9459 29.779 34.0307 29.16C34.4545 26.1959 36.5734 24.0362 40.3497 24.0362C43.5798 24.0362 46.5368 25.586 46.5368 29.3136C46.5368 32.1828 44.7758 33.5022 41.993 35.5083C38.8241 37.7178 36.3144 40.2978 36.4933 44.4863L36.5074 45.4668C36.5124 45.7633 36.6386 46.046 36.8588 46.2539C37.079 46.4619 37.3756 46.5784 37.6846 46.5783H41.5033C41.8155 46.5783 42.1149 46.4593 42.3357 46.2475C42.5564 46.0357 42.6804 45.7483 42.6804 45.4487V44.9743C42.6804 41.7301 43.9659 40.7858 47.4361 38.26C50.3037 36.168 53.2937 33.8456 53.2937 28.9702C53.2937 22.143 47.2855 18.8445 40.7075 18.8445C34.7417 18.8445 28.2061 21.5104 27.7588 29.1736ZM35.0901 55.213C35.0901 57.6213 37.0913 59.4015 39.8458 59.4015C42.7134 59.4015 44.6863 57.6213 44.6863 55.213C44.6863 52.7188 42.7087 50.9657 39.8411 50.9657C37.0913 50.9657 35.0901 52.7188 35.0901 55.213Z" fill="#0078FF" fill-opacity="0.82"/>
<path d="M94 94L64.3333 64.3333M5 39.6111C5 44.1563 5.89524 48.657 7.63461 52.8562C9.37399 57.0554 11.9234 60.8709 15.1374 64.0849C18.3513 67.2988 22.1668 69.8482 26.366 71.5876C30.5652 73.327 35.0659 74.2222 39.6111 74.2222C44.1563 74.2222 48.657 73.327 52.8562 71.5876C57.0554 69.8482 60.8709 67.2988 64.0849 64.0849C67.2988 60.8709 69.8482 57.0554 71.5876 52.8562C73.327 48.657 74.2222 44.1563 74.2222 39.6111C74.2222 35.0659 73.327 30.5652 71.5876 26.366C69.8482 22.1668 67.2988 18.3513 64.0849 15.1374C60.8709 11.9234 57.0554 9.37398 52.8562 7.63461C48.657 5.89524 44.1563 5 39.6111 5C35.0659 5 30.5652 5.89524 26.366 7.63461C22.1668 9.37398 18.3513 11.9234 15.1374 15.1374C11.9234 18.3513 9.37399 22.1668 7.63461 26.366C5.89524 30.5652 5 35.0659 5 39.6111Z" stroke="#0078FF" stroke-opacity="0.72" stroke-width="8.32543" stroke-linecap="round" stroke-linejoin="round"/>
</svg>
