<svg width="82" height="82" viewBox="0 0 82 82" fill="none" xmlns="http://www.w3.org/2000/svg">
<rect width="82" height="82" rx="41" fill="#F5F5F5"/>
<path d="M26.6805 22.6206C26.2642 22.2122 25.7137 21.9898 25.1448 22.0004C24.5759 22.0109 24.0332 22.2536 23.6308 22.6773C23.2285 23.101 22.9981 23.6726 22.988 24.2717C22.978 24.8708 23.1892 25.4506 23.577 25.889L37.5776 40.6366C37.6225 41.3857 37.9253 42.0918 38.4293 42.6225C38.9333 43.1533 39.6038 43.4722 40.3151 43.5195L54.3186 58.264C54.5196 58.4912 54.762 58.6734 55.0314 58.7998C55.3007 58.9262 55.5915 58.9942 55.8863 58.9996C56.1812 59.0051 56.474 58.948 56.7474 58.8317C57.0209 58.7154 57.2692 58.5423 57.4777 58.3227C57.6863 58.1031 57.8506 57.8415 57.9611 57.5536C58.0715 57.2656 58.1257 56.9572 58.1205 56.6467C58.1153 56.3362 58.0508 56.03 57.9308 55.7463C57.8108 55.4627 57.6377 55.2074 57.422 54.9956L43.4214 40.2481C43.3765 39.499 43.0737 38.7929 42.5697 38.2621C42.0658 37.7314 41.3953 37.4124 40.684 37.3651L26.6805 22.6206ZM26.0071 55.7048C22.9776 52.5163 20.9728 48.4083 20.2743 43.958C19.5759 39.5077 20.219 34.9388 22.1132 30.8932L25.4508 34.399C24.3436 37.4564 24.1001 40.7859 24.7494 43.9859C25.3988 47.1859 26.9134 50.1196 29.1105 52.4334C29.3263 52.6451 29.4993 52.9004 29.6193 53.1841C29.7393 53.4677 29.8039 53.774 29.8091 54.0845C29.8143 54.395 29.76 54.7034 29.6496 54.9913C29.5391 55.2793 29.3748 55.5408 29.1663 55.7604C28.9577 55.98 28.7094 56.1531 28.4359 56.2694C28.1625 56.3857 27.8697 56.4429 27.5748 56.4374C27.28 56.4319 26.9892 56.3639 26.7199 56.2376C26.4505 56.1112 26.2081 55.932 26.0071 55.7048ZM32.4774 48.8906C31.1983 47.5456 30.2434 45.8978 29.6923 44.0848C29.1412 42.2718 29.01 40.3463 29.3096 38.469L34.2634 43.686C34.5913 44.3828 35.0305 45.0396 35.5809 45.6192C35.7907 45.8324 35.9581 46.0875 36.0733 46.3696C36.1885 46.6517 36.2492 46.9551 36.2519 47.2622C36.2545 47.5692 36.1991 47.8737 36.0888 48.158C35.9786 48.4422 35.8156 48.7005 35.6096 48.9177C35.4035 49.135 35.1584 49.3068 34.8886 49.4232C34.6188 49.5396 34.3297 49.5983 34.0381 49.5958C33.7465 49.5932 33.4584 49.5296 33.1904 49.4085C32.9225 49.2875 32.6801 49.1114 32.4774 48.8906ZM54.992 25.1798C58.0221 28.3686 60.0273 32.4772 60.7257 36.9281C61.4242 41.379 60.7807 45.9485 58.8859 49.9945L55.5482 46.4826C56.6548 43.4255 56.898 40.0967 56.2487 36.8973C55.5993 33.698 54.0851 30.7647 51.8885 28.4512C51.5007 28.0129 51.2895 27.4331 51.2995 26.834C51.3096 26.2349 51.54 25.6633 51.9423 25.2396C52.3446 24.8159 52.8874 24.5732 53.4563 24.5626C54.0251 24.552 54.5757 24.7744 54.992 25.1829M48.5216 31.994C49.8007 33.339 50.7556 34.9869 51.3067 36.7999C51.8578 38.6128 51.989 40.5384 51.6894 42.4156L46.7357 37.1986C46.3984 36.4836 45.9535 35.8307 45.4182 35.2654C45.018 34.8295 44.7964 34.2454 44.8011 33.6391C44.8058 33.0328 45.0365 32.4526 45.4434 32.0237C45.8504 31.5947 46.401 31.3512 46.9768 31.3457C47.5525 31.3401 48.1073 31.5729 48.5216 31.994Z" fill="#0078FF"/>
</svg>
