<svg width="65" height="65" viewBox="0 0 65 65" fill="none" xmlns="http://www.w3.org/2000/svg">
<rect width="65" height="65" rx="31.1774" fill="white"/>
<circle cx="32.3373" cy="32.501" r="24.015" fill="#4CD9CC"/>
<path d="M29.2107 36.5228V33.4339H33.0441C33.9107 33.4339 34.5848 33.2154 35.0663 32.7784C35.5552 32.3413 35.7996 31.708 35.7996 30.8784V30.8561C35.7996 30.0191 35.5552 29.3858 35.0663 28.9561C34.5848 28.5265 33.9107 28.3117 33.0441 28.3117H29.2107V25.1784H34.0218C35.2218 25.1784 36.2626 25.4154 37.1441 25.8895C38.0255 26.3561 38.707 27.0154 39.1885 27.8672C39.6774 28.7117 39.9218 29.708 39.9218 30.8561V30.8784C39.9218 32.0191 39.6774 33.0154 39.1885 33.8672C38.707 34.7117 38.0255 35.3672 37.1441 35.8339C36.2626 36.2932 35.2218 36.5228 34.0218 36.5228H29.2107ZM27.1663 41.2117V25.1784H31.2441V41.2117H27.1663Z" fill="white"/>
</svg>
