<svg width="22" height="18" viewBox="0 0 22 18" fill="none" xmlns="http://www.w3.org/2000/svg">
<path fill-rule="evenodd" clip-rule="evenodd" d="M17 6.75C17.5967 6.75 18.169 6.51295 18.591 6.09099C19.0129 5.66903 19.25 5.09674 19.25 4.5C19.25 3.90326 19.0129 3.33097 18.591 2.90901C18.169 2.48705 17.5967 2.25 17 2.25C16.4033 2.25 15.831 2.48705 15.409 2.90901C14.9871 3.33097 14.75 3.90326 14.75 4.5C14.75 5.09674 14.9871 5.66903 15.409 6.09099C15.831 6.51295 16.4033 6.75 17 6.75ZM17 9C17.8416 8.99993 18.6664 8.76383 19.3806 8.31852C20.0947 7.87321 20.6697 7.23654 21.0402 6.48083C21.4107 5.72512 21.5618 4.88066 21.4764 4.04337C21.391 3.20608 21.0725 2.40952 20.557 1.74417C20.0416 1.07882 19.3499 0.571352 18.5606 0.279406C17.7712 -0.0125395 16.9158 -0.0772609 16.0914 0.0925937C15.2671 0.262448 14.507 0.660071 13.8973 1.2403C13.2876 1.82052 12.8529 2.56009 12.6425 3.375H1.625C1.32663 3.375 1.04048 3.49353 0.829505 3.7045C0.618527 3.91548 0.5 4.20163 0.5 4.5C0.5 4.79837 0.618527 5.08452 0.829505 5.2955C1.04048 5.50647 1.32663 5.625 1.625 5.625H12.6425C12.8919 6.59102 13.4553 7.44675 14.2441 8.05768C15.0329 8.66861 16.0023 9.00009 17 9ZM7.25 13.5C7.25 14.0967 7.01295 14.669 6.59099 15.091C6.16903 15.5129 5.59674 15.75 5 15.75C4.40326 15.75 3.83097 15.5129 3.40901 15.091C2.98705 14.669 2.75 14.0967 2.75 13.5C2.75 12.9033 2.98705 12.331 3.40901 11.909C3.83097 11.4871 4.40326 11.25 5 11.25C5.59674 11.25 6.16903 11.4871 6.59099 11.909C7.01295 12.331 7.25 12.9033 7.25 13.5ZM9.3575 14.625C9.08164 15.6835 8.42978 16.6054 7.52374 17.2183C6.6177 17.8312 5.51947 18.0933 4.43431 17.9554C3.34914 17.8176 2.35129 17.2893 1.62724 16.4694C0.903185 15.6494 0.502477 14.5939 0.5 13.5C0.499628 12.4045 0.898921 11.3464 1.623 10.5243C2.34707 9.70213 3.3462 9.17237 4.43301 9.03434C5.51981 8.8963 6.61965 9.15947 7.52626 9.7745C8.43287 10.3895 9.08399 11.3142 9.3575 12.375H20.375C20.6734 12.375 20.9595 12.4935 21.1705 12.7045C21.3815 12.9155 21.5 13.2016 21.5 13.5C21.5 13.7984 21.3815 14.0845 21.1705 14.2955C20.9595 14.5065 20.6734 14.625 20.375 14.625H9.3575Z" fill="#0078FF"/>
</svg>
