<svg width="51" height="50" viewBox="0 0 51 50" fill="none" xmlns="http://www.w3.org/2000/svg">
<g filter="url(#filter0_d_4126_2819)">
<rect x="3" width="45" height="45" rx="21.9216" fill="#8732BB" shape-rendering="crispEdges"/>
<circle cx="25.5008" cy="22.5" r="17.8856" fill="#8732BB" stroke="white" stroke-width="2"/>
<g clip-path="url(#clip0_4126_2819)">
<path d="M35.6088 24.4572C35.1786 24.0184 34.5078 24.0471 34.0557 24.4572L30.6869 27.4883C30.2734 27.8615 29.7587 28.0642 29.2286 28.0625H24.9167C24.762 28.0625 24.6136 27.9934 24.5042 27.8703C24.3948 27.7472 24.3333 27.5803 24.3333 27.4062C24.3333 27.2322 24.3948 27.0653 24.5042 26.9422C24.6136 26.8191 24.762 26.75 24.9167 26.75H27.771C28.3507 26.75 28.8906 26.3029 28.9832 25.659C28.9947 25.585 29.0003 25.5101 29 25.435C28.9994 25.0874 28.8762 24.7542 28.6575 24.5086C28.4388 24.2629 28.1424 24.125 27.8333 24.125H22C21.0162 24.1253 20.0624 24.506 19.2984 25.2033L17.6031 26.75H15.5833C15.4286 26.75 15.2803 26.8191 15.1709 26.9422C15.0615 27.0653 15 27.2322 15 27.4062V31.3438C15 31.5178 15.0615 31.6847 15.1709 31.8078C15.2803 31.9309 15.4286 32 15.5833 32H28.5906C29.1205 32.0005 29.6349 31.798 30.0489 31.4258L35.5625 26.4629C35.6951 26.3435 35.803 26.1931 35.8786 26.022C35.9542 25.8509 35.9956 25.6633 36.0001 25.4723C36.0045 25.2813 35.9718 25.0915 35.9043 24.9162C35.8368 24.7408 35.7357 24.5842 35.6088 24.4572Z" fill="white"/>
<path d="M29.8453 11.7228C30.3821 11.7228 30.8964 11.964 31.2756 12.3927L33.1546 14.5167C33.3424 14.729 33.4913 14.981 33.593 15.2584C33.6946 15.5358 33.7469 15.833 33.7469 16.1333C33.7469 16.4335 33.6946 16.7308 33.593 17.0082C33.4913 17.2855 33.3424 17.5376 33.1546 17.7499L31.7759 19.3084C31.4414 19.6861 31.0006 19.9195 30.5298 19.9682C30.059 20.0169 29.588 19.8777 29.1985 19.5749L29.1437 19.5289L26.0755 22.998C25.838 23.2655 25.5308 23.4398 25.1991 23.4951L25.0844 23.511L24.9691 23.5163H24.3577C23.8288 23.5163 23.3838 23.0687 23.3191 22.4413L23.3145 22.3369V21.6458C23.3145 21.2307 23.4438 20.8286 23.6952 20.4901L23.773 20.3951L23.9889 20.151C24.0867 20.0404 24.2194 19.9783 24.3577 19.9782H24.8794V19.3886C24.8794 19.2441 24.9263 19.1047 25.0112 18.9968C25.0961 18.8889 25.2131 18.8199 25.34 18.803L25.401 18.7989H25.9226V18.2092C25.9226 18.0796 25.9604 17.9536 26.0301 17.8507L26.0755 17.7917L26.8412 16.9255L26.8016 16.8648C26.5933 16.5221 26.4711 16.1221 26.4479 15.7072L26.4443 15.5681C26.4443 14.9613 26.6576 14.3799 27.0368 13.9512L28.4155 12.3927C28.7948 11.9641 29.309 11.7231 29.8453 11.7228ZM30.1035 14.6712H30.0931C29.8164 14.6712 29.551 14.7954 29.3554 15.0166C29.1597 15.2378 29.0498 15.5377 29.0498 15.8505C29.0498 16.1633 29.1597 16.4633 29.3554 16.6845C29.551 16.9056 29.8164 17.0299 30.0931 17.0299H30.1035C30.3802 17.0299 30.6456 16.9056 30.8412 16.6845C31.0369 16.4633 31.1468 16.1633 31.1468 15.8505C31.1468 15.5377 31.0369 15.2378 30.8412 15.0166C30.6456 14.7954 30.3802 14.6712 30.1035 14.6712Z" fill="white"/>
</g>
</g>
<defs>
<filter id="filter0_d_4126_2819" x="0.630094" y="0" width="49.7398" height="49.7398" filterUnits="userSpaceOnUse" color-interpolation-filters="sRGB">
<feFlood flood-opacity="0" result="BackgroundImageFix"/>
<feColorMatrix in="SourceAlpha" type="matrix" values="0 0 0 0 0 0 0 0 0 0 0 0 0 0 0 0 0 0 127 0" result="hardAlpha"/>
<feOffset dy="2.36991"/>
<feGaussianBlur stdDeviation="1.18495"/>
<feComposite in2="hardAlpha" operator="out"/>
<feColorMatrix type="matrix" values="0 0 0 0 0 0 0 0 0 0 0 0 0 0 0 0 0 0 0.25 0"/>
<feBlend mode="normal" in2="BackgroundImageFix" result="effect1_dropShadow_4126_2819"/>
<feBlend mode="normal" in="SourceGraphic" in2="effect1_dropShadow_4126_2819" result="shape"/>
</filter>
<clipPath id="clip0_4126_2819">
<rect width="21" height="21" fill="white" transform="translate(15 11)"/>
</clipPath>
</defs>
</svg>
