<svg width="22" height="22" viewBox="0 0 22 22" fill="none" xmlns="http://www.w3.org/2000/svg">
<g id="fluent-emoji-high-contrast:brick">
<rect width="22" height="22" fill="#EDF7FF"/>
<path id="Vector" d="M3.4375 1.375C2.89049 1.375 2.36589 1.5923 1.97909 1.97909C1.5923 2.36589 1.375 2.89049 1.375 3.4375V4.8125H4.125C4.30734 4.8125 4.4822 4.74007 4.61114 4.61114C4.74007 4.4822 4.8125 4.30734 4.8125 4.125V1.375H3.4375ZM6.1875 1.375V4.125C6.1875 4.30734 6.25993 4.4822 6.38886 4.61114C6.5178 4.74007 6.69266 4.8125 6.875 4.8125H15.125C15.3073 4.8125 15.4822 4.74007 15.6111 4.61114C15.7401 4.4822 15.8125 4.30734 15.8125 4.125V1.375H6.1875ZM17.1875 1.375V4.125C17.1875 4.30734 17.2599 4.4822 17.3889 4.61114C17.5178 4.74007 17.6927 4.8125 17.875 4.8125H20.625V3.4375C20.625 2.89049 20.4077 2.36589 20.0209 1.97909C19.6341 1.5923 19.1095 1.375 18.5625 1.375H17.1875ZM20.625 6.1875H12.375C12.1927 6.1875 12.0178 6.25993 11.8889 6.38886C11.7599 6.5178 11.6875 6.69266 11.6875 6.875V9.625C11.6875 9.80734 11.7599 9.98221 11.8889 10.1111C12.0178 10.2401 12.1927 10.3125 12.375 10.3125H20.625V6.1875ZM20.625 11.6875H17.875C17.6927 11.6875 17.5178 11.7599 17.3889 11.8889C17.2599 12.0178 17.1875 12.1927 17.1875 12.375V15.125C17.1875 15.3073 17.2599 15.4822 17.3889 15.6111C17.5178 15.7401 17.6927 15.8125 17.875 15.8125H20.625V11.6875ZM20.625 17.1875H12.375C12.1927 17.1875 12.0178 17.2599 11.8889 17.3889C11.7599 17.5178 11.6875 17.6927 11.6875 17.875V20.625H18.5625C19.1095 20.625 19.6341 20.4077 20.0209 20.0209C20.4077 19.6341 20.625 19.1095 20.625 18.5625V17.1875ZM10.3125 20.625V17.875C10.3125 17.6927 10.2401 17.5178 10.1111 17.3889C9.98221 17.2599 9.80734 17.1875 9.625 17.1875H1.375V18.5625C1.375 19.1095 1.5923 19.6341 1.97909 20.0209C2.36589 20.4077 2.89049 20.625 3.4375 20.625H10.3125ZM1.375 15.8125H4.125C4.30734 15.8125 4.4822 15.7401 4.61114 15.6111C4.74007 15.4822 4.8125 15.3073 4.8125 15.125V12.375C4.8125 12.1927 4.74007 12.0178 4.61114 11.8889C4.4822 11.7599 4.30734 11.6875 4.125 11.6875H1.375V15.8125ZM1.375 10.3125H9.625C9.80734 10.3125 9.98221 10.2401 10.1111 10.1111C10.2401 9.98221 10.3125 9.80734 10.3125 9.625V6.875C10.3125 6.69266 10.2401 6.5178 10.1111 6.38886C9.98221 6.25993 9.80734 6.1875 9.625 6.1875H1.375V10.3125ZM6.1875 12.375C6.1875 12.1927 6.25993 12.0178 6.38886 11.8889C6.5178 11.7599 6.69266 11.6875 6.875 11.6875H15.125C15.3073 11.6875 15.4822 11.7599 15.6111 11.8889C15.7401 12.0178 15.8125 12.1927 15.8125 12.375V15.125C15.8125 15.3073 15.7401 15.4822 15.6111 15.6111C15.4822 15.7401 15.3073 15.8125 15.125 15.8125H6.875C6.69266 15.8125 6.5178 15.7401 6.38886 15.6111C6.25993 15.4822 6.1875 15.3073 6.1875 15.125V12.375Z" fill="#2563EB"/>
</g>
</svg>
