<svg width="26" height="26" viewBox="0 0 26 26" fill="none" xmlns="http://www.w3.org/2000/svg">
<g id="mdi:cctv">
<rect width="25.2" height="25.2" transform="translate(0.699219 0.199951)" fill="#EDF7FF"/>
<path id="Vector" d="M7.03228 12.8312L9.13228 16.4747L6.47578 19.8137L2.80078 13.4507L7.03228 12.8312ZM18.5508 19.0997V16.2542C19.4748 15.8447 20.1258 14.9312 20.1258 13.8497C20.1258 13.2512 19.9158 12.6947 19.5693 12.2747L21.6378 11.0672C22.6983 10.4477 23.0658 9.0932 22.4463 8.0327L20.9973 5.5127C20.7018 5.00345 20.2171 4.63162 19.6487 4.47821C19.0803 4.3248 18.4743 4.40226 17.9628 4.6937L9.42628 9.6497C8.42878 10.2062 8.08228 11.4872 8.65978 12.4952L10.2348 15.2252C10.8123 16.2227 12.1038 16.5692 13.1013 15.9917L15.0753 14.8577C15.3378 15.4772 15.8313 15.9812 16.4508 16.2542V19.0997C16.4508 20.2547 17.3958 21.1997 18.5508 21.1997H23.8008V19.0997H18.5508Z" fill="#2563EB"/>
</g>
</svg>
