<svg width="23" height="22" viewBox="0 0 23 22" fill="none" xmlns="http://www.w3.org/2000/svg">
<g id="game-icons:concrete-bag">
<rect width="22" height="22" transform="translate(0.5)" fill="#EDF7FF"/>
<path id="Vector" d="M7.9085 1.76261C6.21252 1.77769 4.5248 2.01921 2.97861 2.3997C3.41234 3.05558 4.14607 3.55771 4.99376 3.89781C6.00997 4.3055 7.17313 4.47071 8.04278 4.42628C8.93764 4.38052 10.0952 4.01705 10.9975 3.52359C11.4487 3.27687 11.8372 2.99744 12.0997 2.72867C12.2389 2.58614 12.3368 2.44998 12.4001 2.32837C11.0734 1.9512 9.66313 1.77558 8.24778 1.76261C8.13469 1.76159 8.02159 1.76159 7.9085 1.76261ZM12.7013 3.21826C12.6853 3.23527 12.6694 3.25233 12.6529 3.26913C12.314 3.61611 11.8696 3.92827 11.3686 4.2022C10.3669 4.75005 9.14407 5.14442 8.08222 5.19869C7.08419 5.24973 5.84106 5.0712 4.70574 4.61569C3.92826 4.30373 3.19371 3.85725 2.65347 3.24614C1.95243 8.8885 1.33037 15.1752 2.21841 20.3247C3.06051 20.5895 3.97978 20.7899 4.92578 20.9241V18.1758H7.67578V15.4258H12.4005C12.3995 15.2963 12.407 15.1553 12.4214 14.9974C12.4626 14.5442 12.5596 13.9653 12.6937 13.3213C12.9261 12.2055 13.27 10.9014 13.6368 9.79132C13.4241 7.68013 13.1155 5.4568 12.7013 3.21826ZM19.2618 3.24361C19.2228 3.2437 19.1789 3.24821 19.1385 3.2495L16.6915 6.31231C17.022 6.41848 17.3187 6.62972 17.5353 6.91611L19.9101 4.07823C19.9489 3.98972 19.9503 3.74252 19.8167 3.55002C19.7122 3.39941 19.5603 3.27304 19.2989 3.24529C19.2873 3.24411 19.2749 3.24355 19.2618 3.24361ZM16.2752 7.01377C16.2021 7.10233 16.1404 7.19969 16.0914 7.3036C15.926 7.65852 15.8972 8.03707 15.9275 8.36106L15.9284 8.37068L16.0791 9.41946C16.0008 9.42679 15.9226 9.43518 15.8445 9.44464C15.3654 9.50317 14.8394 9.61158 14.4779 9.72828C14.0858 10.8588 13.6991 12.2872 13.4509 13.479C13.3205 14.1047 13.2282 14.6653 13.1916 15.0674C13.1801 15.1939 13.1836 15.2675 13.1829 15.3565C13.2834 15.3048 13.3998 15.2392 13.5407 15.1472C13.9564 14.8758 14.5076 14.4503 15.0931 13.9628C16.1903 13.0493 17.4008 11.9261 18.1868 11.1348C18.0586 10.8072 17.8339 10.4368 17.5873 10.1243C17.3002 9.76042 16.9647 9.47361 16.877 9.41929C16.8746 9.41964 16.8658 9.41818 16.8602 9.41757L16.6976 8.28651C16.6784 8.07553 16.7078 7.81196 16.7925 7.63037C16.8344 7.54048 16.8789 7.47023 16.9411 7.41764C16.7758 7.18638 16.5233 7.03547 16.2752 7.01377ZM16.6992 13.4492V15.4258H21.4258V13.4492H16.6992ZM8.44922 16.1992V18.1758H13.1758V16.1992H8.44922ZM13.9492 16.1992V18.1758H18.6758V16.1992H13.9492ZM19.4492 16.1992V18.1758H21.4258V16.1992H19.4492ZM5.69922 18.9492V20.9258H10.4258V18.9492H5.69922ZM11.1992 18.9492V20.9258H15.9258V18.9492H11.1992ZM16.6992 18.9492V20.9258H21.4258V18.9492H16.6992Z" fill="#2563EB"/>
</g>
</svg>
