<svg width="30" height="30" viewBox="0 0 30 30" fill="none" xmlns="http://www.w3.org/2000/svg">
<path d="M27.4999 26.25V12.0125C27.4999 10.36 27.4999 9.5325 27.0699 8.8925C26.6399 8.2525 25.8786 7.945 24.3574 7.33L16.8574 4.305C15.9399 3.935 15.4824 3.75 14.9999 3.75C14.5174 3.75 14.0599 3.935 13.1424 4.305L5.64238 7.33C4.12113 7.945 3.35988 8.2525 2.92988 8.8925C2.49988 9.5325 2.49988 10.36 2.49988 12.0125V26.25" stroke="#2563EB" stroke-width="1.77273" stroke-linecap="round" stroke-linejoin="round"/>
<g clip-path="url(#clip0_3940_3469)">
<path fill-rule="evenodd" clip-rule="evenodd" d="M17.5729 13.6367C17.9527 13.6367 18.3251 13.7425 18.6482 13.9422C18.9713 14.1419 19.2325 14.4276 19.4024 14.7673L20.3475 16.6568C20.5138 16.5886 20.6775 16.5149 20.8384 16.4358C21.0003 16.355 21.1876 16.3418 21.3592 16.3991C21.5308 16.4563 21.6727 16.5795 21.7535 16.7413C21.8343 16.9032 21.8476 17.0905 21.7903 17.2621C21.733 17.4337 21.6099 17.5756 21.448 17.6564C21.2841 17.7293 21.1193 17.8003 20.9537 17.8691L21.6089 19.1804C21.7512 19.4647 21.8252 19.7783 21.8251 20.0962V21.8193C21.8251 22.1071 21.7644 22.3917 21.6469 22.6544C21.5294 22.9171 21.3577 23.1521 21.1432 23.344V24.2059C21.1432 24.4771 21.0355 24.7373 20.8436 24.9291C20.6518 25.1209 20.3917 25.2287 20.1204 25.2287C19.8491 25.2287 19.589 25.1209 19.3972 24.9291C19.2053 24.7373 19.0976 24.4771 19.0976 24.2059V23.8649H10.915V24.2059C10.915 24.4771 10.8073 24.7373 10.6154 24.9291C10.4236 25.1209 10.1635 25.2287 9.8922 25.2287C9.62093 25.2287 9.36077 25.1209 9.16896 24.9291C8.97714 24.7373 8.86938 24.4771 8.86938 24.2059V23.344C8.45071 22.9689 8.1875 22.4248 8.1875 21.8193V20.0955C8.18763 19.778 8.26163 19.465 8.40366 19.1811L9.05349 17.8801C8.88893 17.811 8.72641 17.7366 8.56594 17.6571C8.4049 17.5752 8.28249 17.4333 8.22509 17.262C8.1677 17.0907 8.17991 16.9037 8.2591 16.7413C8.2991 16.6611 8.3545 16.5896 8.42215 16.5309C8.48979 16.4722 8.56835 16.4273 8.65333 16.3989C8.73832 16.3706 8.82806 16.3592 8.91743 16.3656C9.0068 16.3719 9.09404 16.3958 9.17418 16.4358C9.33556 16.5154 9.49921 16.589 9.66513 16.6568L10.6102 14.768C10.78 14.4281 11.0411 14.1423 11.3643 13.9425C11.6874 13.7427 12.0598 13.6368 12.4397 13.6367H17.5729ZM11.9378 19.7736C11.6666 19.7736 11.4064 19.8814 11.2146 20.0732C11.0228 20.265 10.915 20.5252 10.915 20.7965C10.915 21.0677 11.0228 21.3279 11.2146 21.5197C11.4064 21.7115 11.6666 21.8193 11.9378 21.8193C12.2091 21.8193 12.4693 21.7115 12.6611 21.5197C12.8529 21.3279 12.9607 21.0677 12.9607 20.7965C12.9607 20.5252 12.8529 20.265 12.6611 20.0732C12.4693 19.8814 12.2091 19.7736 11.9378 19.7736ZM18.0748 19.7736C17.8035 19.7736 17.5433 19.8814 17.3515 20.0732C17.1597 20.265 17.0519 20.5252 17.0519 20.7965C17.0519 21.0677 17.1597 21.3279 17.3515 21.5197C17.5433 21.7115 17.8035 21.8193 18.0748 21.8193C18.346 21.8193 18.6062 21.7115 18.798 21.5197C18.9898 21.3279 19.0976 21.0677 19.0976 20.7965C19.0976 20.5252 18.9898 20.265 18.798 20.0732C18.6062 19.8814 18.346 19.7736 18.0748 19.7736ZM17.5729 15.0005H12.4397C12.3275 15.0005 12.217 15.0281 12.118 15.0811C12.019 15.134 11.9347 15.2106 11.8724 15.3039L11.8301 15.3776L10.9641 17.1082C12.0197 17.4246 13.4421 17.728 15.0063 17.728C16.4669 17.728 17.8027 17.4634 18.8316 17.1709L19.0478 17.1082L18.1825 15.3776C18.1323 15.2772 18.0581 15.1908 17.9665 15.1259C17.875 15.0611 17.7688 15.0199 17.6574 15.0059L17.5736 15.0005H17.5729Z" fill="#2563EB"/>
</g>
<defs>
<clipPath id="clip0_3940_3469">
<rect width="16.3636" height="16.3636" fill="white" transform="translate(6.82178 10.9091)"/>
</clipPath>
</defs>
</svg>
