<svg width="26" height="26" viewBox="0 0 26 26" fill="none" xmlns="http://www.w3.org/2000/svg">
<g id="radix-icons:dimensions" clip-path="url(#clip0_3815_12666)">
<path id="Vector" fill-rule="evenodd" clip-rule="evenodd" d="M5.1436 5.2025C5.14338 5.28094 5.1212 5.35774 5.07957 5.42422C5.03794 5.4907 4.97852 5.54419 4.90806 5.57863C4.83759 5.61308 4.75888 5.62711 4.68086 5.61912C4.60283 5.61114 4.52859 5.58147 4.46656 5.53346L1.79032 3.45194C1.74005 3.41266 1.69938 3.36244 1.67141 3.3051C1.64344 3.24775 1.62891 3.18479 1.62891 3.12098C1.62891 3.05718 1.64344 2.99422 1.67141 2.93687C1.69938 2.87952 1.74005 2.8293 1.79032 2.79002L4.46656 0.706823C4.52882 0.658644 4.60336 0.628932 4.68169 0.621075C4.76002 0.613219 4.83898 0.627535 4.90957 0.662389C4.98015 0.697244 5.03952 0.751235 5.0809 0.818203C5.12228 0.885172 5.14401 0.962422 5.1436 1.04114V2.28434H15.2236V1.03778C15.2236 0.959055 15.2457 0.881907 15.2874 0.815139C15.3291 0.748372 15.3888 0.694672 15.4595 0.660166C15.5303 0.625661 15.6093 0.611739 15.6876 0.619988C15.7659 0.628238 15.8403 0.658327 15.9023 0.706823L18.5769 2.78834C18.6272 2.82762 18.6678 2.87784 18.6958 2.93519C18.7238 2.99254 18.7383 3.0555 18.7383 3.1193C18.7383 3.18311 18.7238 3.24607 18.6958 3.30342C18.6678 3.36076 18.6272 3.41098 18.5769 3.45026L15.9023 5.53346C15.8402 5.58205 15.7656 5.61216 15.6872 5.62034C15.6088 5.62853 15.5296 5.61446 15.4588 5.57975C15.3879 5.54504 15.3283 5.49109 15.2867 5.42408C15.2451 5.35706 15.2233 5.27969 15.2236 5.20082V3.96098H5.1436V5.2025ZM16.0636 9.00098H4.3036C4.08082 9.00098 3.86716 9.08948 3.70963 9.24701C3.5521 9.40454 3.4636 9.6182 3.4636 9.84098V21.601C3.4636 21.8238 3.5521 22.0374 3.70963 22.195C3.86716 22.3525 4.08082 22.441 4.3036 22.441H16.0636C16.2864 22.441 16.5 22.3525 16.6576 22.195C16.8151 22.0374 16.9036 21.8238 16.9036 21.601V9.84098C16.9036 9.6182 16.8151 9.40454 16.6576 9.24701C16.5 9.08948 16.2864 9.00098 16.0636 9.00098ZM4.3036 7.32098C3.63526 7.32098 2.99429 7.58648 2.52169 8.05907C2.0491 8.53167 1.7836 9.17264 1.7836 9.84098V21.601C1.7836 22.2693 2.0491 22.9103 2.52169 23.3829C2.99429 23.8555 3.63526 24.121 4.3036 24.121H16.0636C16.7319 24.121 17.3729 23.8555 17.8455 23.3829C18.3181 22.9103 18.5836 22.2693 18.5836 21.601V9.84098C18.5836 9.17264 18.3181 8.53167 17.8455 8.05907C17.3729 7.58648 16.7319 7.32098 16.0636 7.32098H4.3036ZM24.8651 10.681H23.6236V20.761H24.8651C24.9436 20.7612 25.0204 20.7834 25.0868 20.825C25.1533 20.8667 25.2068 20.9261 25.2413 20.9965C25.2757 21.067 25.2897 21.1457 25.2817 21.2237C25.2738 21.3018 25.2441 21.376 25.1961 21.438L23.1146 24.1143C23.0753 24.1645 23.0251 24.2052 22.9677 24.2332C22.9104 24.2611 22.8474 24.2757 22.7836 24.2757C22.7198 24.2757 22.6568 24.2611 22.5995 24.2332C22.5421 24.2052 22.4919 24.1645 22.4526 24.1143L20.3694 21.438C20.3214 21.3759 20.2917 21.3015 20.2837 21.2233C20.2758 21.1451 20.29 21.0663 20.3246 20.9958C20.3593 20.9253 20.413 20.8659 20.4798 20.8244C20.5465 20.7828 20.6235 20.7609 20.7021 20.761H21.9436V10.681H20.7021C20.6236 10.6808 20.5468 10.6586 20.4804 10.6169C20.4139 10.5753 20.3604 10.5159 20.326 10.4454C20.2915 10.375 20.2775 10.2963 20.2855 10.2182C20.2934 10.1402 20.3231 10.066 20.3711 10.0039L22.4526 7.3277C22.4919 7.27743 22.5421 7.23676 22.5995 7.20879C22.6568 7.18082 22.7198 7.16629 22.7836 7.16629C22.8474 7.16629 22.9104 7.18082 22.9677 7.20879C23.0251 7.23676 23.0753 7.27743 23.1146 7.3277L25.1978 10.0039C25.2459 10.0661 25.2755 10.1405 25.2835 10.2187C25.2914 10.2968 25.2772 10.3757 25.2426 10.4462C25.2079 10.5167 25.1542 10.5761 25.0875 10.6176C25.0207 10.6591 24.9437 10.6811 24.8651 10.681Z" fill="#2563EB"/>
<rect id="Rectangle 564" x="3.29297" y="8.57593" width="14.3544" height="14.3544" fill="#2563EB"/>
</g>
<defs>
<clipPath id="clip0_3815_12666">
<rect width="25.2" height="25.2" fill="white" transform="translate(0.101562 0.60083)"/>
</clipPath>
</defs>
</svg>
