<svg width="22" height="22" viewBox="0 0 22 22" fill="none" xmlns="http://www.w3.org/2000/svg">
<g id="mingcute:grass-fill" clip-path="url(#clip0_3758_1912)">
<rect width="22" height="22" fill="#EDF7FF"/>
<g id="Group">
<path id="Vector" fill-rule="evenodd" clip-rule="evenodd" d="M5.82636 2.96543C5.97378 2.84127 6.15659 2.76673 6.3488 2.75241C6.54101 2.73809 6.73284 2.78473 6.89703 2.88568C10.065 4.83543 11.8012 7.30219 12.727 10.0174C12.9562 10.6893 13.1349 11.374 13.2734 12.067C14.2166 10.4812 15.7236 9.22352 17.9933 8.31602C18.1533 8.25211 18.3281 8.2346 18.4977 8.26551C18.6672 8.29642 18.8246 8.37449 18.9518 8.49077C19.0789 8.60704 19.1708 8.75681 19.2167 8.9229C19.2627 9.08898 19.2609 9.26466 19.2115 9.42977L19.0456 9.98343C17.7989 14.1341 17.4167 15.4055 17.4167 18.3334C17.4167 18.5765 17.3201 18.8096 17.1482 18.9815C16.9763 19.1534 16.7431 19.25 16.5 19.25H5.50003C5.25692 19.25 5.02376 19.1534 4.85185 18.9815C4.67994 18.8096 4.58337 18.5765 4.58337 18.3334C4.58337 14.7914 4.1507 12.5996 2.79678 8.53968C2.74168 8.37389 2.73511 8.1958 2.77784 8.02639C2.82057 7.85698 2.91083 7.70331 3.03797 7.58348C3.16512 7.46366 3.32387 7.38266 3.49551 7.35004C3.66715 7.31742 3.84454 7.33453 4.00678 7.39935C5.28553 7.90993 6.2572 8.59193 6.99053 9.39768C6.74619 7.54788 6.26751 5.73667 5.56603 4.00768C5.49426 3.82866 5.48078 3.63156 5.52752 3.44443C5.57426 3.2573 5.67884 3.08968 5.82636 2.96543Z" fill="#2563EB"/>
</g>
</g>
<defs>
<clipPath id="clip0_3758_1912">
<rect width="22" height="22" fill="white"/>
</clipPath>
</defs>
</svg>
