<svg width="20" height="22" viewBox="0 0 20 22" fill="none" xmlns="http://www.w3.org/2000/svg">
<path d="M12.6275 0.0832533C13.3895 0.0825532 14.1256 0.360318 14.6971 0.8643C15.2687 1.36828 15.6364 2.06374 15.7311 2.81987C15.8258 3.57599 15.641 4.34067 15.2114 4.97005C14.7818 5.59944 14.137 6.05015 13.3983 6.23742L10.8494 12.0624H13.2525C14.001 12.0623 14.7314 12.2925 15.3446 12.7219C15.9577 13.1513 16.4238 13.759 16.6796 14.4624L18.0504 18.2353L18.5358 18.477C18.7194 18.5688 18.8831 18.6958 19.0176 18.8509C19.1521 19.0059 19.2547 19.186 19.3196 19.3807C19.3845 19.5754 19.4104 19.781 19.3959 19.9857C19.3813 20.1904 19.3266 20.3903 19.2348 20.5739C19.143 20.7575 19.016 20.9212 18.8609 21.0556C18.7058 21.1901 18.5258 21.2927 18.3311 21.3576C18.1364 21.4225 17.9308 21.4485 17.7261 21.4339C17.5213 21.4194 17.3215 21.3646 17.1379 21.2728L16.0962 20.752C15.7384 20.573 15.4629 20.2635 15.3265 19.8874L13.7421 15.5312C13.7055 15.4307 13.6389 15.3439 13.5513 15.2826C13.4637 15.2213 13.3594 15.1884 13.2525 15.1885H10.8504C8.59729 15.1885 7.08479 12.876 7.98791 10.8114L8.86604 8.80409L7.41916 8.08013L3.95041 9.8145C3.76664 9.90805 3.56616 9.96429 3.36055 9.97998C3.15494 9.99568 2.94825 9.97052 2.7524 9.90595C2.55656 9.84138 2.37543 9.73869 2.21947 9.60379C2.0635 9.46889 1.93578 9.30445 1.84367 9.11995C1.75156 8.93545 1.69688 8.73455 1.68278 8.52882C1.66869 8.32309 1.69545 8.1166 1.76154 7.92127C1.82763 7.72593 1.93173 7.54561 2.06784 7.3907C2.20395 7.23578 2.36937 7.10934 2.55458 7.01867L6.25458 5.16867C6.61617 4.98788 7.01489 4.89376 7.41916 4.89376C7.82343 4.89376 8.22215 4.98788 8.58375 5.16867L10.1192 5.93638L10.3681 5.36763C9.94515 4.92516 9.66144 4.36822 9.55221 3.76593C9.44297 3.16365 9.51302 2.54254 9.75366 1.97972C9.9943 1.41689 10.3949 0.937131 10.9058 0.599987C11.4167 0.262844 12.0154 0.0831644 12.6275 0.0832533ZM1.35875 10.251L3.06291 11.451C2.70015 11.9698 2.44624 12.5568 2.31651 13.1764C2.18677 13.796 2.1839 14.4356 2.30807 15.0563C2.43224 15.6771 2.68087 16.2663 3.03897 16.7884C3.39707 17.3105 3.85721 17.7546 4.39164 18.094C4.92606 18.4334 5.5237 18.661 6.1485 18.7631C6.77329 18.8652 7.4123 18.8397 8.02696 18.6881C8.64163 18.5365 9.21922 18.262 9.72489 17.8811C10.2306 17.5002 10.6538 17.0208 10.9692 16.4718L11.0754 16.276L12.9296 17.2239C12.5111 18.0382 11.9318 18.7591 11.2267 19.3431C10.5217 19.9271 9.7055 20.3621 8.82755 20.6217C7.94961 20.8813 7.02813 20.9602 6.11884 20.8536C5.20955 20.7469 4.33133 20.457 3.53728 20.0013C2.74323 19.5455 2.04985 18.9335 1.49907 18.2022C0.948278 17.4709 0.551525 16.6355 0.332795 15.7465C0.114064 14.8574 0.0779003 13.9333 0.22649 13.0299C0.375079 12.1265 0.705335 11.2627 1.19729 10.4905L1.35875 10.251Z" fill="#2563EB"/>
</svg>
