<svg width="22" height="22" viewBox="0 0 22 22" fill="none" xmlns="http://www.w3.org/2000/svg">
<g id="maki:police">
<rect width="22" height="22" fill="#EDF7FF"/>
<path id="Vector" d="M8.06499 1.46655L8.79832 2.93322H16.1317L16.865 1.46655H8.06499ZM8.79832 3.66655V5.49989C8.79832 5.49989 8.79832 9.53322 12.465 9.53322C16.1317 9.53322 16.1317 5.49989 16.1317 5.49989V3.66655H8.79832ZM2.90819 5.84602C2.51971 5.8522 2.14955 6.01227 1.87897 6.2911C1.60839 6.56993 1.4595 6.94473 1.46499 7.33322V13.1999C1.46481 13.4196 1.514 13.6366 1.60894 13.8348C1.70388 14.0329 1.84214 14.2073 2.01349 14.3448C2.18484 14.4824 2.38492 14.5797 2.59893 14.6295C2.81294 14.6794 3.03542 14.6805 3.24992 14.6328L7.33166 13.7235V20.5332L15.9542 10.3692C15.7459 10.3053 15.5297 10.2708 15.3118 10.2666H9.53166L4.39832 11.3724V7.33322C4.4011 7.1369 4.36443 6.94203 4.29049 6.76014C4.21655 6.57826 4.10684 6.41308 3.96787 6.27438C3.8289 6.13569 3.6635 6.02631 3.48148 5.95273C3.29945 5.87914 3.1045 5.84286 2.90819 5.84602ZM17.2287 11.3094L9.40259 20.5332H17.5983V12.5531C17.5983 12.0926 17.4605 11.6672 17.2287 11.3094Z" fill="#2563EB"/>
</g>
</svg>
