<svg width="34" height="34" viewBox="0 0 34 34" fill="none" xmlns="http://www.w3.org/2000/svg">
<rect width="34" height="34" rx="17" fill="#F1F1F1"/>
<path d="M23 13.25H16.25M18.5 20.75H11.75M18.5 20.75C18.5 21.9926 19.5074 23 20.75 23C21.9926 23 23 21.9926 23 20.75C23 19.5074 21.9926 18.5 20.75 18.5C19.5074 18.5 18.5 19.5074 18.5 20.75ZM15.5 13.25C15.5 14.4926 14.4926 15.5 13.25 15.5C12.0074 15.5 11 14.4926 11 13.25C11 12.0074 12.0074 11 13.25 11C14.4926 11 15.5 12.0074 15.5 13.25Z" stroke="black" stroke-width="1.5" stroke-linecap="round" stroke-linejoin="round"/>
</svg>
