<svg width="25" height="25" viewBox="0 0 25 25" fill="none" xmlns="http://www.w3.org/2000/svg">
<path d="M2.5 12.5H5.5M5.5 12.5C5.5 16.366 8.63401 19.5 12.5 19.5M5.5 12.5C5.5 8.63401 8.63401 5.5 12.5 5.5M19.5 12.5H22.5M19.5 12.5C19.5 16.366 16.366 19.5 12.5 19.5M19.5 12.5C19.5 8.63401 16.366 5.5 12.5 5.5M12.5 2.5V5.5M12.5 19.5V22.5M15.5 12.5C15.5 14.1569 14.1569 15.5 12.5 15.5C10.8431 15.5 9.5 14.1569 9.5 12.5C9.5 10.8431 10.8431 9.5 12.5 9.5C14.1569 9.5 15.5 10.8431 15.5 12.5Z" stroke="#474545" stroke-width="2" stroke-linecap="round" stroke-linejoin="round"/>
</svg>
