<svg width="48" height="48" viewBox="0 0 48 48" fill="none" xmlns="http://www.w3.org/2000/svg">
<rect width="48" height="48" rx="24" fill="white"/>
<path d="M12.3334 24H15.8334M15.8334 24C15.8334 28.5103 19.4897 32.1667 24 32.1667M15.8334 24C15.8334 19.4897 19.4897 15.8333 24 15.8333M32.1667 24H35.6667M32.1667 24C32.1667 28.5103 28.5104 32.1667 24 32.1667M32.1667 24C32.1667 19.4897 28.5104 15.8333 24 15.8333M24 12.3333V15.8333M24 32.1667V35.6667M27.5 24C27.5 25.933 25.933 27.5 24 27.5C22.067 27.5 20.5 25.933 20.5 24C20.5 22.067 22.067 20.5 24 20.5C25.933 20.5 27.5 22.067 27.5 24Z" stroke="#474545" stroke-width="2.5" stroke-linecap="round" stroke-linejoin="round"/>
</svg>
