<svg width="48" height="48" viewBox="0 0 48 48" fill="none" xmlns="http://www.w3.org/2000/svg">
<rect width="48" height="48" rx="24" fill="white"/>
<path d="M27.5 26.3333C27.7333 25.1667 28.3167 24.35 29.25 23.4167C30.4167 22.3667 31 20.85 31 19.3333C31 17.4768 30.2625 15.6963 28.9497 14.3836C27.637 13.0708 25.8565 12.3333 24 12.3333C22.1435 12.3333 20.363 13.0708 19.0503 14.3836C17.7375 15.6963 17 17.4768 17 19.3333C17 20.5 17.2333 21.9 18.75 23.4167C19.5667 24.2333 20.2667 25.1667 20.5 26.3333M20.5 31H27.5M21.6667 35.6667H26.3333" stroke="#474545" stroke-width="3" stroke-linecap="round" stroke-linejoin="round"/>
</svg>
