<svg width="49" height="49" viewBox="0 0 49 49" fill="none" xmlns="http://www.w3.org/2000/svg">
<rect width="49" height="49" rx="24.5" fill="white"/>
<path d="M14.5 16.5C14.5 15.3954 15.3954 14.5 16.5 14.5H20.5C21.6046 14.5 22.5 15.3954 22.5 16.5V22.5H16.5C15.3954 22.5 14.5 21.6046 14.5 20.5V16.5Z" stroke="black" stroke-width="2"/>
<path d="M26.5 16.5C26.5 15.3954 27.3954 14.5 28.5 14.5H32.5C33.6046 14.5 34.5 15.3954 34.5 16.5V20.5C34.5 21.6046 33.6046 22.5 32.5 22.5H26.5V16.5Z" stroke="black" stroke-width="2"/>
<path d="M14.5 28.5C14.5 27.3954 15.3954 26.5 16.5 26.5H22.5V32.5C22.5 33.6046 21.6046 34.5 20.5 34.5H16.5C15.3954 34.5 14.5 33.6046 14.5 32.5V28.5Z" stroke="black" stroke-width="2"/>
<path d="M26.5 26.5H32.5C33.6046 26.5 34.5 27.3954 34.5 28.5V32.5C34.5 33.6046 33.6046 34.5 32.5 34.5H28.5C27.3954 34.5 26.5 33.6046 26.5 32.5V26.5Z" stroke="black" stroke-width="2"/>
</svg>
