<svg width="48" height="48" viewBox="0 0 48 48" fill="none" xmlns="http://www.w3.org/2000/svg">
<rect width="48" height="48" rx="24" fill="white"/>
<path d="M20.5 29.8333V18.1667H25.1666C26.0949 18.1667 26.9851 18.5354 27.6415 19.1918C28.2979 19.8482 28.6666 20.7384 28.6666 21.6667C28.6666 22.5949 28.2979 23.4852 27.6415 24.1415C26.9851 24.7979 26.0949 25.1667 25.1666 25.1667H20.5M35.6666 24C35.6666 30.4433 30.4433 35.6667 24 35.6667C17.5567 35.6667 12.3333 30.4433 12.3333 24C12.3333 17.5567 17.5567 12.3333 24 12.3333C30.4433 12.3333 35.6666 17.5567 35.6666 24Z" stroke="#474545" stroke-width="2.5" stroke-linecap="round" stroke-linejoin="round"/>
</svg>
