<svg width="38" height="39" viewBox="0 0 38 39" fill="none" xmlns="http://www.w3.org/2000/svg">
<rect y="0.5" width="38" height="38" rx="19" fill="#0078FF" fill-opacity="0.05"/>
<path d="M27 17.5C27 23.5 19 29.5 19 29.5C19 29.5 11 23.5 11 17.5C11 15.3783 11.8429 13.3434 13.3431 11.8431C14.8434 10.3429 16.8783 9.5 19 9.5C21.1217 9.5 23.1566 10.3429 24.6569 11.8431C26.1571 13.3434 27 15.3783 27 17.5Z" stroke="#0078FF" stroke-width="2" stroke-linecap="round" stroke-linejoin="round"/>
<path d="M19 20.5C20.6569 20.5 22 19.1569 22 17.5C22 15.8431 20.6569 14.5 19 14.5C17.3431 14.5 16 15.8431 16 17.5C16 19.1569 17.3431 20.5 19 20.5Z" stroke="#0078FF" stroke-width="2" stroke-linecap="round" stroke-linejoin="round"/>
</svg>
