<svg width="80" height="73" viewBox="0 0 80 73" fill="none" xmlns="http://www.w3.org/2000/svg">
<rect y="28" width="45" height="45" rx="21.9216" fill="white"/>
<circle cx="22.3856" cy="50.5" r="16.8856" fill="#0078FF"/>
<path fill-rule="evenodd" clip-rule="evenodd" d="M25.9536 45.1599C26.3937 45.1599 26.8251 45.2825 27.1994 45.5138C27.5738 45.7451 27.8764 46.0761 28.0732 46.4697L29.1681 48.6588C29.3609 48.5798 29.5505 48.4945 29.7369 48.4029C29.9245 48.3092 30.1415 48.2939 30.3403 48.3603C30.5392 48.4266 30.7035 48.5693 30.7971 48.7568C30.8908 48.9443 30.9061 49.1613 30.8397 49.3602C30.7734 49.559 30.6307 49.7233 30.4432 49.817C30.2533 49.9015 30.0624 49.9836 29.8705 50.0634L30.6296 51.5826C30.7944 51.912 30.8802 52.2753 30.8801 52.6436V54.6399C30.8801 54.9734 30.8097 55.303 30.6736 55.6074C30.5374 55.9118 30.3386 56.1841 30.0901 56.4064V57.4049C30.0901 57.7192 29.9652 58.0206 29.743 58.2428C29.5208 58.4651 29.2194 58.5899 28.9051 58.5899C28.5908 58.5899 28.2894 58.4651 28.0672 58.2428C27.8449 58.0206 27.7201 57.7192 27.7201 57.4049V57.0099H18.2401V57.4049C18.2401 57.7192 18.1152 58.0206 17.893 58.2428C17.6708 58.4651 17.3694 58.5899 17.0551 58.5899C16.7408 58.5899 16.4394 58.4651 16.2172 58.2428C15.9949 58.0206 15.8701 57.7192 15.8701 57.4049V56.4064C15.385 55.9719 15.0801 55.3414 15.0801 54.6399V52.6428C15.0802 52.275 15.166 51.9123 15.3305 51.5834L16.0834 50.0761C15.8927 49.996 15.7044 49.9099 15.5185 49.8178C15.332 49.7229 15.1901 49.5585 15.1236 49.36C15.0571 49.1616 15.0713 48.9449 15.163 48.7568C15.2094 48.6639 15.2736 48.5811 15.3519 48.513C15.4303 48.4449 15.5213 48.393 15.6198 48.3601C15.7182 48.3273 15.8222 48.3141 15.9257 48.3214C16.0293 48.3288 16.1304 48.3564 16.2232 48.4029C16.4102 48.495 16.5998 48.5803 16.792 48.6588L17.8869 46.4705C18.0837 46.0768 18.3862 45.7456 18.7606 45.5141C19.1349 45.2827 19.5664 45.16 20.0065 45.1599H25.9536ZM19.4251 52.2699C19.1108 52.2699 18.8094 52.3948 18.5872 52.617C18.3649 52.8392 18.2401 53.1406 18.2401 53.4549C18.2401 53.7692 18.3649 54.0706 18.5872 54.2928C18.8094 54.5151 19.1108 54.6399 19.4251 54.6399C19.7394 54.6399 20.0408 54.5151 20.263 54.2928C20.4852 54.0706 20.6101 53.7692 20.6101 53.4549C20.6101 53.1406 20.4852 52.8392 20.263 52.617C20.0408 52.3948 19.7394 52.2699 19.4251 52.2699ZM26.5351 52.2699C26.2208 52.2699 25.9194 52.3948 25.6972 52.617C25.4749 52.8392 25.3501 53.1406 25.3501 53.4549C25.3501 53.7692 25.4749 54.0706 25.6972 54.2928C25.9194 54.5151 26.2208 54.6399 26.5351 54.6399C26.8494 54.6399 27.1508 54.5151 27.373 54.2928C27.5952 54.0706 27.7201 53.7692 27.7201 53.4549C27.7201 53.1406 27.5952 52.8392 27.373 52.617C27.1508 52.3948 26.8494 52.2699 26.5351 52.2699ZM25.9536 46.7399H20.0065C19.8765 46.7399 19.7485 46.772 19.6338 46.8333C19.5192 46.8946 19.4214 46.9833 19.3492 47.0915L19.3003 47.1768L18.297 49.1818C19.5199 49.5484 21.1678 49.8999 22.9801 49.8999C24.6723 49.8999 26.2199 49.5934 27.412 49.2545L27.6624 49.1818L26.6599 47.1768C26.6018 47.0605 26.5158 46.9604 26.4097 46.8853C26.3036 46.8102 26.1806 46.7624 26.0516 46.7462L25.9544 46.7399H25.9536Z" fill="white"/>
<rect x="16" width="45" height="45" rx="21.9216" fill="white"/>
<circle cx="38.3856" cy="22.5" r="16.8856" fill="#4CD9CC"/>
<g clip-path="url(#clip0_3270_515)">
<path d="M41.4647 15.0798C42.0427 15.0793 42.6009 15.2899 43.0343 15.6722C43.4678 16.0544 43.7467 16.5818 43.8185 17.1553C43.8904 17.7287 43.7502 18.3086 43.4244 18.786C43.0985 19.2633 42.6095 19.6051 42.0493 19.7471L40.1162 24.1648H41.9387C42.5064 24.1647 43.0604 24.3393 43.5254 24.665C43.9904 24.9906 44.3439 25.4515 44.5378 25.985L45.5775 28.8463L45.9456 29.0296C46.0848 29.0992 46.209 29.1956 46.311 29.3132C46.413 29.4308 46.4908 29.5673 46.54 29.715C46.5892 29.8626 46.6089 30.0186 46.5979 30.1738C46.5868 30.3291 46.5453 30.4807 46.4757 30.6199C46.4061 30.7591 46.3097 30.8833 46.1921 30.9853C46.0746 31.0872 45.938 31.1651 45.7904 31.2143C45.6427 31.2635 45.4868 31.2832 45.3315 31.2721C45.1762 31.2611 45.0247 31.2196 44.8854 31.15L44.0954 30.755C43.8241 30.6192 43.6151 30.3845 43.5116 30.0993L42.31 26.7955C42.2823 26.7193 42.2318 26.6535 42.1654 26.607C42.0989 26.5605 42.0198 26.5356 41.9387 26.5356H40.117C38.4082 26.5356 37.2611 24.7818 37.9461 23.216L38.612 21.6937L37.5147 21.1446L34.884 22.46C34.7447 22.5309 34.5926 22.5736 34.4367 22.5855C34.2807 22.5974 34.124 22.5783 33.9755 22.5293C33.8269 22.4804 33.6896 22.4025 33.5713 22.3002C33.453 22.1979 33.3561 22.0732 33.2863 21.9332C33.2164 21.7933 33.175 21.6409 33.1643 21.4849C33.1536 21.3289 33.1739 21.1723 33.224 21.0242C33.2741 20.876 33.3531 20.7393 33.4563 20.6218C33.5595 20.5043 33.685 20.4084 33.8254 20.3396L36.6315 18.9366C36.9057 18.7995 37.2081 18.7281 37.5147 18.7281C37.8213 18.7281 38.1237 18.7995 38.398 18.9366L39.5624 19.5188L39.7512 19.0875C39.4304 18.7519 39.2153 18.3295 39.1324 17.8727C39.0496 17.416 39.1027 16.9449 39.2852 16.5181C39.4677 16.0912 39.7716 15.7274 40.159 15.4717C40.5465 15.216 41.0005 15.0797 41.4647 15.0798ZM32.9185 22.791L34.211 23.7011C33.9358 24.0946 33.7433 24.5397 33.6449 25.0096C33.5465 25.4796 33.5443 25.9646 33.6385 26.4354C33.7327 26.9062 33.9212 27.3531 34.1928 27.749C34.4644 28.1449 34.8133 28.4818 35.2187 28.7392C35.624 28.9965 36.0772 29.1692 36.5511 29.2466C37.0249 29.324 37.5095 29.3047 37.9757 29.1897C38.4419 29.0748 38.8799 28.8665 39.2634 28.5777C39.6469 28.2888 39.9679 27.9252 40.2071 27.5089L40.2876 27.3604L41.6938 28.0793C41.3764 28.6968 40.9371 29.2436 40.4024 29.6865C39.8677 30.1294 39.2487 30.4593 38.5829 30.6562C37.917 30.8531 37.2182 30.9129 36.5286 30.832C35.839 30.7511 35.1729 30.5312 34.5707 30.1856C33.9685 29.84 33.4427 29.3758 33.0249 28.8212C32.6072 28.2666 32.3063 27.633 32.1404 26.9588C31.9745 26.2846 31.9471 25.5837 32.0598 24.8986C32.1725 24.2134 32.423 23.5583 32.7961 22.9727L32.9185 22.791Z" fill="white"/>
</g>
<rect x="35" y="28" width="45" height="45" rx="21.9216" fill="white"/>
<circle cx="57.5" cy="50.5" r="16.8856" fill="#269DF1"/>
<g clip-path="url(#clip1_3270_515)">
<path d="M52.2666 56.3262C51.1738 56.3262 50.2424 55.9409 49.4724 55.1704C48.7025 54.4 48.3172 53.4686 48.3167 52.3763C48.3162 51.2841 48.7014 50.3527 49.4724 49.5822C50.2434 48.8117 51.1748 48.4265 52.2666 48.4265H61.4302L59.8503 46.8465H57.0064V45.2666H59.8305C60.0412 45.2666 60.2421 45.3061 60.4333 45.3851C60.6244 45.4641 60.7922 45.576 60.9365 45.7208L63.6816 48.466C64.7086 48.545 65.5644 48.9597 66.249 49.7102C66.9336 50.4606 67.276 51.3494 67.276 52.3763C67.276 53.4691 66.8907 54.4007 66.1202 55.1712C65.3498 55.9417 64.4184 56.3267 63.3261 56.3262C62.2339 56.3256 61.3025 55.9404 60.532 55.1704C59.7615 54.4005 59.3763 53.4691 59.3763 52.3763C59.3763 52.1393 59.3929 51.9055 59.426 51.6748C59.4592 51.4442 59.5216 51.2172 59.6133 50.9939L57.4409 53.1663H56.1374C55.9531 54.0879 55.4988 54.845 54.7747 55.4374C54.0506 56.0299 53.2145 56.3262 52.2666 56.3262ZM63.3261 54.7462C63.9844 54.7462 64.544 54.5158 65.0048 54.055C65.4656 53.5942 65.696 53.0346 65.696 52.3763C65.696 51.718 65.4656 51.1585 65.0048 50.6976C64.544 50.2368 63.9844 50.0064 63.3261 50.0064C62.6678 50.0064 62.1082 50.2368 61.6474 50.6976C61.1866 51.1585 60.9562 51.718 60.9562 52.3763C60.9562 53.0346 61.1866 53.5942 61.6474 54.055C62.1082 54.5158 62.6678 54.7462 63.3261 54.7462ZM52.2666 54.7462C52.7669 54.7462 53.2179 54.6014 53.6198 54.3117C54.0216 54.0221 54.3078 53.6403 54.4785 53.1663H52.2666V51.5864H54.4785C54.3073 51.1124 54.0211 50.7306 53.6198 50.4409C53.2185 50.1512 52.7674 50.0064 52.2666 50.0064C51.6082 50.0064 51.0487 50.2368 50.5879 50.6976C50.1271 51.1585 49.8966 51.718 49.8966 52.3763C49.8966 53.0346 50.1271 53.5942 50.5879 54.055C51.0487 54.5158 51.6082 54.7462 52.2666 54.7462Z" fill="white"/>
</g>
<defs>
<clipPath id="clip0_3270_515">
<rect width="18.96" height="18.96" fill="white" transform="translate(29.6147 13.4999)"/>
</clipPath>
<clipPath id="clip1_3270_515">
<rect width="18.9592" height="18.9592" fill="white" transform="translate(48.3166 41.3167)"/>
</clipPath>
</defs>
</svg>
