<svg width="34" height="34" viewBox="0 0 34 34" fill="none" xmlns="http://www.w3.org/2000/svg">
<rect width="34" height="34" rx="17" fill="#F1F1F1"/>
<path d="M22.25 15.5V17C22.25 18.3924 21.6969 19.7277 20.7123 20.7123C19.7277 21.6969 18.3924 22.25 17 22.25M17 22.25C15.6076 22.25 14.2723 21.6969 13.2877 20.7123C12.3031 19.7277 11.75 18.3924 11.75 17V15.5M17 22.25V24.5M17 9.5C16.4033 9.5 15.831 9.73705 15.409 10.159C14.9871 10.581 14.75 11.1533 14.75 11.75V17C14.75 17.5967 14.9871 18.169 15.409 18.591C15.831 19.0129 16.4033 19.25 17 19.25C17.5967 19.25 18.169 19.0129 18.591 18.591C19.0129 18.169 19.25 17.5967 19.25 17V11.75C19.25 11.1533 19.0129 10.581 18.591 10.159C18.169 9.73705 17.5967 9.5 17 9.5Z" stroke="black" stroke-width="1.5" stroke-linecap="round" stroke-linejoin="round"/>
</svg>
