<svg width="38" height="38" viewBox="0 0 38 38" fill="none" xmlns="http://www.w3.org/2000/svg">
<rect width="38" height="38" rx="19" fill="#0078FF" fill-opacity="0.05"/>
<path d="M27 17C27 23 19 29 19 29C19 29 11 23 11 17C11 14.8783 11.8429 12.8434 13.3431 11.3431C14.8434 9.84285 16.8783 9 19 9C21.1217 9 23.1566 9.84285 24.6569 11.3431C26.1571 12.8434 27 14.8783 27 17Z" stroke="#0078FF" stroke-width="2" stroke-linecap="round" stroke-linejoin="round"/>
<path d="M19 20C20.6569 20 22 18.6569 22 17C22 15.3431 20.6569 14 19 14C17.3431 14 16 15.3431 16 17C16 18.6569 17.3431 20 19 20Z" stroke="#0078FF" stroke-width="2" stroke-linecap="round" stroke-linejoin="round"/>
</svg>
