<svg width="54" height="54" viewBox="0 0 54 54" fill="none" xmlns="http://www.w3.org/2000/svg">
<rect width="54" height="54" rx="27" fill="#0078FF"/>
<circle cx="27" cy="27" r="20.5" fill="#0078FF" stroke="white" stroke-width="3"/>
<path fill-rule="evenodd" clip-rule="evenodd" d="M30.766 19C31.323 19 31.869 19.1551 32.3429 19.448C32.8168 19.7408 33.1998 20.1598 33.449 20.658L34.835 23.429C35.079 23.329 35.319 23.221 35.555 23.105C35.7923 22.9864 36.0671 22.967 36.3187 23.0511C36.5704 23.1351 36.7784 23.3156 36.897 23.553C37.0155 23.7904 37.0349 24.0651 36.9509 24.3168C36.8669 24.5685 36.6863 24.7764 36.449 24.895C36.2086 25.002 35.9669 25.106 35.724 25.207L36.685 27.13C36.8935 27.547 37.0021 28.0068 37.002 28.473V31C37.0019 31.4221 36.9129 31.8394 36.7406 32.2247C36.5682 32.61 36.3166 32.9546 36.002 33.236V34.5C36.002 34.8978 35.8439 35.2794 35.5626 35.5607C35.2813 35.842 34.8998 36 34.502 36C34.1041 36 33.7226 35.842 33.4413 35.5607C33.16 35.2794 33.002 34.8978 33.002 34.5V34H21.002V34.5C21.002 34.8978 20.8439 35.2794 20.5626 35.5607C20.2813 35.842 19.8998 36 19.502 36C19.1041 36 18.7226 35.842 18.4413 35.5607C18.16 35.2794 18.002 34.8978 18.002 34.5V33.236C17.388 32.686 17.002 31.888 17.002 31V28.472C17.0021 28.0065 17.1107 27.5473 17.319 27.131L18.272 25.223C18.0306 25.1217 17.7923 25.0127 17.557 24.896C17.3208 24.7759 17.1413 24.5678 17.0571 24.3166C16.9729 24.0654 16.9908 23.7911 17.107 23.553C17.1656 23.4354 17.2469 23.3306 17.3461 23.2444C17.4453 23.1583 17.5605 23.0925 17.6851 23.0509C17.8097 23.0093 17.9414 22.9927 18.0724 23.0019C18.2035 23.0112 18.3314 23.0462 18.449 23.105C18.6856 23.2217 18.9256 23.3297 19.169 23.429L20.555 20.659C20.804 20.1606 21.1869 19.7414 21.6608 19.4484C22.1347 19.1554 22.6808 19.0001 23.238 19H30.766ZM22.502 28C22.1041 28 21.7226 28.158 21.4413 28.4393C21.16 28.7206 21.002 29.1022 21.002 29.5C21.002 29.8978 21.16 30.2794 21.4413 30.5607C21.7226 30.842 22.1041 31 22.502 31C22.8998 31 23.2813 30.842 23.5626 30.5607C23.8439 30.2794 24.002 29.8978 24.002 29.5C24.002 29.1022 23.8439 28.7206 23.5626 28.4393C23.2813 28.158 22.8998 28 22.502 28ZM31.502 28C31.1041 28 30.7226 28.158 30.4413 28.4393C30.16 28.7206 30.002 29.1022 30.002 29.5C30.002 29.8978 30.16 30.2794 30.4413 30.5607C30.7226 30.842 31.1041 31 31.502 31C31.8998 31 32.2813 30.842 32.5626 30.5607C32.8439 30.2794 33.002 29.8978 33.002 29.5C33.002 29.1022 32.8439 28.7206 32.5626 28.4393C32.2813 28.158 31.8998 28 31.502 28ZM30.766 21H23.238C23.0734 21 22.9113 21.0406 22.7662 21.1182C22.621 21.1958 22.4973 21.3081 22.406 21.445L22.344 21.553L21.074 24.091C22.622 24.555 24.708 25 27.002 25C29.144 25 31.103 24.612 32.612 24.183L32.929 24.091L31.66 21.553C31.5864 21.4058 31.4776 21.2791 31.3433 21.184C31.2089 21.0889 31.0532 21.0285 30.89 21.008L30.766 21Z" fill="white"/>
</svg>
