<svg width="38" height="38" viewBox="0 0 38 38" fill="none" xmlns="http://www.w3.org/2000/svg">
<rect width="38" height="38" rx="19" fill="#0078FF" fill-opacity="0.05"/>
<path d="M16 24V14H20C20.7956 14 21.5587 14.3161 22.1213 14.8787C22.6839 15.4413 23 16.2044 23 17C23 17.7956 22.6839 18.5587 22.1213 19.1213C21.5587 19.6839 20.7956 20 20 20H16M12 10H26C27.1046 10 28 10.8954 28 12V26C28 27.1046 27.1046 28 26 28H12C10.8954 28 10 27.1046 10 26V12C10 10.8954 10.8954 10 12 10Z" stroke="#0078FF" stroke-width="2" stroke-linecap="round" stroke-linejoin="round"/>
</svg>
