<svg width="95" height="95" viewBox="0 0 95 95" fill="none" xmlns="http://www.w3.org/2000/svg">
<rect x="3.5" y="3.5" width="88" height="88" rx="44" fill="#EDF7FF"/>
<rect x="3.5" y="3.5" width="88" height="88" rx="44" stroke="white" stroke-width="7"/>
<path d="M59.0734 62.4627L62.5172 65.9064C60.6568 67.371 58.6578 68.549 56.5203 69.4404C54.3828 70.3318 52.1464 70.8955 49.8109 71.1314V66.3814C51.4734 66.1439 53.0869 65.6887 54.6512 65.0158C56.2155 64.3429 57.6896 63.4918 59.0734 62.4627ZM71.1859 49.8751C70.8693 52.3293 70.2652 54.6156 69.3738 56.7341C68.4824 58.8526 67.306 60.7621 65.8446 62.4627L62.5196 59.1376C63.5487 57.8314 64.38 56.3969 65.0133 54.8342C65.6466 53.2714 66.0821 51.6184 66.3196 49.8751H71.1859ZM65.8422 32.5376C67.3464 34.2793 68.5639 36.2189 69.4949 38.3564C70.4259 40.4939 70.9896 42.7501 71.1859 45.1251H66.3172C66.0797 43.3439 65.6443 41.6711 65.0109 40.1068C64.3776 38.5424 63.5464 37.1277 62.5172 35.8626L65.8422 32.5376ZM45.0609 23.8689V28.6189C40.3109 29.2918 36.3724 31.4095 33.2453 34.972C30.1182 38.5345 28.5547 42.7106 28.5547 47.5001C28.5547 52.2501 30.1182 56.4064 33.2453 59.9689C36.3724 63.5314 40.3109 65.6689 45.0609 66.3814V71.1314C39.0047 70.4189 33.9483 67.8167 29.8918 63.3248C25.8353 58.8329 23.8063 53.558 23.8047 47.5001C23.8047 41.3647 25.8337 36.0606 29.8918 31.5876C33.9499 27.1147 39.0063 24.5418 45.0609 23.8689ZM49.8109 23.8689C52.1464 24.0668 54.3828 24.6115 56.5203 25.5029C58.6578 26.3943 60.6568 27.5913 62.5172 29.0939L59.1922 32.5376C57.7672 31.4689 56.263 30.5981 54.6797 29.9251C53.0964 29.2522 51.4734 28.8168 49.8109 28.6189V23.8689ZM46.1891 60.0876C45.5557 58.1876 44.7744 56.594 43.8449 55.3068C42.9155 54.0195 42.0146 52.8027 41.1422 51.6564C40.2698 50.5101 39.528 49.3123 38.9168 48.063C38.3056 46.8138 37.9985 45.2803 37.9953 43.4626C37.9953 40.8501 38.9255 38.6137 40.7859 36.7533C42.6464 34.8929 44.8828 33.9626 47.4953 33.9626C50.1078 33.9626 52.3443 34.8929 54.2047 36.7533C56.0651 38.6137 56.9953 40.8501 56.9953 43.4626C56.9953 45.2835 56.6889 46.8177 56.0762 48.0654C55.4634 49.3131 54.7209 50.5101 53.8484 51.6564C52.976 52.8027 52.0759 54.0203 51.1481 55.3091C50.2202 56.598 49.4381 58.1908 48.8016 60.0876H46.1891ZM47.4953 46.7283C48.4057 46.7283 49.1776 46.4116 49.8109 45.7783C50.4443 45.1449 50.7609 44.3731 50.7609 43.4626C50.7609 42.5522 50.4443 41.7804 49.8109 41.147C49.1776 40.5137 48.4057 40.197 47.4953 40.197C46.5849 40.197 45.813 40.5137 45.1797 41.147C44.5464 41.7804 44.2297 42.5522 44.2297 43.4626C44.2297 44.3731 44.5464 45.1449 45.1797 45.7783C45.813 46.4116 46.5849 46.7283 47.4953 46.7283Z" fill="#0078FF"/>
</svg>
