<svg width="48" height="63" viewBox="0 0 48 63" fill="none" xmlns="http://www.w3.org/2000/svg">
<ellipse cx="24.0016" cy="61.1322" rx="9.50943" ry="1.35849" fill="#82A7D0"/>
<rect x="22.6406" y="29.887" width="2.71698" height="31.6981" rx="1.35849" fill="#1D6EA7"/>
<circle cx="24" cy="24" r="24" fill="#269DF1"/>
<rect x="3.07812" y="3.0769" width="41.8461" height="41.8461" rx="20.3852" fill="white"/>
<rect x="3.07812" y="3.0769" width="41.8461" height="41.8461" rx="20.3852" fill="white"/>
<circle cx="23.999" cy="24" r="16.6321" fill="#269DF1" stroke="#269DF1" stroke-width="1.85983"/>
<g clip-path="url(#clip0_5698_4705)">
<path d="M24.1104 27.647C23.605 27.6479 23.1206 27.8491 22.7631 28.2064C22.4057 28.5636 22.2043 29.048 22.2031 29.5534V33.4523C22.2031 33.9581 22.4041 34.4432 22.7618 34.8009C23.1195 35.1586 23.6046 35.3596 24.1104 35.3596C24.6163 35.3596 25.1014 35.1586 25.4591 34.8009C25.8168 34.4432 26.0178 33.9581 26.0178 33.4523V33.4133V33.4151V29.5543C26.0168 29.049 25.8158 28.5647 25.4587 28.2073C25.1016 27.8499 24.6175 27.6484 24.1123 27.647H24.1104Z" fill="white"/>
<path d="M31.0256 15.9682H27.355C26.9103 14.5762 25.6279 13.5854 24.1136 13.5854C22.5994 13.5854 21.3179 14.5762 20.8795 15.9438L20.8732 15.9682H17.2505C16.9976 15.9682 16.755 16.0687 16.5762 16.2476C16.3973 16.4264 16.2969 16.669 16.2969 16.9219C16.2969 17.1748 16.3973 17.4174 16.5762 17.5962C16.755 17.7751 16.9976 17.8756 17.2505 17.8756H20.9212C21.1639 18.6898 21.691 19.3563 22.3838 19.7738L22.3983 19.782C19.7982 20.5672 17.9343 22.9337 17.918 25.7385V30.745C17.9218 31.1609 18.0886 31.5587 18.3826 31.8529C18.6766 32.1471 19.0743 32.3141 19.4902 32.3181H20.7781V29.6011C20.7781 28.7035 21.1347 27.8427 21.7694 27.208C22.4041 26.5733 23.2649 26.2167 24.1625 26.2167C25.0601 26.2167 25.921 26.5733 26.5557 27.208C27.1904 27.8427 27.547 28.7035 27.547 29.6011V32.3181H28.8339C29.2504 32.3153 29.6489 32.1487 29.9435 31.8543C30.238 31.5599 30.4049 31.1614 30.408 30.745V25.7874C30.4074 24.4505 29.9752 23.1495 29.1758 22.0779C28.3764 21.0063 27.2525 20.2214 25.9711 19.8399L25.9277 19.8291C26.636 19.4067 27.161 18.7348 27.3994 17.9453L27.4057 17.9218H31.0763C31.3291 17.921 31.5712 17.8203 31.7499 17.6416C31.9286 17.4629 32.0293 17.2208 32.03 16.9681C32.0199 16.706 31.9114 16.4574 31.7261 16.2719C31.5407 16.0864 31.2922 15.9776 31.0302 15.9673H31.0283L31.0256 15.9682ZM24.1136 18.8745C23.7364 18.8745 23.3676 18.7626 23.054 18.5531C22.7403 18.3435 22.4959 18.0456 22.3515 17.6971C22.2071 17.3486 22.1694 16.9651 22.243 16.5951C22.3166 16.2251 22.4982 15.8852 22.765 15.6185C23.0317 15.3518 23.3715 15.1701 23.7415 15.0965C24.1115 15.0229 24.495 15.0607 24.8435 15.2051C25.192 15.3494 25.4899 15.5939 25.6995 15.9075C25.9091 16.2212 26.021 16.59 26.021 16.9672L26.0219 17.0215C26.0219 18.0449 25.1923 18.8745 24.1689 18.8745L24.1118 18.8736H24.1145L24.1136 18.8745Z" fill="white"/>
</g>
<defs>
<clipPath id="clip0_5698_4705">
<rect width="15.3962" height="21.7358" fill="white" transform="translate(16.2969 13.5854)"/>
</clipPath>
</defs>
</svg>
