<svg width="49" height="63" viewBox="0 0 49 63" fill="none" xmlns="http://www.w3.org/2000/svg">
<ellipse cx="24.5016" cy="61.1319" rx="9.50943" ry="1.35849" fill="#92ACC8"/>
<rect x="23.1406" y="29.8867" width="2.71698" height="31.6981" rx="1.35849" fill="#114886"/>
<circle cx="24.5" cy="24" r="24" fill="#195CA7"/>
<rect x="3.57812" y="3.07715" width="41.8461" height="41.8461" rx="20.3852" fill="white"/>
<circle cx="24.499" cy="24" r="16.6321" fill="#195CA7" stroke="#195CA7" stroke-width="1.85983"/>
<path fill-rule="evenodd" clip-rule="evenodd" d="M27.7664 17.0566C28.2499 17.0567 28.7238 17.1913 29.1351 17.4454C29.5464 17.6996 29.8788 18.0633 30.0951 18.4957L31.298 20.9007C31.5098 20.8139 31.7181 20.7201 31.9229 20.6195C32.1289 20.5166 32.3674 20.4997 32.5858 20.5727C32.8043 20.6456 32.9848 20.8023 33.0877 21.0083C33.1906 21.2143 33.2074 21.4528 33.1345 21.6712C33.0616 21.8896 32.9049 22.0702 32.6988 22.1731C32.4902 22.2659 32.2804 22.3562 32.0696 22.4438L32.9037 24.1129C33.0847 24.4748 33.1789 24.8738 33.1788 25.2785V27.4717C33.1788 27.8381 33.1015 28.2003 32.9519 28.5347C32.8024 28.8691 32.5839 29.1682 32.3109 29.4124V30.5095C32.3109 30.8548 32.1737 31.1859 31.9296 31.43C31.6854 31.6742 31.3543 31.8114 31.009 31.8114C30.6637 31.8114 30.3326 31.6742 30.0884 31.43C29.8443 31.1859 29.7071 30.8548 29.7071 30.5095V30.0755H19.292V30.5095C19.292 30.8548 19.1548 31.1859 18.9107 31.43C18.6665 31.6742 18.3354 31.8114 17.9901 31.8114C17.6448 31.8114 17.3137 31.6742 17.0696 31.43C16.8254 31.1859 16.6882 30.8548 16.6882 30.5095V29.4124C16.1553 28.9351 15.8203 28.2425 15.8203 27.4717V25.2776C15.8205 24.8736 15.9147 24.4751 16.0954 24.1137L16.9226 22.4577C16.7131 22.3698 16.5063 22.2752 16.302 22.1739C16.097 22.0697 15.9412 21.8891 15.8682 21.671C15.7951 21.453 15.8106 21.215 15.9114 21.0083C15.9624 20.9063 16.0329 20.8152 16.119 20.7405C16.2051 20.6657 16.3051 20.6086 16.4132 20.5725C16.5214 20.5364 16.6356 20.522 16.7494 20.53C16.8631 20.5381 16.9742 20.5685 17.0762 20.6195C17.2816 20.7207 17.4899 20.8145 17.7011 20.9007L18.904 18.4965C19.1202 18.064 19.4525 17.7001 19.8638 17.4458C20.2751 17.1915 20.7491 17.0567 21.2327 17.0566H27.7664ZM20.5939 24.868C20.2486 24.868 19.9175 25.0051 19.6733 25.2493C19.4292 25.4934 19.292 25.8246 19.292 26.1698C19.292 26.5151 19.4292 26.8463 19.6733 27.0904C19.9175 27.3346 20.2486 27.4717 20.5939 27.4717C20.9392 27.4717 21.2703 27.3346 21.5145 27.0904C21.7586 26.8463 21.8958 26.5151 21.8958 26.1698C21.8958 25.8246 21.7586 25.4934 21.5145 25.2493C21.2703 25.0051 20.9392 24.868 20.5939 24.868ZM28.4052 24.868C28.0599 24.868 27.7288 25.0051 27.4846 25.2493C27.2405 25.4934 27.1033 25.8246 27.1033 26.1698C27.1033 26.5151 27.2405 26.8463 27.4846 27.0904C27.7288 27.3346 28.0599 27.4717 28.4052 27.4717C28.7505 27.4717 29.0816 27.3346 29.3258 27.0904C29.5699 26.8463 29.7071 26.5151 29.7071 26.1698C29.7071 25.8246 29.5699 25.4934 29.3258 25.2493C29.0816 25.0051 28.7505 24.868 28.4052 24.868ZM27.7664 18.7925H21.2327C21.0898 18.7925 20.9492 18.8277 20.8232 18.8951C20.6973 18.9625 20.5899 19.0599 20.5106 19.1787L20.4568 19.2725L19.3545 21.4752C20.698 21.878 22.5085 22.2642 24.4996 22.2642C26.3587 22.2642 28.0589 21.9274 29.3686 21.5551L29.6437 21.4752L28.5424 19.2725C28.4785 19.1447 28.3841 19.0347 28.2675 18.9522C28.1509 18.8697 28.0158 18.8172 27.874 18.7994L27.7673 18.7925H27.7664Z" fill="white"/>
</svg>
