<svg width="49" height="63" viewBox="0 0 49 63" fill="none" xmlns="http://www.w3.org/2000/svg">
<ellipse cx="24.5016" cy="61.1319" rx="9.50943" ry="1.35849" fill="#DDC699"/>
<rect x="23.1406" y="29.8867" width="2.71698" height="31.6981" rx="1.35849" fill="#BA841C"/>
<circle cx="24.5" cy="24" r="24" fill="#F4AD22"/>
<rect x="3.57812" y="3.07703" width="41.8471" height="41.8471" rx="20.3852" fill="white"/>
<circle cx="24.4994" cy="24.0008" r="16.6324" fill="#F4AD22" stroke="#F4AD22" stroke-width="1.85983"/>
<g clip-path="url(#clip0_5962_2654)">
<path d="M19.2722 30.7547C18.088 30.7547 17.0788 30.3372 16.2445 29.5024C15.4102 28.6675 14.9928 27.6583 14.9922 26.4747C14.9916 25.2911 15.4091 24.2819 16.2445 23.447C17.08 22.6122 18.0892 22.1947 19.2722 22.1947H29.2017L27.4897 20.4827H24.4081V18.7708H27.4683C27.6966 18.7708 27.9143 18.8136 28.1214 18.8992C28.3286 18.9848 28.5103 19.106 28.6667 19.2629L31.6413 22.2375C32.7541 22.3231 33.6814 22.7725 34.4233 23.5857C35.1651 24.3989 35.5361 25.3619 35.5361 26.4747C35.5361 27.6588 35.1186 28.6683 34.2837 29.5032C33.4489 30.3381 32.4396 30.7552 31.2561 30.7547C30.0725 30.7541 29.0633 30.3367 28.2284 29.5024C27.3935 28.668 26.9761 27.6588 26.9761 26.4747C26.9761 26.2179 26.9941 25.9645 27.03 25.7146C27.066 25.4646 27.1336 25.2187 27.2329 24.9767L24.8789 27.3307H23.4665C23.2668 28.3294 22.7746 29.1497 21.9899 29.7917C21.2053 30.4337 20.2994 30.7547 19.2722 30.7547ZM31.2561 29.0427C31.9694 29.0427 32.5757 28.793 33.0751 28.2937C33.5744 27.7944 33.8241 27.188 33.8241 26.4747C33.8241 25.7614 33.5744 25.155 33.0751 24.6557C32.5757 24.1564 31.9694 23.9067 31.2561 23.9067C30.5428 23.9067 29.9364 24.1564 29.4371 24.6557C28.9378 25.155 28.6881 25.7614 28.6881 26.4747C28.6881 27.188 28.9378 27.7944 29.4371 28.2937C29.9364 28.793 30.5428 29.0427 31.2561 29.0427ZM19.2722 29.0427C19.8143 29.0427 20.3031 28.8858 20.7385 28.5719C21.1739 28.258 21.484 27.8443 21.6689 27.3307H19.2722V25.6187H21.6689C21.4835 25.1051 21.1733 24.6914 20.7385 24.3775C20.3036 24.0637 19.8149 23.9067 19.2722 23.9067C18.5588 23.9067 17.9525 24.1564 17.4532 24.6557C16.9538 25.155 16.7042 25.7614 16.7042 26.4747C16.7042 27.188 16.9538 27.7944 17.4532 28.2937C17.9525 28.793 18.5588 29.0427 19.2722 29.0427Z" fill="white"/>
</g>
<defs>
<clipPath id="clip0_5962_2654">
<rect width="20.5439" height="20.5439" fill="white" transform="translate(14.9922 14.491)"/>
</clipPath>
</defs>
</svg>
