<svg width="48" height="63" viewBox="0 0 48 63" fill="none" xmlns="http://www.w3.org/2000/svg">
<ellipse cx="24.0016" cy="61.1322" rx="9.50943" ry="1.35849" fill="#D8D1DE"/>
<rect x="22.6406" y="29.887" width="2.71698" height="31.6981" rx="1.35849" fill="#5E1F85"/>
<circle cx="24" cy="24" r="24" fill="#8732BB"/>
<rect x="3.07812" y="3.0769" width="41.8461" height="41.8461" rx="20.3852" fill="white"/>
<rect x="3.07812" y="3.0769" width="41.8461" height="41.8461" rx="20.3852" fill="white"/>
<rect x="2.64062" y="2.64111" width="42.7179" height="42.7179" rx="20.8099" fill="white"/>
<circle cx="23.998" cy="24.0005" r="16.9786" fill="#8732BB" stroke="#8732BB" stroke-width="1.89858"/>
<g clip-path="url(#clip0_5698_4735)">
<path d="M33.5871 25.8581C33.1787 25.4415 32.5419 25.4687 32.1128 25.8581L28.9148 28.7354C28.5223 29.0897 28.0337 29.2821 27.5305 29.2805H23.4372C23.2903 29.2805 23.1495 29.2149 23.0456 29.0981C22.9418 28.9813 22.8835 28.8228 22.8835 28.6576C22.8835 28.4924 22.9418 28.3339 23.0456 28.2171C23.1495 28.1002 23.2903 28.0346 23.4372 28.0346H26.1468C26.6971 28.0346 27.2096 27.6102 27.2975 26.9989C27.3084 26.9287 27.3137 26.8576 27.3135 26.7863C27.3129 26.4563 27.196 26.14 26.9884 25.9068C26.7807 25.6737 26.4993 25.5427 26.206 25.5427H20.6685C19.7346 25.543 18.8291 25.9044 18.1039 26.5663L16.4946 28.0346H14.5772C14.4303 28.0346 14.2895 28.1002 14.1856 28.2171C14.0818 28.3339 14.0234 28.4924 14.0234 28.6576V32.3954C14.0234 32.5606 14.0818 32.7191 14.1856 32.8359C14.2895 32.9527 14.4303 33.0184 14.5772 33.0184H26.9248C27.4279 33.0188 27.9161 32.8266 28.3092 32.4733L33.5432 27.7621C33.6691 27.6488 33.7715 27.5059 33.8432 27.3435C33.915 27.1811 33.9543 27.003 33.9585 26.8217C33.9627 26.6403 33.9317 26.4602 33.8676 26.2938C33.8035 26.1273 33.7076 25.9786 33.5871 25.8581Z" fill="white"/>
<path d="M28.1137 13.769C28.6233 13.769 29.1115 13.998 29.4715 14.4049L31.2552 16.4212C31.4334 16.6228 31.5749 16.862 31.6713 17.1253C31.7678 17.3886 31.8175 17.6708 31.8175 17.9558C31.8175 18.2408 31.7678 18.5231 31.6713 18.7864C31.5749 19.0497 31.4334 19.2889 31.2552 19.4905L29.9464 20.9699C29.6289 21.3285 29.2104 21.5501 28.7635 21.5963C28.3166 21.6425 27.8695 21.5104 27.4997 21.2229L27.4477 21.1793L24.5351 24.4724C24.3096 24.7264 24.018 24.8918 23.7032 24.9443L23.5942 24.9594L23.4848 24.9644H22.9044C22.4023 24.9644 21.9799 24.5396 21.9185 23.944L21.9141 23.8449V23.1889C21.9141 22.7948 22.0369 22.413 22.2755 22.0917L22.3493 22.0016L22.5543 21.7698C22.6472 21.6649 22.7731 21.6059 22.9044 21.6058H23.3996V21.0461C23.3996 20.9089 23.4442 20.7766 23.5247 20.6742C23.6053 20.5717 23.7164 20.5062 23.8369 20.4902L23.8948 20.4863H24.39V19.9265C24.39 19.8035 24.4258 19.6839 24.492 19.5862L24.5351 19.5302L25.262 18.7079L25.2243 18.6502C25.0266 18.325 24.9106 17.9453 24.8886 17.5514L24.8852 17.4193C24.8852 16.8433 25.0877 16.2914 25.4477 15.8844L26.7564 14.4049C27.1165 13.9981 27.6046 13.7694 28.1137 13.769ZM28.3588 16.5679H28.3489C28.0863 16.5679 27.8344 16.6858 27.6487 16.8958C27.4629 17.1058 27.3586 17.3905 27.3586 17.6874C27.3586 17.9844 27.4629 18.2691 27.6487 18.4791C27.8344 18.689 28.0863 18.807 28.3489 18.807H28.3588C28.6215 18.807 28.8734 18.689 29.0591 18.4791C29.2449 18.2691 29.3492 17.9844 29.3492 17.6874C29.3492 17.3905 29.2449 17.1058 29.0591 16.8958C28.8734 16.6858 28.6215 16.5679 28.3588 16.5679Z" fill="white"/>
</g>
<defs>
<clipPath id="clip0_5698_4735">
<rect width="19.935" height="19.935" fill="white" transform="translate(14.0234 13.0833)"/>
</clipPath>
</defs>
</svg>
