<svg width="48" height="63" viewBox="0 0 48 63" fill="none" xmlns="http://www.w3.org/2000/svg">
<ellipse cx="24.0016" cy="61.1322" rx="9.50943" ry="1.35849" fill="#3BA49B" fill-opacity="0.52"/>
<rect x="22.6406" y="29.887" width="2.71698" height="31.6981" rx="1.35849" fill="#3BA49B"/>
<circle cx="24" cy="24" r="24" fill="#4CD9CC"/>
<rect x="3.07812" y="3.0769" width="41.8461" height="41.8461" rx="20.3852" fill="white"/>
<circle cx="24.0068" cy="24" r="16.6321" fill="#4CD9CC" stroke="#4CD9CC" stroke-width="1.85983"/>
<path d="M23.0703 26.2634H24.8816V41.6597H23.0703V26.2634Z" fill="white"/>
<path d="M8.78906 13.2307L10.0699 11.9499L24.6099 26.4899L23.3291 27.7707L8.78906 13.2307Z" fill="white"/>
<path d="M38.6953 13.3643L37.4145 12.0835L23.0078 26.4901L24.2886 27.7709L38.6953 13.3643Z" fill="white"/>
<path fill-rule="evenodd" clip-rule="evenodd" d="M17.9717 26.3679C18.2384 26.3679 18.4998 26.4422 18.7266 26.5824C18.9534 26.7225 19.1368 26.9231 19.2561 27.1616L19.9195 28.4881C20.0364 28.4402 20.1512 28.3885 20.2642 28.333C20.3778 28.2763 20.5094 28.267 20.6298 28.3072C20.7503 28.3474 20.8499 28.4338 20.9066 28.5475C20.9634 28.6611 20.9727 28.7926 20.9325 28.9131C20.8922 29.0336 20.8058 29.1331 20.6922 29.1899C20.5771 29.2411 20.4614 29.2909 20.3451 29.3392L20.8052 30.2598C20.905 30.4594 20.957 30.6795 20.9569 30.9027V32.1124C20.9569 32.3144 20.9143 32.5142 20.8318 32.6986C20.7493 32.8831 20.6288 33.0481 20.4782 33.1828V33.7878C20.4782 33.9783 20.4025 34.1609 20.2679 34.2956C20.1332 34.4302 19.9506 34.5059 19.7601 34.5059C19.5697 34.5059 19.3871 34.4302 19.2524 34.2956C19.1177 34.1609 19.0421 33.9783 19.0421 33.7878V33.5485H13.2976V33.7878C13.2976 33.9783 13.222 34.1609 13.0873 34.2956C12.9527 34.4302 12.77 34.5059 12.5796 34.5059C12.3891 34.5059 12.2065 34.4302 12.0718 34.2956C11.9372 34.1609 11.8615 33.9783 11.8615 33.7878V33.1828C11.5676 32.9195 11.3828 32.5375 11.3828 32.1124V30.9022C11.3829 30.6794 11.4349 30.4596 11.5346 30.2603L11.9908 29.3469C11.8752 29.2984 11.7611 29.2462 11.6485 29.1904C11.5354 29.1329 11.4495 29.0333 11.4092 28.913C11.3689 28.7927 11.3775 28.6615 11.4331 28.5475C11.4612 28.4912 11.5001 28.441 11.5475 28.3997C11.595 28.3585 11.6502 28.327 11.7098 28.3071C11.7695 28.2872 11.8325 28.2792 11.8952 28.2837C11.958 28.2881 12.0192 28.3049 12.0755 28.333C12.1888 28.3888 12.3037 28.4406 12.4202 28.4881L13.0836 27.1621C13.2029 26.9235 13.3862 26.7228 13.613 26.5826C13.8399 26.4423 14.1013 26.368 14.368 26.3679H17.9717ZM14.0157 30.6763C13.8252 30.6763 13.6426 30.7519 13.5079 30.8866C13.3733 31.0212 13.2976 31.2039 13.2976 31.3943C13.2976 31.5848 13.3733 31.7674 13.5079 31.9021C13.6426 32.0367 13.8252 32.1124 14.0157 32.1124C14.2061 32.1124 14.3888 32.0367 14.5234 31.9021C14.6581 31.7674 14.7337 31.5848 14.7337 31.3943C14.7337 31.2039 14.6581 31.0212 14.5234 30.8866C14.3888 30.7519 14.2061 30.6763 14.0157 30.6763ZM18.324 30.6763C18.1336 30.6763 17.9509 30.7519 17.8163 30.8866C17.6816 31.0212 17.606 31.2039 17.606 31.3943C17.606 31.5848 17.6816 31.7674 17.8163 31.9021C17.9509 32.0367 18.1336 32.1124 18.324 32.1124C18.5145 32.1124 18.6971 32.0367 18.8318 31.9021C18.9664 31.7674 19.0421 31.5848 19.0421 31.3943C19.0421 31.2039 18.9664 31.0212 18.8318 30.8866C18.6971 30.7519 18.5145 30.6763 18.324 30.6763ZM17.9717 27.3253H14.368C14.2892 27.3253 14.2116 27.3448 14.1422 27.3819C14.0727 27.4191 14.0135 27.4728 13.9697 27.5384L13.9401 27.5901L13.3321 28.805C14.0731 29.0271 15.0717 29.2401 16.1699 29.2401C17.1952 29.2401 18.133 29.0544 18.8554 28.849L19.0071 28.805L18.3997 27.5901C18.3644 27.5196 18.3124 27.4589 18.2481 27.4134C18.1838 27.3679 18.1092 27.339 18.0311 27.3292L17.9722 27.3253H17.9717Z" fill="white"/>
<g clip-path="url(#clip0_5698_4634)">
<path d="M32.6632 31.9753C32.4254 31.9758 32.1974 32.0704 32.0292 32.2386C31.8609 32.4067 31.7662 32.6346 31.7656 32.8725V34.7072C31.7656 34.9453 31.8602 35.1736 32.0285 35.3419C32.1968 35.5102 32.4251 35.6048 32.6632 35.6048C32.9012 35.6048 33.1295 35.5102 33.2979 35.3419C33.4662 35.1736 33.5608 34.9453 33.5608 34.7072V34.6889V34.6898V32.8729C33.5603 32.6351 33.4657 32.4072 33.2977 32.239C33.1296 32.0708 32.9018 31.976 32.664 31.9753H32.6632Z" fill="white"/>
<path d="M35.9156 26.4797H34.1882C33.9789 25.8247 33.3754 25.3584 32.6628 25.3584C31.9503 25.3584 31.3472 25.8247 31.1409 26.4682L31.1379 26.4797H29.4332C29.3141 26.4797 29.2 26.527 29.1158 26.6112C29.0317 26.6953 28.9844 26.8095 28.9844 26.9285C28.9844 27.0475 29.0317 27.1617 29.1158 27.2458C29.2 27.33 29.3141 27.3773 29.4332 27.3773H31.1605C31.2747 27.7604 31.5228 28.0741 31.8488 28.2706L31.8556 28.2744C30.632 28.6439 29.7549 29.7576 29.7473 31.0775V33.4335C29.749 33.6292 29.8275 33.8164 29.9659 33.9548C30.1043 34.0933 30.2914 34.1719 30.4871 34.1738H31.0932V32.8952C31.0932 32.4728 31.261 32.0677 31.5597 31.769C31.8584 31.4703 32.2635 31.3025 32.6859 31.3025C33.1083 31.3025 33.5134 31.4703 33.8121 31.769C34.1107 32.0677 34.2785 32.4728 34.2785 32.8952V34.1738H34.8842C35.0801 34.1724 35.2677 34.094 35.4063 33.9555C35.5449 33.817 35.6234 33.6294 35.6249 33.4335V31.1005C35.6246 30.4714 35.4213 29.8591 35.0451 29.3548C34.6689 28.8506 34.14 28.4812 33.537 28.3017L33.5165 28.2966C33.8499 28.0978 34.0969 27.7816 34.2091 27.4101L34.2121 27.399H35.9394C36.0583 27.3987 36.1723 27.3513 36.2564 27.2672C36.3405 27.1831 36.3879 27.0692 36.3882 26.9502C36.3835 26.8269 36.3324 26.7099 36.2452 26.6226C36.1579 26.5353 36.041 26.4841 35.9177 26.4793H35.9168L35.9156 26.4797ZM32.6628 27.8474C32.4853 27.8474 32.3118 27.7947 32.1642 27.6961C32.0166 27.5975 31.9015 27.4573 31.8336 27.2933C31.7657 27.1293 31.7479 26.9488 31.7825 26.7747C31.8172 26.6006 31.9026 26.4407 32.0282 26.3151C32.1537 26.1896 32.3136 26.1041 32.4877 26.0695C32.6619 26.0349 32.8423 26.0526 33.0063 26.1206C33.1703 26.1885 33.3105 26.3035 33.4091 26.4511C33.5078 26.5987 33.5604 26.7723 33.5604 26.9498L33.5608 26.9754C33.5608 27.457 33.1704 27.8474 32.6888 27.8474L32.662 27.8469H32.6633L32.6628 27.8474Z" fill="white"/>
</g>
<path d="M25.3491 9.05664C25.7074 9.05631 26.0535 9.1869 26.3222 9.42385C26.5909 9.6608 26.7638 9.98778 26.8083 10.3433C26.8529 10.6988 26.766 11.0583 26.564 11.3542C26.362 11.6501 26.0588 11.862 25.7116 11.95L24.5132 14.6887H25.643C25.9949 14.6886 26.3383 14.7969 26.6266 14.9987C26.9149 15.2006 27.134 15.4863 27.2542 15.8171L27.8988 17.5909L28.127 17.7045C28.2133 17.7477 28.2902 17.8074 28.3535 17.8803C28.4167 17.9532 28.4649 18.0379 28.4955 18.1294C28.526 18.2209 28.5382 18.3176 28.5313 18.4139C28.5245 18.5101 28.4987 18.6041 28.4556 18.6904C28.4124 18.7767 28.3527 18.8537 28.2798 18.9169C28.2069 18.9801 28.1223 19.0284 28.0307 19.0589C27.9392 19.0894 27.8425 19.1016 27.7463 19.0947C27.65 19.0879 27.556 19.0622 27.4697 19.019L26.98 18.7741C26.8118 18.69 26.6822 18.5445 26.6181 18.3676L25.8732 16.3195C25.856 16.2723 25.8247 16.2315 25.7835 16.2027C25.7423 16.1739 25.6933 16.1584 25.643 16.1584H24.5136C23.4543 16.1584 22.7432 15.0712 23.1678 14.1005L23.5807 13.1568L22.9004 12.8164L21.2696 13.6318C21.1832 13.6758 21.0889 13.7022 20.9923 13.7096C20.8956 13.717 20.7984 13.7052 20.7063 13.6748C20.6143 13.6445 20.5291 13.5962 20.4558 13.5328C20.3824 13.4693 20.3224 13.392 20.2791 13.3053C20.2358 13.2185 20.2101 13.1241 20.2035 13.0274C20.1968 12.9306 20.2094 12.8336 20.2405 12.7417C20.2715 12.6499 20.3205 12.5651 20.3845 12.4923C20.4485 12.4194 20.5263 12.36 20.6133 12.3174L22.3529 11.4476C22.5229 11.3626 22.7104 11.3183 22.9004 11.3183C23.0905 11.3183 23.278 11.3626 23.448 11.4476L24.1698 11.8085L24.2869 11.5411C24.088 11.3331 23.9546 11.0712 23.9033 10.7881C23.8519 10.5049 23.8849 10.2129 23.998 9.94827C24.1111 9.68366 24.2995 9.45809 24.5397 9.29959C24.7799 9.14108 25.0614 9.0566 25.3491 9.05664ZM20.0511 13.837L20.8523 14.4012C20.6818 14.6451 20.5624 14.9211 20.5014 15.2124C20.4404 15.5038 20.4391 15.8044 20.4974 16.0963C20.5558 16.3882 20.6727 16.6652 20.8411 16.9106C21.0094 17.1561 21.2258 17.3649 21.477 17.5245C21.7283 17.684 22.0093 17.791 22.303 17.839C22.5968 17.887 22.8972 17.8751 23.1862 17.8038C23.4752 17.7325 23.7467 17.6034 23.9845 17.4243C24.2222 17.2453 24.4212 17.0199 24.5695 16.7618L24.6194 16.6697L25.4912 17.1154C25.2944 17.4982 25.0221 17.8372 24.6906 18.1117C24.3591 18.3863 23.9754 18.5908 23.5626 18.7129C23.1498 18.8349 22.7166 18.872 22.2891 18.8219C21.8616 18.7717 21.4487 18.6354 21.0753 18.4212C20.702 18.2069 20.376 17.9192 20.1171 17.5753C19.8581 17.2315 19.6716 16.8387 19.5687 16.4208C19.4659 16.0028 19.4489 15.5683 19.5188 15.1436C19.5886 14.7188 19.7439 14.3127 19.9752 13.9497L20.0511 13.837Z" fill="white"/>
<defs>
<clipPath id="clip0_5698_4634">
<rect width="7.24528" height="10.2286" fill="white" transform="translate(28.9844 25.3584)"/>
</clipPath>
</defs>
</svg>
