<svg width="48" height="63" viewBox="0 0 48 63" fill="none" xmlns="http://www.w3.org/2000/svg">
<ellipse cx="24.0018" cy="61.1322" rx="9.50964" ry="1.35852" fill="#1E6EA7" fill-opacity="0.44"/>
<rect x="22.6445" y="29.887" width="2.71704" height="31.6988" rx="1.35852" fill="#1E6EA7"/>
<circle cx="24" cy="24" r="24" fill="#269DF1"/>
<rect x="3.07812" y="3.07697" width="41.8471" height="41.8471" rx="20.3852" fill="white"/>
<circle cx="24.015" cy="24.0007" r="16.6324" fill="#269DF1" stroke="#269DF1" stroke-width="1.85983"/>
<g clip-path="url(#clip0_5796_3951)">
<path d="M18.7761 30.7547C17.5919 30.7547 16.5827 30.3372 15.7484 29.5024C14.9141 28.6675 14.4967 27.6583 14.4961 26.4747C14.4955 25.2911 14.913 24.2819 15.7484 23.447C16.5839 22.6122 17.5931 22.1947 18.7761 22.1947H28.7056L26.9936 20.4827H23.912V18.7708H26.9722C27.2005 18.7708 27.4182 18.8136 27.6253 18.8992C27.8325 18.9848 28.0142 19.106 28.1706 19.2629L31.1452 22.2375C32.258 22.3231 33.1853 22.7725 33.9272 23.5857C34.669 24.3989 35.04 25.3619 35.04 26.4747C35.04 27.6588 34.6225 28.6683 33.7876 29.5032C32.9528 30.3381 31.9435 30.7552 30.76 30.7547C29.5764 30.7541 28.5672 30.3367 27.7323 29.5024C26.8975 28.668 26.48 27.6588 26.48 26.4747C26.48 26.2179 26.498 25.9645 26.5339 25.7146C26.5699 25.4646 26.6375 25.2187 26.7368 24.9767L24.3828 27.3307H22.9704C22.7707 28.3294 22.2785 29.1497 21.4938 29.7917C20.7092 30.4337 19.8033 30.7547 18.7761 30.7547ZM30.76 29.0427C31.4733 29.0427 32.0796 28.793 32.579 28.2937C33.0783 27.7944 33.328 27.188 33.328 26.4747C33.328 25.7614 33.0783 25.155 32.579 24.6557C32.0796 24.1564 31.4733 23.9067 30.76 23.9067C30.0467 23.9067 29.4403 24.1564 28.941 24.6557C28.4417 25.155 28.192 25.7614 28.192 26.4747C28.192 27.188 28.4417 27.7944 28.941 28.2937C29.4403 28.793 30.0467 29.0427 30.76 29.0427ZM18.7761 29.0427C19.3182 29.0427 19.807 28.8858 20.2424 28.5719C20.6778 28.258 20.988 27.8443 21.1729 27.3307H18.7761V25.6187H21.1729C20.9874 25.1051 20.6772 24.6914 20.2424 24.3775C19.8075 24.0637 19.3188 23.9067 18.7761 23.9067C18.0627 23.9067 17.4564 24.1564 16.9571 24.6557C16.4577 25.155 16.2081 25.7614 16.2081 26.4747C16.2081 27.188 16.4577 27.7944 16.9571 28.2937C17.4564 28.793 18.0627 29.0427 18.7761 29.0427Z" fill="white"/>
</g>
<defs>
<clipPath id="clip0_5796_3951">
<rect width="20.5439" height="20.5439" fill="white" transform="translate(14.4961 14.4909)"/>
</clipPath>
</defs>
</svg>
