<svg width="48" height="63" viewBox="0 0 48 63" fill="none" xmlns="http://www.w3.org/2000/svg">
<ellipse cx="24.0016" cy="61.1322" rx="9.50943" ry="1.35849" fill="#82A7D0"/>
<rect x="22.6406" y="29.887" width="2.71698" height="31.6981" rx="1.35849" fill="#0053B1"/>
<circle cx="24" cy="24" r="24" fill="#0078FF"/>
<rect x="3.07812" y="3.0769" width="41.8461" height="41.8461" rx="20.3852" fill="white"/>
<rect x="3.07812" y="3.0769" width="41.8461" height="41.8461" rx="20.3852" fill="white"/>
<circle cx="23.999" cy="23.9998" r="16.6321" fill="#0078FF" stroke="#0078FF" stroke-width="1.85983"/>
<path fill-rule="evenodd" clip-rule="evenodd" d="M27.2664 17.0564C27.7499 17.0564 28.2238 17.191 28.6351 17.4452C29.0464 17.6994 29.3788 18.063 29.5951 18.4954L30.798 20.9004C31.0098 20.8136 31.2181 20.7199 31.4229 20.6192C31.6289 20.5163 31.8674 20.4995 32.0858 20.5724C32.3043 20.6453 32.4848 20.802 32.5877 21.0081C32.6906 21.2141 32.7074 21.4525 32.6345 21.671C32.5616 21.8894 32.4049 22.0699 32.1988 22.1728C31.9902 22.2657 31.7804 22.3559 31.5696 22.4436L32.4037 24.1126C32.5847 24.4745 32.6789 24.8736 32.6788 25.2782V27.4715C32.6788 27.8378 32.6015 28.2 32.4519 28.5344C32.3024 28.8689 32.0839 29.1679 31.8109 29.4122V30.5092C31.8109 30.8545 31.6737 31.1856 31.4296 31.4298C31.1854 31.674 30.8543 31.8111 30.509 31.8111C30.1637 31.8111 29.8326 31.674 29.5884 31.4298C29.3443 31.1856 29.2071 30.8545 29.2071 30.5092V30.0753H18.792V30.5092C18.792 30.8545 18.6548 31.1856 18.4107 31.4298C18.1665 31.674 17.8354 31.8111 17.4901 31.8111C17.1448 31.8111 16.8137 31.674 16.5696 31.4298C16.3254 31.1856 16.1882 30.8545 16.1882 30.5092V29.4122C15.6553 28.9348 15.3203 28.2422 15.3203 27.4715V25.2774C15.3205 24.8733 15.4147 24.4748 15.5954 24.1135L16.4226 22.4575C16.2131 22.3695 16.0063 22.2749 15.802 22.1737C15.597 22.0694 15.4412 21.8888 15.3682 21.6708C15.2951 21.4528 15.3106 21.2147 15.4114 21.0081C15.4624 20.906 15.5329 20.815 15.619 20.7402C15.7051 20.6655 15.8051 20.6084 15.9132 20.5723C16.0214 20.5362 16.1356 20.5217 16.2494 20.5298C16.3631 20.5378 16.4742 20.5682 16.5762 20.6192C16.7816 20.7205 16.9899 20.8142 17.2011 20.9004L18.404 18.4963C18.6202 18.0637 18.9525 17.6999 19.3638 17.4456C19.7751 17.1913 20.2491 17.0565 20.7327 17.0564H27.2664ZM20.0939 24.8677C19.7486 24.8677 19.4175 25.0049 19.1733 25.249C18.9292 25.4932 18.792 25.8243 18.792 26.1696C18.792 26.5149 18.9292 26.846 19.1733 27.0902C19.4175 27.3343 19.7486 27.4715 20.0939 27.4715C20.4392 27.4715 20.7703 27.3343 21.0145 27.0902C21.2586 26.846 21.3958 26.5149 21.3958 26.1696C21.3958 25.8243 21.2586 25.4932 21.0145 25.249C20.7703 25.0049 20.4392 24.8677 20.0939 24.8677ZM27.9052 24.8677C27.5599 24.8677 27.2288 25.0049 26.9846 25.249C26.7405 25.4932 26.6033 25.8243 26.6033 26.1696C26.6033 26.5149 26.7405 26.846 26.9846 27.0902C27.2288 27.3343 27.5599 27.4715 27.9052 27.4715C28.2505 27.4715 28.5816 27.3343 28.8258 27.0902C29.0699 26.846 29.2071 26.5149 29.2071 26.1696C29.2071 25.8243 29.0699 25.4932 28.8258 25.249C28.5816 25.0049 28.2505 24.8677 27.9052 24.8677ZM27.2664 18.7922H20.7327C20.5898 18.7922 20.4492 18.8275 20.3232 18.8948C20.1973 18.9622 20.0899 19.0596 20.0106 19.1785L19.9568 19.2722L18.8545 21.475C20.198 21.8777 22.0085 22.2639 23.9996 22.2639C25.8587 22.2639 27.5589 21.9272 28.8686 21.5548L29.1437 21.475L28.0424 19.2722C27.9785 19.1445 27.8841 19.0345 27.7675 18.9519C27.6509 18.8694 27.5158 18.817 27.374 18.7992L27.2673 18.7922H27.2664Z" fill="white"/>
</svg>
