<svg width="257" height="45" viewBox="0 0 257 45" fill="none" xmlns="http://www.w3.org/2000/svg">
<rect x="53.5" width="45" height="45" rx="21.9216" fill="#F4AD22"/>
<circle cx="76.0028" cy="22.4998" r="17.8856" fill="#F4AD22" stroke="white" stroke-width="2"/>
<g clip-path="url(#clip0_4903_11974)">
<path d="M70.7702 28.3262C69.6774 28.3262 68.746 27.9409 67.976 27.1704C67.2061 26.4 66.8208 25.4686 66.8203 24.3763C66.8198 23.2841 67.205 22.3527 67.976 21.5822C68.747 20.8117 69.6784 20.4265 70.7702 20.4265H79.9338L78.3539 18.8465H75.51V17.2666H78.3341C78.5448 17.2666 78.7457 17.3061 78.9369 17.3851C79.128 17.4641 79.2958 17.576 79.4401 17.7208L82.1852 20.466C83.2122 20.545 84.068 20.9597 84.7526 21.7102C85.4372 22.4606 85.7796 23.3494 85.7796 24.3763C85.7796 25.4691 85.3943 26.4007 84.6238 27.1712C83.8534 27.9417 82.922 28.3267 81.8297 28.3262C80.7375 28.3256 79.8061 27.9404 79.0356 27.1704C78.2651 26.4005 77.8799 25.4691 77.8799 24.3763C77.8799 24.1393 77.8965 23.9055 77.9296 23.6748C77.9628 23.4442 78.0252 23.2172 78.1169 22.9939L75.9445 25.1663H74.641C74.4567 26.0879 74.0024 26.845 73.2783 27.4374C72.5542 28.0299 71.7181 28.3262 70.7702 28.3262ZM81.8297 26.7462C82.488 26.7462 83.0476 26.5158 83.5084 26.055C83.9692 25.5942 84.1996 25.0346 84.1996 24.3763C84.1996 23.718 83.9692 23.1585 83.5084 22.6976C83.0476 22.2368 82.488 22.0064 81.8297 22.0064C81.1714 22.0064 80.6118 22.2368 80.151 22.6976C79.6902 23.1585 79.4598 23.718 79.4598 24.3763C79.4598 25.0346 79.6902 25.5942 80.151 26.055C80.6118 26.5158 81.1714 26.7462 81.8297 26.7462ZM70.7702 26.7462C71.2705 26.7462 71.7215 26.6014 72.1234 26.3117C72.5252 26.0221 72.8114 25.6403 72.9821 25.1663H70.7702V23.5864H72.9821C72.8109 23.1124 72.5247 22.7306 72.1234 22.4409C71.7221 22.1512 71.271 22.0064 70.7702 22.0064C70.1118 22.0064 69.5523 22.2368 69.0915 22.6976C68.6307 23.1585 68.4003 23.718 68.4003 24.3763C68.4003 25.0346 68.6307 25.5942 69.0915 26.055C69.5523 26.5158 70.1118 26.7462 70.7702 26.7462Z" fill="white"/>
</g>
<rect x="88.5" width="45" height="45" rx="21.9216" fill="#F4AD22"/>
<circle cx="111.003" cy="22.4998" r="17.8856" fill="#F4AD22" stroke="white" stroke-width="2"/>
<path fill-rule="evenodd" clip-rule="evenodd" d="M114.452 16.1602C114.892 16.1602 115.323 16.2827 115.697 16.5141C116.072 16.7454 116.374 17.0764 116.571 17.47L117.666 19.6591C117.859 19.5801 118.049 19.4947 118.235 19.4031C118.423 19.3094 118.64 19.2941 118.838 19.3605C119.037 19.4269 119.202 19.5695 119.295 19.757C119.389 19.9445 119.404 20.1616 119.338 20.3604C119.271 20.5592 119.129 20.7236 118.941 20.8172C118.751 20.9017 118.56 20.9839 118.369 21.0637L119.128 22.5829C119.292 22.9122 119.378 23.2755 119.378 23.6438V25.6402C119.378 25.9736 119.308 26.3033 119.172 26.6077C119.035 26.9121 118.837 27.1843 118.588 27.4066V28.4052C118.588 28.7194 118.463 29.0208 118.241 29.2431C118.019 29.4653 117.717 29.5902 117.403 29.5902C117.089 29.5902 116.787 29.4653 116.565 29.2431C116.343 29.0208 116.218 28.7194 116.218 28.4052V28.0102H106.738V28.4052C106.738 28.7194 106.613 29.0208 106.391 29.2431C106.169 29.4653 105.867 29.5902 105.553 29.5902C105.239 29.5902 104.937 29.4653 104.715 29.2431C104.493 29.0208 104.368 28.7194 104.368 28.4052V27.4066C103.883 26.9721 103.578 26.3417 103.578 25.6402V23.643C103.578 23.2753 103.664 22.9126 103.829 22.5836L104.581 21.0763C104.391 20.9963 104.202 20.9102 104.017 20.818C103.83 20.7231 103.688 20.5587 103.622 20.3603C103.555 20.1618 103.569 19.9452 103.661 19.757C103.707 19.6641 103.772 19.5813 103.85 19.5132C103.928 19.4452 104.019 19.3932 104.118 19.3604C104.216 19.3275 104.32 19.3144 104.424 19.3217C104.527 19.329 104.628 19.3567 104.721 19.4031C104.908 19.4953 105.098 19.5806 105.29 19.6591L106.385 17.4708C106.582 17.077 106.884 16.7459 107.259 16.5144C107.633 16.2829 108.064 16.1602 108.505 16.1602H114.452ZM107.923 23.2702C107.609 23.2702 107.307 23.395 107.085 23.6172C106.863 23.8395 106.738 24.1409 106.738 24.4552C106.738 24.7694 106.863 25.0708 107.085 25.2931C107.307 25.5153 107.609 25.6402 107.923 25.6402C108.237 25.6402 108.539 25.5153 108.761 25.2931C108.983 25.0708 109.108 24.7694 109.108 24.4552C109.108 24.1409 108.983 23.8395 108.761 23.6172C108.539 23.395 108.237 23.2702 107.923 23.2702ZM115.033 23.2702C114.719 23.2702 114.417 23.395 114.195 23.6172C113.973 23.8395 113.848 24.1409 113.848 24.4552C113.848 24.7694 113.973 25.0708 114.195 25.2931C114.417 25.5153 114.719 25.6402 115.033 25.6402C115.347 25.6402 115.649 25.5153 115.871 25.2931C116.093 25.0708 116.218 24.7694 116.218 24.4552C116.218 24.1409 116.093 23.8395 115.871 23.6172C115.649 23.395 115.347 23.2702 115.033 23.2702ZM114.452 17.7402H108.505C108.375 17.7401 108.247 17.7722 108.132 17.8335C108.017 17.8949 107.919 17.9835 107.847 18.0917L107.798 18.177L106.795 20.182C108.018 20.5486 109.666 20.9002 111.478 20.9002C113.17 20.9002 114.718 20.5936 115.91 20.2547L116.16 20.182L115.158 18.177C115.1 18.0607 115.014 17.9606 114.908 17.8855C114.802 17.8104 114.679 17.7627 114.55 17.7465L114.452 17.7402Z" fill="white"/>
<rect x="123.5" width="45" height="45" rx="21.9216" fill="#F4AD22"/>
<circle cx="146.003" cy="22.4998" r="17.8856" fill="#F4AD22" stroke="white" stroke-width="2"/>
<path d="M146.003 5.61409C148.22 5.61409 150.416 6.05085 152.465 6.89943C154.513 7.74801 156.375 8.99179 157.943 10.5598C159.511 12.1277 160.754 13.9892 161.603 16.0378C162.452 18.0865 162.888 20.2822 162.888 22.4997C162.888 24.7171 162.452 26.9129 161.603 28.9615C160.754 31.0102 159.511 32.8716 157.943 34.4396C156.375 36.0076 154.513 37.2513 152.465 38.0999C150.416 38.9485 148.22 39.3853 146.003 39.3853L146.003 22.4997V5.61409Z" fill="#F4AD22"/>
<path fill-rule="evenodd" clip-rule="evenodd" d="M139.845 18.5742C140.118 18.5742 140.386 18.6502 140.618 18.7937C140.85 18.9372 141.038 19.1425 141.16 19.3866L141.839 20.7443C141.959 20.6953 142.076 20.6424 142.192 20.5855C142.308 20.5274 142.443 20.5179 142.566 20.5591C142.689 20.6003 142.791 20.6887 142.849 20.805C142.907 20.9213 142.917 21.0559 142.876 21.1793C142.835 21.3026 142.746 21.4045 142.63 21.4626C142.512 21.515 142.394 21.5659 142.275 21.6154L142.746 22.5576C142.848 22.7619 142.901 22.9872 142.901 23.2157V24.4538C142.901 24.6606 142.857 24.8651 142.773 25.0539C142.688 25.2426 142.565 25.4115 142.411 25.5494V26.1687C142.411 26.3636 142.333 26.5505 142.196 26.6884C142.058 26.8262 141.871 26.9036 141.676 26.9036C141.481 26.9036 141.294 26.8262 141.156 26.6884C141.018 26.5505 140.941 26.3636 140.941 26.1687V25.9237H135.061V26.1687C135.061 26.3636 134.984 26.5505 134.846 26.6884C134.708 26.8262 134.521 26.9036 134.326 26.9036C134.132 26.9036 133.945 26.8262 133.807 26.6884C133.669 26.5505 133.592 26.3636 133.592 26.1687V25.5494C133.291 25.2799 133.102 24.8889 133.102 24.4538V23.2152C133.102 22.9871 133.155 22.7621 133.257 22.5581L133.724 21.6233C133.606 21.5736 133.489 21.5202 133.373 21.463C133.258 21.4042 133.17 21.3023 133.129 21.1792C133.087 21.0561 133.096 20.9217 133.153 20.805C133.182 20.7474 133.222 20.696 133.27 20.6538C133.319 20.6116 133.375 20.5794 133.436 20.559C133.497 20.5386 133.562 20.5305 133.626 20.535C133.69 20.5396 133.753 20.5567 133.811 20.5855C133.926 20.6427 134.044 20.6956 134.163 20.7443L134.842 19.3871C134.964 19.1429 135.152 18.9375 135.384 18.7939C135.616 18.6503 135.884 18.5743 136.157 18.5742H139.845ZM135.796 22.9839C135.601 22.9839 135.415 23.0613 135.277 23.1992C135.139 23.337 135.061 23.5239 135.061 23.7188C135.061 23.9138 135.139 24.1007 135.277 24.2385C135.415 24.3764 135.601 24.4538 135.796 24.4538C135.991 24.4538 136.178 24.3764 136.316 24.2385C136.454 24.1007 136.531 23.9138 136.531 23.7188C136.531 23.5239 136.454 23.337 136.316 23.1992C136.178 23.0613 135.991 22.9839 135.796 22.9839ZM140.206 22.9839C140.011 22.9839 139.824 23.0613 139.686 23.1992C139.549 23.337 139.471 23.5239 139.471 23.7188C139.471 23.9138 139.549 24.1007 139.686 24.2385C139.824 24.3764 140.011 24.4538 140.206 24.4538C140.401 24.4538 140.588 24.3764 140.726 24.2385C140.864 24.1007 140.941 23.9138 140.941 23.7188C140.941 23.5239 140.864 23.337 140.726 23.1992C140.588 23.0613 140.401 22.9839 140.206 22.9839ZM139.845 19.5541H136.157C136.076 19.5541 135.997 19.574 135.926 19.6121C135.855 19.6501 135.794 19.7051 135.749 19.7722L135.719 19.8251L135.097 21.0686C135.855 21.296 136.877 21.514 138.001 21.514C139.051 21.514 140.011 21.3239 140.75 21.1137L140.905 21.0686L140.283 19.8251C140.247 19.753 140.194 19.6909 140.128 19.6443C140.062 19.5977 139.986 19.5681 139.906 19.5581L139.846 19.5541H139.845Z" fill="white"/>
<rect x="145.617" y="5.61426" width="1" height="35" fill="white"/>
<g clip-path="url(#clip1_4903_11974)">
<path d="M151.567 25.9232C150.889 25.9232 150.312 25.6843 149.834 25.2064C149.356 24.7285 149.118 24.1509 149.117 23.4735C149.117 22.796 149.356 22.2184 149.834 21.7405C150.312 21.2627 150.89 21.0237 151.567 21.0237H157.25L156.27 20.0439H154.507V19.064H156.258C156.389 19.064 156.513 19.0885 156.632 19.1375C156.751 19.1865 156.855 19.2559 156.944 19.3457L158.647 21.0482C159.284 21.0972 159.814 21.3545 160.239 21.8199C160.664 22.2854 160.876 22.8365 160.876 23.4735C160.876 24.1512 160.637 24.729 160.159 25.2069C159.681 25.6848 159.104 25.9235 158.426 25.9232C157.749 25.9229 157.171 25.6839 156.693 25.2064C156.215 24.7289 155.976 24.1512 155.976 23.4735C155.976 23.3265 155.987 23.1815 156.007 23.0384C156.028 22.8953 156.067 22.7546 156.123 22.6161L154.776 23.9634H153.968C153.853 24.535 153.572 25.0045 153.122 25.372C152.673 25.7395 152.155 25.9232 151.567 25.9232ZM158.426 24.9433C158.834 24.9433 159.181 24.8004 159.467 24.5146C159.753 24.2288 159.896 23.8818 159.896 23.4735C159.896 23.0652 159.753 22.7181 159.467 22.4323C159.181 22.1465 158.834 22.0036 158.426 22.0036C158.018 22.0036 157.671 22.1465 157.385 22.4323C157.099 22.7181 156.956 23.0652 156.956 23.4735C156.956 23.8818 157.099 24.2288 157.385 24.5146C157.671 24.8004 158.018 24.9433 158.426 24.9433ZM151.567 24.9433C151.877 24.9433 152.157 24.8535 152.406 24.6738C152.655 24.4942 152.833 24.2574 152.939 23.9634H151.567V22.9835H152.939C152.833 22.6896 152.655 22.4528 152.406 22.2731C152.157 22.0935 151.878 22.0036 151.567 22.0036C151.159 22.0036 150.812 22.1465 150.526 22.4323C150.24 22.7181 150.097 23.0652 150.097 23.4735C150.097 23.8818 150.24 24.2288 150.526 24.5146C150.812 24.8004 151.159 24.9433 151.567 24.9433Z" fill="white"/>
</g>
<rect x="158.5" width="45" height="45" rx="21.9216" fill="#F4AD22"/>
<circle cx="181.386" cy="22.8856" r="17.8856" fill="#F4AD22" stroke="white" stroke-width="2"/>
<path fill-rule="evenodd" clip-rule="evenodd" d="M175.726 25.832C175.981 25.832 176.231 25.9031 176.448 26.0372C176.665 26.1713 176.841 26.3632 176.955 26.5914L177.59 27.8606C177.702 27.8148 177.812 27.7654 177.92 27.7122C178.028 27.6579 178.154 27.649 178.269 27.6875C178.385 27.726 178.48 27.8087 178.534 27.9174C178.589 28.0261 178.597 28.152 178.559 28.2673C178.521 28.3825 178.438 28.4778 178.329 28.5321C178.219 28.5811 178.108 28.6287 177.997 28.675L178.437 29.5558C178.533 29.7468 178.582 29.9574 178.582 30.1709V31.3283C178.582 31.5217 178.542 31.7128 178.463 31.8893C178.384 32.0658 178.268 32.2236 178.124 32.3525V32.9314C178.124 33.1136 178.052 33.2884 177.923 33.4172C177.794 33.5461 177.62 33.6185 177.437 33.6185C177.255 33.6185 177.08 33.5461 176.952 33.4172C176.823 33.2884 176.75 33.1136 176.75 32.9314V32.7024H171.254V32.9314C171.254 33.1136 171.182 33.2884 171.053 33.4172C170.924 33.5461 170.749 33.6185 170.567 33.6185C170.385 33.6185 170.21 33.5461 170.081 33.4172C169.952 33.2884 169.88 33.1136 169.88 32.9314V32.3525C169.599 32.1006 169.422 31.7351 169.422 31.3283V30.1705C169.422 29.9572 169.472 29.7469 169.567 29.5562L170.004 28.6823C169.893 28.6359 169.784 28.586 169.676 28.5326C169.568 28.4775 169.486 28.3822 169.447 28.2672C169.409 28.1521 169.417 28.0265 169.47 27.9174C169.497 27.8636 169.534 27.8155 169.579 27.7761C169.625 27.7366 169.678 27.7065 169.735 27.6874C169.792 27.6684 169.852 27.6608 169.912 27.665C169.972 27.6693 170.031 27.6853 170.085 27.7122C170.193 27.7657 170.303 27.8151 170.414 27.8606L171.049 26.5919C171.163 26.3636 171.339 26.1716 171.556 26.0374C171.773 25.9032 172.023 25.8321 172.278 25.832H175.726ZM171.941 29.9543C171.759 29.9543 171.584 30.0266 171.455 30.1555C171.326 30.2843 171.254 30.4591 171.254 30.6413C171.254 30.8235 171.326 30.9983 171.455 31.1271C171.584 31.256 171.759 31.3283 171.941 31.3283C172.123 31.3283 172.298 31.256 172.427 31.1271C172.556 30.9983 172.628 30.8235 172.628 30.6413C172.628 30.4591 172.556 30.2843 172.427 30.1555C172.298 30.0266 172.123 29.9543 171.941 29.9543ZM176.063 29.9543C175.881 29.9543 175.706 30.0266 175.577 30.1555C175.449 30.2843 175.376 30.4591 175.376 30.6413C175.376 30.8235 175.449 30.9983 175.577 31.1271C175.706 31.256 175.881 31.3283 176.063 31.3283C176.245 31.3283 176.42 31.256 176.549 31.1271C176.678 30.9983 176.75 30.8235 176.75 30.6413C176.75 30.4591 176.678 30.2843 176.549 30.1555C176.42 30.0266 176.245 29.9543 176.063 29.9543ZM175.726 26.7481H172.278C172.203 26.7481 172.129 26.7667 172.062 26.8022C171.996 26.8378 171.939 26.8892 171.897 26.9519L171.869 27.0014L171.287 28.1638C171.996 28.3764 172.951 28.5802 174.002 28.5802C174.983 28.5802 175.88 28.4025 176.572 28.206L176.717 28.1638L176.136 27.0014C176.102 26.934 176.052 26.8759 175.991 26.8324C175.929 26.7888 175.858 26.7611 175.783 26.7517L175.727 26.7481H175.726Z" fill="white"/>
<path d="M181.203 25H182.203V41H181.203V25Z" fill="white"/>
<rect x="164.867" y="17.9551" width="1" height="18.4062" transform="rotate(-65.8539 164.867 17.9551)" fill="white"/>
<rect width="1" height="18.2366" transform="matrix(-0.409065 -0.912505 -0.912505 0.409065 198.641 18.0244)" fill="white"/>
<path d="M182.367 9.91602C182.702 9.91571 183.026 10.0378 183.277 10.2594C183.529 10.481 183.69 10.7868 183.732 11.1193C183.774 11.4518 183.692 11.788 183.503 12.0648C183.314 12.3415 183.031 12.5397 182.706 12.622L181.585 15.1833H182.642C182.971 15.1832 183.292 15.2845 183.562 15.4733C183.832 15.6621 184.037 15.9293 184.149 16.2386L184.752 17.8976L184.965 18.0038C185.046 18.0442 185.118 18.1001 185.177 18.1682C185.236 18.2364 185.281 18.3156 185.31 18.4012C185.338 18.4868 185.35 18.5772 185.343 18.6672C185.337 18.7572 185.313 18.8451 185.273 18.9258C185.232 19.0066 185.176 19.0785 185.108 19.1377C185.04 19.1968 184.961 19.2419 184.875 19.2705C184.79 19.299 184.699 19.3104 184.609 19.304C184.519 19.2976 184.431 19.2735 184.351 19.2332L183.892 19.0042C183.735 18.9255 183.614 18.7894 183.554 18.624L182.857 16.7085C182.841 16.6644 182.812 16.6262 182.773 16.5992C182.735 16.5723 182.689 16.5578 182.642 16.5578H181.586C180.595 16.5578 179.93 15.541 180.327 14.6332L180.713 13.7506L180.077 13.4323L178.552 14.1949C178.471 14.236 178.383 14.2608 178.293 14.2677C178.202 14.2746 178.111 14.2635 178.025 14.2351C177.939 14.2067 177.859 14.1616 177.791 14.1022C177.722 14.0429 177.666 13.9706 177.626 13.8895C177.585 13.8084 177.561 13.72 177.555 13.6296C177.549 13.5391 177.56 13.4483 177.589 13.3624C177.619 13.2765 177.664 13.1972 177.724 13.1291C177.784 13.061 177.857 13.0054 177.938 12.9656L179.565 12.1521C179.724 12.0726 179.899 12.0312 180.077 12.0312C180.255 12.0312 180.43 12.0726 180.589 12.1521L181.264 12.4897L181.374 12.2396C181.188 12.045 181.063 11.8001 181.015 11.5353C180.967 11.2705 180.998 10.9974 181.104 10.7499C181.209 10.5024 181.386 10.2915 181.61 10.1432C181.835 9.99498 182.098 9.91598 182.367 9.91602ZM177.412 14.3868L178.162 14.9145C178.002 15.1426 177.891 15.4007 177.833 15.6731C177.776 15.9456 177.775 16.2268 177.83 16.4998C177.884 16.7727 177.994 17.0318 178.151 17.2614C178.309 17.4909 178.511 17.6862 178.746 17.8354C178.981 17.9847 179.244 18.0847 179.518 18.1296C179.793 18.1745 180.074 18.1633 180.344 18.0967C180.615 18.03 180.869 17.9093 181.091 17.7418C181.313 17.5743 181.499 17.3635 181.638 17.1221L181.685 17.036L182.5 17.4528C182.316 17.8109 182.061 18.1279 181.751 18.3847C181.441 18.6415 181.082 18.8327 180.696 18.9469C180.31 19.061 179.905 19.0957 179.505 19.0488C179.106 19.0019 178.719 18.8744 178.37 18.6741C178.021 18.4737 177.716 18.2046 177.474 17.883C177.232 17.5614 177.057 17.1941 176.961 16.8032C176.865 16.4123 176.849 16.006 176.914 15.6087C176.98 15.2115 177.125 14.8317 177.341 14.4922L177.412 14.3868Z" fill="white"/>
<g clip-path="url(#clip2_4903_11974)">
<path d="M185.79 33.1929C185.156 33.1929 184.616 32.9695 184.17 32.5228C183.724 32.0761 183.5 31.5361 183.5 30.9028C183.5 30.2696 183.723 29.7296 184.17 29.2829C184.617 28.8361 185.157 28.6128 185.79 28.6128H191.103L190.187 27.6968H188.538V26.7808H190.175C190.298 26.7808 190.414 26.8037 190.525 26.8495C190.636 26.8953 190.733 26.9601 190.817 27.0441L192.408 28.6357C193.004 28.6815 193.5 28.9219 193.897 29.3571C194.294 29.7922 194.492 30.3074 194.492 30.9028C194.492 31.5364 194.269 32.0765 193.822 32.5233C193.375 32.97 192.835 33.1932 192.202 33.1929C191.569 33.1926 191.029 32.9692 190.582 32.5228C190.135 32.0764 189.912 31.5364 189.912 30.9028C189.912 30.7654 189.922 30.6299 189.941 30.4961C189.96 30.3624 189.996 30.2308 190.05 30.1013L188.79 31.3608H188.034C187.927 31.8952 187.664 32.3341 187.244 32.6776C186.824 33.0211 186.34 33.1929 185.79 33.1929ZM192.202 32.2769C192.584 32.2769 192.908 32.1433 193.175 31.8761C193.443 31.6089 193.576 31.2845 193.576 30.9028C193.576 30.5212 193.443 30.1967 193.175 29.9296C192.908 29.6624 192.584 29.5288 192.202 29.5288C191.82 29.5288 191.496 29.6624 191.229 29.9296C190.962 30.1967 190.828 30.5212 190.828 30.9028C190.828 31.2845 190.962 31.6089 191.229 31.8761C191.496 32.1433 191.82 32.2769 192.202 32.2769ZM185.79 32.2769C186.08 32.2769 186.342 32.1929 186.575 32.0249C186.808 31.857 186.974 31.6356 187.072 31.3608H185.79V30.4448H187.072C186.973 30.17 186.807 29.9486 186.575 29.7807C186.342 29.6128 186.08 29.5288 185.79 29.5288C185.408 29.5288 185.084 29.6624 184.817 29.9296C184.55 30.1967 184.416 30.5212 184.416 30.9028C184.416 31.2845 184.55 31.6089 184.817 31.8761C185.084 32.1433 185.408 32.2769 185.79 32.2769Z" fill="white"/>
</g>
<path d="M181.203 25H182.203V41H181.203V25Z" fill="white"/>
<rect x="164.867" y="17.9551" width="1" height="18.4062" transform="rotate(-65.8539 164.867 17.9551)" fill="white"/>
<rect width="1" height="18.2366" transform="matrix(-0.409065 -0.912505 -0.912505 0.409065 198.641 18.0244)" fill="white"/>
<defs>
<clipPath id="clip0_4903_11974">
<rect width="18.9592" height="18.9592" fill="white" transform="translate(66.8203 13.3164)"/>
</clipPath>
<clipPath id="clip1_4903_11974">
<rect width="11.7587" height="11.7587" fill="white" transform="translate(149.117 16.6143)"/>
</clipPath>
<clipPath id="clip2_4903_11974">
<rect width="10.9922" height="10.9922" fill="white" transform="translate(183.5 25)"/>
</clipPath>
</defs>
</svg>
