<svg width="45" height="45" viewBox="0 0 45 45" fill="none" xmlns="http://www.w3.org/2000/svg">
<rect width="45" height="45" rx="22.1652" fill="#8732BB"/>
<circle cx="22.5029" cy="22.5" r="18.0843" fill="#8732BB" stroke="white" stroke-width="2.02222"/>
<g clip-path="url(#clip0_4929_3332)">
<path d="M32.7206 24.479C32.2856 24.0352 31.6073 24.0643 31.1502 24.479L27.744 27.5437C27.3259 27.9211 26.8055 28.126 26.2695 28.1243H21.9097C21.7532 28.1243 21.6032 28.0544 21.4926 27.93C21.382 27.8055 21.3198 27.6368 21.3198 27.4608C21.3198 27.2848 21.382 27.116 21.4926 26.9916C21.6032 26.8671 21.7532 26.7972 21.9097 26.7972H24.7957C25.3818 26.7972 25.9278 26.3452 26.0214 25.6941C26.033 25.6193 26.0387 25.5436 26.0384 25.4677C26.0378 25.1161 25.9132 24.7792 25.6921 24.5309C25.4709 24.2825 25.1712 24.1431 24.8587 24.1431H18.9606C17.9659 24.1434 17.0015 24.5283 16.229 25.2333L14.5149 26.7972H12.4726C12.3162 26.7972 12.1662 26.8671 12.0556 26.9916C11.945 27.116 11.8828 27.2848 11.8828 27.4608V31.442C11.8828 31.618 11.945 31.7868 12.0556 31.9112C12.1662 32.0357 12.3162 32.1056 12.4726 32.1056H25.6244C26.1602 32.106 26.6803 31.9013 27.0989 31.525L32.6738 26.5069C32.8079 26.3863 32.917 26.2341 32.9934 26.0611C33.0698 25.8881 33.1117 25.6984 33.1162 25.5053C33.1207 25.3122 33.0877 25.1203 33.0194 24.943C32.9511 24.7657 32.8489 24.6074 32.7206 24.479Z" fill="white"/>
<path d="M26.8847 11.603C27.4274 11.603 27.9475 11.8469 28.3309 12.2803L30.2307 14.4279C30.4206 14.6426 30.5712 14.8974 30.674 15.1779C30.7768 15.4583 30.8296 15.7589 30.8296 16.0625C30.8296 16.3661 30.7768 16.6667 30.674 16.9471C30.5712 17.2276 30.4206 17.4824 30.2307 17.6971L28.8367 19.2729C28.4985 19.6548 28.0528 19.8908 27.5768 19.94C27.1008 19.9893 26.6245 19.8486 26.2307 19.5424L26.1753 19.4959L23.0729 23.0035C22.8328 23.274 22.5222 23.4502 22.1869 23.5061L22.0708 23.5222L21.9543 23.5275H21.3361C20.8013 23.5275 20.3514 23.075 20.286 22.4406L20.2812 22.3351V21.6363C20.2812 21.2166 20.4121 20.8099 20.6663 20.4677L20.7449 20.3717L20.9632 20.1249C21.0621 20.0131 21.1962 19.9502 21.3361 19.9502H21.8635V19.354C21.8636 19.2079 21.911 19.067 21.9968 18.9578C22.0827 18.8487 22.201 18.779 22.3293 18.7619L22.391 18.7577H22.9184V18.1615C22.9184 18.0305 22.9566 17.9031 23.0271 17.799L23.0729 17.7394L23.8472 16.8635L23.8071 16.8021C23.5965 16.4557 23.473 16.0512 23.4495 15.6317L23.4458 15.491C23.4458 14.8775 23.6616 14.2896 24.045 13.8562L25.439 12.2803C25.8225 11.847 26.3424 11.6034 26.8847 11.603ZM27.1458 14.5842H27.1352C26.8554 14.5842 26.5871 14.7098 26.3893 14.9334C26.1915 15.157 26.0803 15.4604 26.0803 15.7766C26.0803 16.0929 26.1915 16.3962 26.3893 16.6198C26.5871 16.8434 26.8554 16.9691 27.1352 16.9691H27.1458C27.4255 16.9691 27.6938 16.8434 27.8917 16.6198C28.0895 16.3962 28.2006 16.0929 28.2006 15.7766C28.2006 15.4604 28.0895 15.157 27.8917 14.9334C27.6938 14.7098 27.4255 14.5842 27.1458 14.5842Z" fill="white"/>
</g>
<defs>
<clipPath id="clip0_4929_3332">
<rect width="21.2333" height="21.2333" fill="white" transform="translate(11.8828 10.8726)"/>
</clipPath>
</defs>
</svg>
